<?xml version="1.0" encoding="UTF-8"?>
<svg version="1.1" xmlns="http://www.w3.org/2000/svg" width="1184" height="1184">
<path d="M0 0 C0.878909 0.00060425 1.75781799 0.0012085 2.6633606 0.00183105 C77.30410346 0.13938521 151.65429845 14.04334793 373.55957031 131.73876953 C376.06261324 133.80744039 378.59670376 135.83732215 381.125 137.875 C385.8153401 141.71319122 390.29978126 145.74714281 394.7578125 149.8515625 C396.93192099 151.83950879 399.13672776 153.77283338 401.375 155.6875 C405.40781879 159.18425904 409.11656956 162.9750866 412.86328125 166.7734375 C415.01004535 168.88938681 417.20152621 170.86524368 419.5 172.8125 C422.80581286 175.64322598 425.58893961 178.70329743 428.3984375 182.01953125 C430.60475484 184.51852333 432.93933693 186.84660047 435.3125 189.1875 C439.52935089 193.36636124 443.46518112 197.67074764 447.3125 202.1875 C448.19176737 203.19223049 449.07206223 204.1960623 449.953125 205.19921875 C457.25960764 213.56029561 464.075869 222.22699583 470.74072266 231.10546875 C472.20165567 233.04067172 473.68059983 234.9600836 475.16796875 236.875 C493.30944727 260.38731098 508.95956082 285.89446974 523.10791016 311.97070312 C523.90243608 313.43286271 524.70149757 314.89256804 525.50537109 316.34960938 C565.36400756 388.66572854 586.97584939 472.0728788 592.3125 554.1875 C592.37034668 555.06003418 592.42819336 555.93256836 592.48779297 556.83154297 C597.58879455 637.49396859 585.58578606 719.32775332 544.3125 829.1875 C543.89419922 830.1451123 543.47589844 831.10272461 543.04492188 832.08935547 C521.10139579 881.94806187 492.2980282 928.41282209 457.3125 970.1875 C456.89291016 970.69200684 456.47332031 971.19651367 456.04101562 971.71630859 C449.77958457 979.24145183 443.32746085 986.54916303 436.66552734 993.72119141 C435.34548795 995.15175016 434.0416467 996.59720222 432.73828125 998.04296875 C427.34784826 1004.01353803 421.80232516 1009.80095794 416.125 1015.5 C415.47184814 1016.15774414 414.81869629 1016.81548828 414.14575195 1017.49316406 C410.28393455 1021.34282362 406.30827257 1025.00128768 402.1809082 1028.56420898 C399.56350077 1030.83823774 397.03716465 1033.19921097 394.5 1035.5625 C389.90825319 1039.79936417 385.20295886 1043.84155883 380.33203125 1047.7578125 C378.1058284 1049.54914261 375.89761884 1051.35488303 373.69921875 1053.1796875 C310.13334448 1105.76854736 233.68629057 1143.91511139 145.3125 1167.1875 C144.64559143 1167.35723328 143.97868286 1167.52696655 143.29156494 1167.70184326 C111.50943173 1175.73894283 78.98115277 1180.63584621 46.3125 1183.1875 C45.18714844 1183.28248779 44.06179688 1183.37747559 42.90234375 1183.4753418 C30.56853343 1184.39693695 18.22618261 1184.37359849 5.86328125 1184.37280273 C2.11186052 1184.37497146 -1.63925669 1184.39313569 -5.390625 1184.41210938 C-27.53645872 1184.46415802 -49.57801472 1183.21631585 -71.5625 1180.5 C-72.22462494 1180.41857758 -72.88674988 1180.33715515 -73.56893921 1180.25326538 C-138.09597572 1172.21529869 -200.1293784 1153.33346262 -258.6875 1125.1875 C-259.5758252 1124.76259277 -260.46415039 1124.33768555 -261.37939453 1123.89990234 C-303.494306 1103.64910729 -343.02481829 1077.33843507 -378.6875 1047.1875 C-379.30995605 1046.66414063 -379.93241211 1046.14078125 -380.57373047 1045.6015625 C-394.31840332 1034.03328244 -407.27564443 1021.7681955 -419.95556641 1009.04980469 C-422.07731009 1006.92265216 -424.20441491 1004.80096439 -426.33203125 1002.6796875 C-427.7086544 1001.30240417 -429.08496766 999.92481101 -430.4609375 998.546875 C-431.08398773 997.925849 -431.70703796 997.304823 -432.34896851 996.66497803 C-436.65787628 992.33336392 -440.70651712 987.8208226 -444.6875 983.1875 C-445.66082611 982.06976164 -446.63467636 980.95247917 -447.609375 979.8359375 C-454.55998254 971.81171798 -461.22786273 963.61123156 -467.6875 955.1875 C-468.14560059 954.59308105 -468.60370117 953.99866211 -469.07568359 953.38623047 C-482.59099263 935.80270537 -495.2198824 917.65166917 -506.35546875 898.46630859 C-507.60129446 896.33497847 -508.87210941 894.22168732 -510.15625 892.11328125 C-558.87792986 811.6998161 -585.69604883 717.85813079 -590.890625 609.98828125 C-590.89763931 608.68607635 -590.90465363 607.38387146 -590.91188049 606.04220581 C-590.93126927 601.86146548 -590.93631522 597.68078076 -590.9375 593.5 C-590.93794186 592.78636417 -590.93838371 592.07272835 -590.93883896 591.33746719 C-590.94614304 568.8244457 -590.48007949 546.55034735 -587.6875 524.1875 C-587.51397719 522.75051036 -587.34064171 521.3134981 -587.16748047 519.87646484 C-581.76766141 475.71662721 -571.00867174 433.12337747 -556.3704834 391.14654541 C-555.7484011 389.36218656 -555.13032982 387.57643062 -554.51269531 385.79052734 C-532.47164074 322.60146558 -496.72498684 263.04604666 -453.3203125 212.29296875 C-450.80411783 209.34329651 -448.36857031 206.33279582 -445.9375 203.3125 C-442.94789856 199.63667332 -439.86130094 196.2281425 -436.4465332 192.94750977 C-434.7923999 191.29245814 -433.29197592 189.58568556 -431.78515625 187.796875 C-426.94680698 182.23111287 -421.71211365 177.062586 -416.49047852 171.86010742 C-414.753564 170.128553 -413.02206111 168.39171641 -411.29101562 166.65429688 C-405.59034109 160.95025145 -399.83441542 155.41429114 -393.6875 150.1875 C-392.1426874 148.7742645 -390.60054675 147.35809591 -389.0625 145.9375 C-384.02285186 141.39027549 -378.73979136 137.2222757 -373.37890625 133.06640625 C-370.92636691 131.16362989 -368.49840354 129.23548518 -366.08984375 127.27734375 C-293.9245787 68.61941351 -205.22492254 28.69691601 -55.25 2.5 C-53.99582275 2.38052002 -52.74164551 2.26104004 -51.44946289 2.13793945 C-34.32064649 0.60120877 -17.19403149 -0.02226752 0 0 Z " fill="#29A7E0" transform="translate(590.6875,-0.1875)"/>
<path d="M0 0 C1.00392194 -0.00690731 2.00784388 -0.01381462 3.04218769 -0.02093124 C6.36514559 -0.03826482 9.68728598 -0.02655797 13.01025391 -0.01367188 C15.37311564 -0.01790544 17.73597534 -0.0234474 20.09883118 -0.0302124 C26.42153898 -0.04141289 32.7438422 -0.02390835 39.06649399 0.00248718 C42.98416392 0.01756791 46.9017957 0.02583521 50.81948853 0.03234863 C82.55710487 0.09469063 114.26504696 0.43888181 145.96161652 2.14224243 C148.27858667 2.2664667 150.59577743 2.38571485 152.9130249 2.50463867 C196.58751564 4.79564552 196.58751564 4.79564552 210.42431641 19.26757812 C216.9245582 26.89529549 220.73169521 34.62872212 220.74462891 44.72070312 C220.74591797 45.70167969 220.74720703 46.68265625 220.74853516 47.69335938 C220.74466797 48.70785156 220.74080078 49.72234375 220.73681641 50.76757812 C220.74068359 51.76660156 220.74455078 52.765625 220.74853516 53.79492188 C220.74660156 55.27412109 220.74660156 55.27412109 220.74462891 56.78320312 C220.74350098 57.66782227 220.74237305 58.55244141 220.74121094 59.46386719 C220.5703684 63.49575115 220.05746304 67.50675844 219.61181641 71.51757812 C228.52181641 71.51757812 237.43181641 71.51757812 246.61181641 71.51757812 C246.58087891 68.39289063 246.58087891 68.39289063 246.54931641 65.20507812 C246.55549788 63.82614639 246.56543863 62.44722199 246.58056641 61.06835938 C246.60475738 58.76064161 246.61066259 56.45934658 246.56494141 54.15185547 C246.31812855 41.49498345 247.8686653 34.18523162 256.61181641 24.51757812 C257.40330078 23.61523438 258.19478516 22.71289062 259.01025391 21.78320312 C272.69520967 7.16820182 288.01909731 1.2633114 307.61181641 0.51757812 C315.9605224 0.33715156 324.31243379 0.37653505 332.66259766 0.38476562 C335.09051015 0.38409046 337.51842258 0.38311866 339.94633484 0.38186646 C345.01704557 0.38039867 350.0877386 0.38251379 355.15844727 0.38720703 C361.61336082 0.39289454 368.0682327 0.38962561 374.52314472 0.38363457 C379.53271287 0.37999621 384.54227137 0.38118265 389.55183983 0.38376236 C391.92975049 0.38442307 394.30766207 0.38363361 396.68557167 0.38128281 C414.96284368 0.36717843 432.90985026 0.93366735 451.04931641 3.33007812 C452.0480629 3.46171356 452.0480629 3.46171356 453.06698608 3.5960083 C486.61729209 8.0560221 486.61729209 8.0560221 497.42431641 18.14257812 C503.79475423 26.86828345 505.85463137 37.84705555 508.08081055 48.19189453 C508.67968618 50.81483212 509.36860717 53.4079173 510.05322266 56.00976562 C511.97527452 63.6427831 513.18327096 71.37776112 514.42431641 79.14257812 C514.94462026 82.36574833 515.46852187 85.58831902 515.99462891 88.81054688 C516.12727646 89.6244136 516.25992401 90.43828033 516.39659119 91.27680969 C517.26870076 96.57634966 518.21822954 101.85613385 519.22900391 107.13085938 C527.20782527 148.97833959 540.77514861 220.77642965 516.21728516 258.31054688 C510.00564567 266.84966199 501.26909777 273.07508932 490.72919178 275.06061077 C481.45886414 276.39600515 472.22199776 277.139726 462.87426758 277.62817383 C462.09919621 277.67014598 461.32412484 277.71211812 460.52556646 277.75536215 C444.22927082 278.62566122 427.96153577 278.80013863 411.64561105 278.75329757 C407.78735882 278.7442253 403.92910729 278.74627977 400.07084656 278.74665833 C393.62509059 278.74573588 387.1793831 278.7372385 380.73364258 278.72338867 C373.33623664 278.70755047 365.93888296 278.7023958 358.54146129 278.70312423 C350.55236047 278.70380391 342.56327906 278.69685605 334.57418418 278.68767762 C332.31342031 278.68557094 330.05265967 278.68483996 327.79189491 278.68443871 C300.97763061 278.67468074 300.97763061 278.67468074 290.56567383 278.22583008 C289.3541716 278.1751387 288.14266937 278.12444733 286.89445496 278.07221985 C280.49430011 276.99083582 275.66623101 273.48842316 270.61181641 269.51757812 C269.69529297 268.79828125 268.77876953 268.07898438 267.83447266 267.33789062 C254.02774369 255.6696475 247.58535581 240.64618223 245.79733467 222.94873238 C245.11634894 214.02464425 245.37405847 205.02662951 245.41650391 196.08398438 C245.42024167 193.75129824 245.42308503 191.41861052 245.42507935 189.08592224 C245.4326557 182.99510233 245.45225159 176.90438031 245.4744873 170.81359863 C245.49507607 164.57887088 245.50410873 158.34412707 245.51416016 152.109375 C245.53550404 139.91205981 245.57063619 127.71484248 245.61181641 115.51757812 C236.37181641 115.51757812 227.13181641 115.51757812 217.61181641 115.51757812 C217.643479 120.03046509 217.643479 120.03046509 217.67578125 124.63452148 C217.70235508 135.99702057 217.20311541 147.30338852 216.58837891 158.64648438 C216.48072516 160.69846324 216.37342312 162.75046057 216.26644897 164.80247498 C216.04297653 169.06569656 215.81567869 173.32869086 215.58544922 177.59155273 C215.29386244 182.99522064 215.01143404 188.39932038 214.73183632 193.80362034 C214.51226481 198.02942141 214.28804352 202.25496644 214.06248093 206.48045158 C213.95672124 208.47064131 213.85226149 210.46090064 213.74925613 212.45123482 C213.22650075 222.49965725 212.59578878 232.52421415 211.62890625 242.54077148 C211.55164621 243.36292176 211.47438618 244.18507204 211.39478493 245.03213596 C210.25131165 256.23852657 206.28287961 264.07608962 197.61181641 271.51757812 C190.03735222 276.20291168 183.62246076 278.58070221 174.76831055 278.79882812 C174.08588791 278.816875 173.40346527 278.83492187 172.70036316 278.85351562 C170.43265193 278.91243288 168.16483882 278.96499168 165.89697266 279.01757812 C164.28737898 279.05819408 162.67779556 279.09921778 161.06822205 279.140625 C156.79994634 279.24937551 152.53155797 279.35281384 148.26312256 279.45507812 C144.07003537 279.55630932 139.87706146 279.66199208 135.68408203 279.76757812 C130.67285484 279.89366819 125.66161599 280.01907476 120.65028381 280.14093018 C112.45580967 280.34087211 104.26194705 280.5517589 96.06860352 280.79394531 C76.80916648 281.35994387 57.56192116 281.73227913 38.29370117 281.7578125 C35.43355046 281.76226885 32.57368941 281.77650017 29.71362305 281.79882812 C-22.43788041 282.19625028 -22.43788041 282.19625028 -39.37255859 265.85742188 C-52.54952307 250.56090692 -60.4702988 229.45991667 -60.53344727 209.39355469 C-60.53680588 208.71723495 -60.54016449 208.04091522 -60.54362488 207.34410095 C-60.55308522 205.11544925 -60.55507824 202.88687366 -60.55615234 200.65820312 C-60.55937783 199.07053601 -60.56274279 197.48286918 -60.5662384 195.89520264 C-60.57222434 192.55301227 -60.5740798 189.21084769 -60.57348633 185.86865234 C-60.5734064 182.51800987 -60.58012839 179.16750801 -60.59399414 175.81689453 C-60.71678789 145.65399256 -59.64569937 115.65876516 -56.51318359 85.64257812 C-56.42825653 84.81211975 -56.34332947 83.98166138 -56.25582886 83.1260376 C-53.56703407 57.03886206 -50.61648625 30.41214654 -30.38818359 11.51757812 C-26.87336307 8.86497908 -23.27945652 6.5758567 -19.38818359 4.51757812 C-18.76334265 4.18422707 -18.1385017 3.85087601 -17.49472618 3.5074234 C-11.53205203 0.56997607 -6.5913835 -0.0577588 0 0 Z " fill="#EDCD3F" transform="translate(380.38818359375,364.482421875)"/>
<path d="M0 0 C0.74036499 -0.00039276 1.48072998 -0.00078552 2.24353027 -0.00119019 C12.80689804 0.00542423 23.23013657 0.46056239 33.75512695 1.41430664 C42.20439328 2.10465837 50.59553774 2.2798615 59.0703125 2.33203125 C60.85816162 2.34719032 60.85816162 2.34719032 62.68212891 2.36265564 C69.9805639 2.42298056 69.9805639 2.42298056 77.2791748 2.42160034 C93.9757371 2.34772559 107.54555298 2.90233901 120.84765625 14.1484375 C129.62885347 23.26133004 132.69905999 34.28081593 134.3125 46.5 C134.4357666 47.39041992 134.5590332 48.28083984 134.68603516 49.19824219 C135.86412015 57.99121712 136.69444508 66.81721058 137.54467773 75.64672852 C138.32950656 83.45328658 139.41202348 91.163573 140.70483398 98.90039062 C145.28457582 126.35132063 145.91985939 154.02622198 146.125 181.8125 C146.13471832 182.59790161 146.14443665 183.38330322 146.15444946 184.19250488 C146.17801587 186.4125012 146.18038441 188.63146668 146.17578125 190.8515625 C146.17876221 192.10404785 146.18174316 193.3565332 146.18481445 194.64697266 C145.67862031 199.46062998 144.43127577 203.55523443 140.9375 207.078125 C127.26829535 215.82239562 111.84369912 215.34384606 96.13671875 215.3203125 C94.59410576 215.32145919 93.051493 215.32293817 91.50888062 215.32472229 C87.36591699 215.32772907 83.22299427 215.32350105 79.08003616 215.31667709 C76.49125452 215.31248584 73.90247374 215.30953157 71.31369019 215.30679321 C58.8131782 215.2918693 46.31286429 215.24948772 33.8125 215.1875 C32.52109352 215.18111385 32.52109352 215.18111385 31.20359802 215.17459869 C20.60669678 215.12051656 10.01036371 215.04044374 -0.58602905 214.92303467 C-3.58684401 214.88997046 -6.58761138 214.86303805 -9.58853149 214.84161377 C-13.12071637 214.8157789 -16.65246029 214.77548483 -20.18436813 214.72443962 C-22.05865905 214.70041938 -23.93310719 214.68977025 -25.80752563 214.67982483 C-39.0155721 214.45287669 -51.85217249 213.15236851 -61.76953125 203.67578125 C-66.80999777 198.14143617 -67.56594251 191.69634794 -68.25 184.5625 C-68.33233887 183.73999756 -68.41467773 182.91749512 -68.49951172 182.07006836 C-69.76484076 168.82169749 -70.43096408 155.49686948 -70.1875 142.1875 C-69.73761719 142.53941406 -69.28773438 142.89132812 -68.82421875 143.25390625 C-64.89360975 146.27078651 -60.88196249 149.13975722 -56.75 151.875 C-55.90566406 152.43574219 -55.06132813 152.99648438 -54.19140625 153.57421875 C-46.76388616 157.56325099 -39.88092314 158.74555796 -31.5 158.6875 C-30.53610352 158.68177979 -29.57220703 158.67605957 -28.57910156 158.67016602 C-14.19049371 158.3127374 -3.00888064 152.65588961 7.5 142.9375 C21.14631912 128.55093244 24.38781435 111.56211165 24.0546875 92.51171875 C23.50224949 76.81099284 16.75913603 62.83323051 5.69921875 51.81640625 C1.38267042 47.88536833 -2.97979486 44.82069175 -8.1875 42.1875 C-9.04085937 41.75566406 -9.89421875 41.32382812 -10.7734375 40.87890625 C-22.12339796 36.17956732 -37.74458909 36.1062324 -49.3125 40.125 C-55.96276409 43.1748583 -61.5510554 47.59229173 -67.1875 52.1875 C-68.51774158 53.19160911 -69.85053552 54.19235993 -71.1875 55.1875 C-71.275342 50.70845901 -71.32817447 46.22964276 -71.375 41.75 C-71.40013672 40.48994141 -71.42527344 39.22988281 -71.45117188 37.93164062 C-71.52566556 28.42128057 -71.08179161 20.31418346 -64.1875 13.1875 C-57.79580525 7.36340748 -50.68899986 5.20744598 -42.4375 3.3125 C-41.55787598 3.10947266 -40.67825195 2.90644531 -39.77197266 2.69726562 C-26.70647073 -0.04040344 -13.29748394 -0.01539853 0 0 Z " fill="#29A7E0" transform="translate(729.1875,397.8125)"/>
<path d="M0 0 C1.13383511 -0.00258174 1.13383511 -0.00258174 2.29057598 -0.00521564 C4.80669482 -0.00955304 7.32274744 -0.0065979 9.83886719 -0.00341797 C11.62870812 -0.00456132 13.41854887 -0.00603856 15.20838928 -0.00782776 C20.0203392 -0.01084539 24.83225418 -0.00659864 29.64419937 0.00021744 C32.631238 0.00438824 35.61827592 0.00735094 38.60531616 0.01010132 C63.58447147 0.03614146 88.56503575 0.09274783 113.54260254 0.39385986 C116.29363987 0.42695271 119.04462376 0.45388188 121.79577637 0.47528076 C125.59303896 0.5082502 129.38956491 0.56007474 133.18652344 0.61767578 C134.27224136 0.62407578 135.35795929 0.63047577 136.47657776 0.6370697 C148.55732994 0.87145339 161.15307456 4.06163443 170.59277344 11.98095703 C176.69822917 18.43345972 178.784919 25.76563709 178.57316589 34.55262756 C178.53580826 35.42487473 178.49845062 36.29712189 178.45996094 37.19580078 C178.42029961 38.57504982 178.42029961 38.57504982 178.37983704 39.98216248 C178.29286626 42.88612745 178.18344628 45.78872802 178.07324219 48.69189453 C178.0099008 50.67426928 177.9480377 52.65669185 177.88769531 54.63916016 C177.73745398 59.46995907 177.56709118 64.29966745 177.38574219 69.12939453 C175.15009262 66.89374496 174.12935988 64.81957947 172.69824219 62.00439453 C165.85449992 49.43024606 155.1037168 40.81997282 141.70214844 35.78564453 C127.92311483 31.88197228 112.15396451 32.65513546 99.38574219 39.12939453 C84.40587926 47.66812828 73.60669475 61.60531504 69.00683594 78.24658203 C65.68453143 99.01620895 69.1957899 118.63066482 81.33496094 135.90283203 C90.16595469 146.39971305 103.61047829 154.582095 117.38574219 156.12939453 C133.92802817 157.23090228 149.11149661 152.73199522 161.82324219 141.81689453 C165.87702583 137.9370356 169.06577788 133.7040217 172.10839844 129.00048828 C172.52992188 128.38302734 172.95144531 127.76556641 173.38574219 127.12939453 C173.71574219 127.12939453 174.04574219 127.12939453 174.38574219 127.12939453 C174.49568155 138.70215686 174.25718829 150.22782553 173.69604492 161.78759766 C173.57270472 164.39073799 173.46648844 166.99425313 173.36035156 169.59814453 C172.07732228 198.01353876 172.07732228 198.01353876 161.55761719 207.83642578 C144.10620136 220.99159611 120.71213696 217.15678158 100.29199219 216.54345703 C98.17191735 216.48093137 96.05184081 216.41846314 93.9317627 216.35604858 C89.50084158 216.22493664 85.0699855 216.09182721 80.63916016 215.95751953 C76.16562246 215.82218793 71.69200467 215.69037734 67.21826172 215.56201172 C24.64123776 214.33885018 24.64123776 214.33885018 6.87696838 213.32957077 C4.94206529 213.22027856 3.00661941 213.12072641 1.07116699 213.02163696 C-12.40521316 212.17496637 -22.87294032 208.0966601 -33.61425781 199.81689453 C-43.51456385 186.5133583 -41.9509445 167.74440979 -41.86425781 152.00439453 C-41.86148834 151.01863434 -41.85871887 150.03287415 -41.85586548 149.01724243 C-41.79367428 129.99840813 -40.97189903 111.09521632 -39.61425781 92.12939453 C-39.48980453 90.36133547 -39.36545976 88.59326876 -39.24121094 86.82519531 C-38.61861163 78.01329461 -37.97543559 69.20287066 -37.29785156 60.39501953 C-37.21667084 59.3161422 -37.21667084 59.3161422 -37.1338501 58.21546936 C-36.86389579 54.76274766 -36.52870908 51.3341178 -36.08251953 47.89941406 C-35.73156754 45.07386632 -35.48450786 42.38150175 -35.43847656 39.54345703 C-35.10317513 26.90115771 -33.9399973 17.65739512 -24.89941406 8.10986328 C-17.48168337 1.68116335 -9.56864282 -0.02760277 0 0 Z " fill="#2AA7E0" transform="translate(389.6142578125,396.87060546875)"/>
<path d="M0 0 C0.85529297 -0.00773437 1.71058594 -0.01546875 2.59179688 -0.0234375 C8.09583442 -0.0066441 12.78121803 0.69601938 18.0625 2.25 C18.89136719 2.4871875 19.72023438 2.724375 20.57421875 2.96875 C34.2113442 7.86538391 45.99592937 18.9744681 52.27075195 31.96875 C53.77612899 36.3061669 53.51228202 40.64764953 53.375 45.1875 C53.35518066 46.24710937 53.33536133 47.30671875 53.31494141 48.3984375 C53.26780694 50.73309795 53.21170617 53.06758982 53.14794922 55.40185547 C53.07176955 58.83255255 53.04483853 62.257659 53.04100037 65.68885803 C53.03321581 68.64769888 52.99889336 71.60590764 52.95980835 74.56448364 C52.94508049 76.00735053 52.93954426 77.45034413 52.9437561 78.89328003 C52.95568545 87.9083258 52.18020866 94.28833778 46.0625 101.25 C45.34707031 102.18070313 44.63164063 103.11140625 43.89453125 104.0703125 C33.8358547 115.5492664 20.17883117 123.42190542 4.8046875 124.47265625 C-10.96397485 124.87120486 -24.24873399 120.26481484 -36.3125 109.9375 C-48.33334769 98.40293255 -55.57827213 83.36867476 -56.2734375 66.69921875 C-56.44174634 55.9163555 -56.44256193 46.22850166 -51.9375 36.25 C-51.51339844 35.30253906 -51.08929688 34.35507812 -50.65234375 33.37890625 C-47.14802178 26.34097829 -42.46893234 20.79092021 -36.9375 15.25 C-36.29941406 14.6003125 -35.66132813 13.950625 -35.00390625 13.28125 C-25.25040189 4.03468454 -13.239824 -0.11918821 0 0 Z " fill="#FCFCFD" transform="translate(512.9375,429.75)"/>
<path d="M0 0 C4.88509954 3.56901438 9.29404097 7.60349501 13.66113281 11.77905273 C14.97929253 13.02474521 16.29829295 14.26954871 17.61816406 15.51342773 C18.23643066 16.09672852 18.85469727 16.6800293 19.49169922 17.28100586 C21.97503377 19.60236802 24.53386916 21.82810307 27.11035156 24.04467773 C31.87478081 28.21922526 36.50344394 32.54871616 41.16113281 36.84155273 C44.16795081 35.50155776 46.1587589 34.04309982 48.41113281 31.65405273 C51.43154909 28.54423724 54.57851471 25.68656718 57.86035156 22.85717773 C60.66887173 20.39674241 63.41543392 17.87146616 66.16113281 15.34155273 C85.61605523 -2.5338912 85.61605523 -2.5338912 96.16113281 -2.15844727 C102.03048073 -1.17330936 105.36066878 1.56086718 109.03222656 6.12280273 C111.95939237 10.57938736 111.7201039 15.72016897 111.16113281 20.84155273 C110.19986763 23.76341819 109.06043532 26.40866692 107.16113281 28.84155273 C106.17113281 29.17155273 105.18113281 29.50155273 104.16113281 29.84155273 C104.16113281 30.50155273 104.16113281 31.16155273 104.16113281 31.84155273 C102.48144531 33.56811523 102.48144531 33.56811523 100.28613281 35.46655273 C99.56683594 36.09819336 98.84753906 36.72983398 98.10644531 37.38061523 C96.16113281 38.84155273 96.16113281 38.84155273 94.16113281 38.84155273 C94.16113281 39.50155273 94.16113281 40.16155273 94.16113281 40.84155273 C92.48144531 42.56811523 92.48144531 42.56811523 90.28613281 44.46655273 C89.56683594 45.09819336 88.84753906 45.72983398 88.10644531 46.38061523 C86.16113281 47.84155273 86.16113281 47.84155273 84.16113281 47.84155273 C84.16113281 48.50155273 84.16113281 49.16155273 84.16113281 49.84155273 C82.48144531 51.56811523 82.48144531 51.56811523 80.28613281 53.46655273 C79.56683594 54.09819336 78.84753906 54.72983398 78.10644531 55.38061523 C76.16113281 56.84155273 76.16113281 56.84155273 74.16113281 56.84155273 C74.16113281 57.50155273 74.16113281 58.16155273 74.16113281 58.84155273 C72.48144531 60.56811523 72.48144531 60.56811523 70.28613281 62.46655273 C69.56683594 63.09819336 68.84753906 63.72983398 68.10644531 64.38061523 C66.16113281 65.84155273 66.16113281 65.84155273 64.16113281 65.84155273 C64.16113281 66.50155273 64.16113281 67.16155273 64.16113281 67.84155273 C62.48144531 69.56811523 62.48144531 69.56811523 60.28613281 71.46655273 C59.56683594 72.09819336 58.84753906 72.72983398 58.10644531 73.38061523 C56.16113281 74.84155273 56.16113281 74.84155273 54.16113281 74.84155273 C54.16113281 75.50155273 54.16113281 76.16155273 54.16113281 76.84155273 C47.80343394 79.9341286 42.13395548 82.2152796 35.16113281 79.84155273 C30.07662694 76.87441073 26.01016985 73.07274969 21.78613281 69.02905273 C20.44844335 67.76382819 19.10991176 66.49949338 17.77050781 65.23608398 C17.13951172 64.64005371 16.50851562 64.04402344 15.85839844 63.42993164 C13.37660448 61.10735519 10.81473365 58.8868265 8.23925781 56.66967773 C5.37598728 54.1508608 2.58334818 51.55829116 -0.21386719 48.96655273 C-9.60912913 40.09830826 -9.60912913 40.09830826 -19.47949219 31.78295898 C-23.55947949 28.42575089 -26.43699508 24.18170284 -27.07714844 18.86108398 C-27.27528337 12.96917689 -26.22862165 8.71087429 -22.83886719 3.84155273 C-16.93063253 -2.06668192 -7.49656094 -4.72267415 0 0 Z " fill="#000000" transform="translate(569.8388671875,664.158447265625)"/>
<path d="M0 0 C12.72326809 9.7087683 21.73496159 22.53685543 25.20703125 38.3359375 C26.68699978 50.20334874 27.03839382 63.45340664 22.625 74.6875 C22.35816406 75.50734375 22.09132813 76.3271875 21.81640625 77.171875 C16.39960236 92.67597146 4.45910159 103.80697421 -9.90625 110.9453125 C-21.33336736 115.64093831 -36.84907432 115.79760747 -48.5 111.75 C-55.12375103 108.7083038 -60.8347993 104.38347964 -66.375 99.6875 C-66.91471436 99.2953833 -67.45442871 98.9032666 -68.01049805 98.49926758 C-70.1492012 95.65952593 -69.71082936 93.11356401 -69.66796875 89.61328125 C-69.66372391 88.9294487 -69.65947906 88.24561615 -69.65510559 87.5410614 C-69.63833353 85.36030439 -69.60068657 83.18047691 -69.5625 81 C-69.54745114 79.52019565 -69.53376308 78.0403768 -69.52148438 76.56054688 C-69.48843569 72.93589664 -69.43666446 69.31178906 -69.375 65.6875 C-67.41757645 67.55171291 -66.1235451 69.09727835 -64.6875 71.4375 C-59.64528077 78.52386216 -52.63222093 84.09082983 -44.109375 86.265625 C-31.77548885 88.16856743 -21.24447833 87.09776636 -10.8125 79.92578125 C-4.38116772 74.71090162 0.10849297 67.92213318 1.625 59.6875 C2.35540421 48.40837349 1.58474191 39.47926949 -5.65234375 30.53515625 C-12.62055566 23.06131445 -20.99551363 18.63631717 -31.27734375 18.265625 C-42.3687708 18.18300729 -51.07370529 20.04816198 -59.375 27.6875 C-63.57591531 31.91758833 -66.58785223 36.43479844 -69.375 41.6875 C-69.705 41.6875 -70.035 41.6875 -70.375 41.6875 C-70.62439948 37.29538326 -70.80460836 32.90712577 -70.92431641 28.51000977 C-70.974257 27.01871914 -71.04224616 25.52790954 -71.12939453 24.03833008 C-71.83252474 11.700463 -71.83252474 11.700463 -68.24291992 6.74291992 C-65.72483857 4.4577247 -63.22117347 2.541532 -60.375 0.6875 C-59.30088867 -0.0864209 -59.30088867 -0.0864209 -58.20507812 -0.87597656 C-56.32575315 -2.20396366 -54.42248808 -3.26369255 -52.375 -4.3125 C-51.65957031 -4.704375 -50.94414063 -5.09625 -50.20703125 -5.5 C-34.36043057 -12.75567726 -14.0996081 -9.28614672 0 0 Z " fill="#FCFCFD" transform="translate(728.375,443.3125)"/>
<path d="M0 0 C7.02214652 5.63190337 12.2719365 12.11167147 13.75 21.1875 C14.63804662 32.97959445 13.38156223 42.20639155 5.75 51.5 C-0.25399201 57.76330064 -8.88557782 62.87087122 -17.69140625 63.390625 C-29.61764602 63.6201993 -39.13161784 62.60592336 -48.25 54.1875 C-56.32192717 46.06694676 -58.77794307 39.79672839 -58.75 28.375 C-58.77835938 27.33279297 -58.80671875 26.29058594 -58.8359375 25.21679688 C-58.85744109 16.65299356 -56.51442041 11.43192239 -51.36328125 4.734375 C-37.37156621 -9.22698925 -16.22389501 -11.37502413 0 0 Z " fill="#000000" transform="translate(717.25,467.8125)"/>
<path d="M0 0 C7.77091769 4.94840508 13.89352387 11.9184936 16.1015625 20.9609375 C17.97365816 32.605716 16.2330517 42.74907579 9.40234375 52.421875 C1.99513759 61.21301777 -7.92293991 64.56798098 -19.0703125 65.92578125 C-28.25984153 66.37724781 -36.63342059 63.0109737 -43.6953125 57.234375 C-46.62568814 54.55517441 -49.18021245 51.85813412 -51.47265625 48.609375 C-51.88773437 48.02285156 -52.3028125 47.43632812 -52.73046875 46.83203125 C-57.07671275 39.15771928 -56.64001297 29.11835429 -55.47265625 20.609375 C-52.74713347 11.08547275 -46.69943073 4.39761303 -38.328125 -0.6953125 C-36.40550868 -1.7025723 -34.48153304 -2.57155506 -32.47265625 -3.390625 C-31.54453125 -3.803125 -30.61640625 -4.215625 -29.66015625 -4.640625 C-19.16709185 -7.10958133 -9.3743316 -4.91105199 0 0 Z " fill="#010101" transform="translate(545.47265625,464.390625)"/>
</svg>
