<?xml version="1.0" encoding="UTF-8"?>
<svg version="1.1" xmlns="http://www.w3.org/2000/svg" width="589" height="381">
<path d="M0 0 C31.52526135 -0.47796727 62.91293771 0.54070281 94.39775085 2.01004028 C95.34652729 2.05373623 96.29530373 2.09743217 97.27283096 2.14245224 C102.79964685 2.39714732 108.32594662 2.66029181 113.8517437 2.93624306 C115.54102562 3.02020479 117.23039193 3.10249001 118.91984749 3.18288231 C160.52051173 5.18187214 160.52051173 5.18187214 174.4797821 19.93972778 C180.95647808 27.84293654 185.02457645 38.05756583 184.6516571 48.20925903 C184.62804611 48.89309158 184.60443512 49.57692413 184.58010864 50.28147888 C184.50363635 52.46205254 184.41954204 54.64225623 184.33525085 56.82254028 C184.28201366 58.30233999 184.22927337 59.78215766 184.17704773 61.26199341 C184.04897537 64.88664437 183.91059897 68.51069515 183.77275085 72.13504028 C192.35275085 72.13504028 200.93275085 72.13504028 209.77275085 72.13504028 C209.69153992 69.88046997 209.61032898 67.62589966 209.5266571 65.30300903 C209.47182784 63.08213165 209.42946244 60.86133396 209.38822937 58.64016724 C209.3533525 57.11442482 209.30582954 55.58891058 209.24467468 54.06399536 C208.82967621 43.43794201 209.6939466 36.63463308 216.77275085 28.13504028 C217.22867615 27.53425659 217.68460144 26.9334729 218.15434265 26.31448364 C228.39037051 13.16444504 243.49648568 3.79661629 260.07255554 1.54104614 C279.46081495 -0.58634073 299.15027862 -0.02081611 318.62626648 0.00466919 C322.999282 0.01033936 327.37223636 0.00698635 331.74524975 0.00124454 C384.66120055 -0.0582955 384.66120055 -0.0582955 408.21025085 2.94754028 C408.91891296 3.03463257 409.62757507 3.12172485 410.35771179 3.2114563 C453.01028395 8.45975919 453.01028395 8.45975919 460.77275085 18.13504028 C477.35128401 43.83389759 478.79800395 83.61207353 483.58525085 113.07254028 C483.87740479 114.85389374 483.87740479 114.85389374 484.17546082 116.67123413 C487.2596123 135.55048399 489.75106461 154.37354458 490.39775085 173.51004028 C490.43497253 174.52130981 490.47219421 175.53257935 490.51054382 176.57449341 C492.89687339 245.32717754 492.89687339 245.32717754 475.77275085 264.35769653 C462.99719237 276.56291758 446.88055238 277.38581742 430.07743835 278.24832153 C429.27814785 278.29031488 428.47885735 278.33230824 427.65534592 278.37557411 C398.88854699 279.82196907 370.02935356 279.39733965 341.23526931 279.33563721 C334.6709557 279.32223551 328.10667538 279.31993875 321.54234993 279.32058638 C313.56947616 279.32126596 305.59662184 279.31432122 297.62375402 279.30513978 C295.36954642 279.30303378 293.11534206 279.30230223 290.86113358 279.30190086 C241.94217735 279.28454911 241.94217735 279.28454911 225.77275085 264.13504028 C202.40023092 239.37449713 207.67973893 200.76095744 207.64775085 169.44754028 C207.64516266 168.29382935 207.64257446 167.14011841 207.63990784 165.95144653 C207.61055392 149.31736561 208.04842383 132.7543215 208.77275085 116.13504028 C199.86275085 116.13504028 190.95275085 116.13504028 181.77275085 116.13504028 C181.62579773 119.95388794 181.62579773 119.95388794 181.47587585 123.84988403 C180.48467761 148.95528548 179.25266904 174.04611939 177.90310669 199.13444901 C177.77355151 201.55756525 177.64618324 203.98078713 177.51945496 206.40405273 C177.31598967 210.28864455 177.10646574 214.17286729 176.89260101 218.05690002 C176.81452203 219.48963862 176.73825409 220.92247742 176.66407013 222.35542297 C174.75347997 259.09250533 174.75347997 259.09250533 163.35087585 270.96707153 C156.04263391 277.11263862 147.81945155 279.21179255 138.4954071 279.38113403 C136.9655402 279.41309884 135.43567368 279.44508226 133.9058075 279.4770813 C133.08629608 279.49247955 132.26678467 279.50787781 131.42243958 279.52374268 C119.09511323 279.75625143 106.77613145 280.05297187 94.46025085 280.64285278 C65.95903888 281.97967567 37.50545867 282.35596241 8.97649765 282.3813591 C5.98108967 282.38501485 2.98570955 282.39232274 -0.00968933 282.40045166 C-4.7906205 282.41229473 -9.57142302 282.41244299 -14.35235977 282.40374184 C-16.12379 282.40172852 -17.89522711 282.40280497 -19.66665268 282.4073391 C-40.66047482 282.45157034 -60.32509479 281.49956407 -76.41474915 266.38504028 C-96.60485441 245.23540527 -98.584913 215.74016355 -98.41474915 188.26004028 C-98.40586583 185.90432805 -98.39715946 183.54861514 -98.3886261 181.19290161 C-97.76230717 44.38391106 -97.76230717 44.38391106 -71.22724915 15.13504028 C-59.74866366 3.82863358 -47.26606993 0.21853749 -31.53974915 0.26004028 C-29.83668659 0.24486236 -28.13364153 0.22761241 -26.43061829 0.20852661 C-22.69180314 0.17270921 -18.95353417 0.1572394 -15.21455383 0.15408325 C-10.14198242 0.14606264 -5.07187872 0.08034317 0 0 Z M-54.97724915 44.69754028 C-63.11251184 54.90907541 -63.13576688 67.96056424 -63.8952179 80.41629028 C-64.02029335 82.27945808 -64.14672931 84.14253498 -64.27444458 86.00552368 C-64.6054072 90.88935878 -64.91716369 95.77423613 -65.22499084 100.65957642 C-65.53824545 105.57149735 -65.87129853 110.48207207 -66.20185852 115.39285278 C-67.14714063 129.55308582 -68.07517439 143.7127878 -68.7960968 157.88650513 C-68.83751895 158.69227745 -68.8789411 159.49804977 -68.92161846 160.32823944 C-69.2985319 167.97224304 -69.42001838 175.60623134 -69.41474915 183.26004028 C-69.41447723 183.94205505 -69.41420532 184.62406982 -69.41392517 185.32675171 C-69.83784644 210.54531002 -69.83784644 210.54531002 -60.22724915 233.13504028 C-57.29461874 235.43578846 -57.29461874 235.43578846 -53.97724915 237.32254028 C-52.8995929 237.97609497 -51.82193665 238.62964966 -50.71162415 239.30300903 C-42.99249838 243.36160767 -36.46111192 244.70081739 -27.83662415 245.25613403 C-26.74509033 245.33447983 -25.65355652 245.41282562 -24.52894592 245.49354553 C-12.52273136 246.31936328 -0.5035937 246.78683353 11.52275085 247.19754028 C13.85487094 247.28050148 16.18698348 247.36367529 18.51908875 247.447052 C24.23575977 247.64920946 29.95267052 247.84301158 35.66978455 248.03219604 C38.51063718 248.12635283 41.35141595 248.22246689 44.19218445 248.31912231 C53.9496924 248.64726692 63.70682892 248.91330278 73.46824646 249.09213257 C75.06190375 249.12180498 76.65553097 249.15312103 78.24913025 249.1857605 C83.42333775 249.29135154 88.59697852 249.37184826 93.77204895 249.4201355 C95.40631431 249.43804515 97.0405243 249.46254397 98.67457581 249.49447632 C110.91026831 249.72233026 123.23998999 249.11099882 133.06181335 240.82254028 C142.63055947 231.38487288 144.16434177 220.9838422 144.89775085 207.94754028 C145.01449158 206.09189453 145.01449158 206.09189453 145.1335907 204.19876099 C145.99015461 189.85715152 146.41117944 175.49648052 146.77275085 161.13504028 C144.10476826 163.75547197 141.86044159 166.32748006 139.71025085 169.38504028 C132.02767813 179.34453755 119.73069763 186.5483874 107.3391571 188.85379028 C91.28361735 190.61330149 76.10599394 187.98475713 63.0422821 178.06082153 C48.44029694 165.40282229 41.12874865 150.10568102 39.49150085 130.82254028 C38.97482073 113.25541614 44.33202177 96.61261044 56.14775085 83.51004028 C60.77614254 78.64710713 65.75328556 75.08094499 71.77275085 72.13504028 C72.51138367 71.74832153 73.25001648 71.36160278 74.0110321 70.96316528 C87.37653656 64.41098193 101.77819706 65.03907332 115.77275085 69.13504028 C128.95394092 74.13811972 140.29073409 84.03682666 146.71025085 96.69754028 C147.06087585 97.50191528 147.41150085 98.30629028 147.77275085 99.13504028 C148.10275085 99.13504028 148.43275085 99.13504028 148.77275085 99.13504028 C149.06121842 95.15173289 149.34589734 91.1681736 149.62724304 87.18435669 C149.77014899 85.17168467 149.91595434 83.1592192 150.06181335 81.14675903 C151.7713176 63.46017109 151.7713176 63.46017109 144.58525085 47.82254028 C135.18689342 38.02929388 123.76671776 35.27430723 110.59379578 34.59231567 C109.80838756 34.55049447 109.02297934 34.50867327 108.21377087 34.46558475 C99.35744131 34.02304673 90.50170547 33.90735767 81.6360321 33.81863403 C79.83747521 33.79775331 78.03892178 33.7765715 76.2403717 33.75511169 C71.49592393 33.69978094 66.75143722 33.64983748 62.00690842 33.602005 C59.07090876 33.57239564 56.13491845 33.54197067 53.19892883 33.51138306 C42.62232173 33.40188284 32.0456622 33.30035395 21.46891117 33.20581245 C16.07240143 33.15724087 10.67598632 33.10323932 5.27958679 33.04373169 C-0.36357527 32.98239173 -6.0065987 32.93480382 -11.65000916 32.90386963 C-13.55155907 32.89147926 -15.45308413 32.87409829 -17.35453796 32.85131836 C-31.93487132 32.68390274 -44.29989893 33.7708252 -54.97724915 44.69754028 Z M246.8938446 48.98269653 C240.07544162 57.24692955 240.49357405 66.92106319 240.64775085 77.19754028 C240.65677429 78.34931763 240.66579773 79.50109497 240.6750946 80.68777466 C240.69846371 83.50375222 240.73122521 86.31928187 240.77275085 89.13504028 C241.22730652 88.73817017 241.68186218 88.34130005 242.15019226 87.93240356 C254.85398119 76.92603138 267.5989954 70.51713256 284.70243835 70.88894653 C299.09208067 72.04231481 312.14437192 78.38598118 321.77275085 89.13504028 C332.53740313 102.90898034 338.06918731 119.54054557 336.77275085 137.13504028 C334.32202579 154.8667569 328.44037292 170.71389817 314.21025085 182.42410278 C301.67085309 191.22579545 287.72898056 194.76143918 272.58525085 192.70144653 C260.91985715 190.44408068 251.52022 184.99802507 242.77275085 177.13504028 C242.55109234 188.73516923 242.75566901 200.24663164 243.58525085 211.82254028 C243.65534363 212.89552368 243.7254364 213.96850708 243.7976532 215.07400513 C244.56996452 224.97223061 245.79622775 233.58910648 253.42900085 240.44754028 C265.56101402 249.18258976 283.64170689 248.43687966 297.95292664 248.40969849 C299.39068359 248.41406243 300.82843824 248.41925105 302.26618958 248.42518616 C306.1173259 248.43840113 309.96836309 248.43917514 313.81951761 248.43662286 C317.054906 248.43554195 320.29027522 248.44046431 323.52565944 248.44522828 C331.16484168 248.45626104 338.8039747 248.45679506 346.44316101 248.45071411 C354.28447214 248.44466779 362.12560413 248.45701638 369.96688473 248.47828418 C376.74105462 248.49597174 383.51516783 248.50189066 390.28935993 248.49864644 C394.31714896 248.49684616 398.3448099 248.49934349 402.37257767 248.51336098 C406.15998675 248.52605368 409.94711832 248.52388885 413.73452377 248.51095009 C415.76180007 248.50750686 417.78908533 248.51867466 419.81632996 248.53051758 C431.16815802 248.46637697 443.75706689 247.81086189 452.77275085 240.13504028 C458.85987261 233.89183848 457.96611458 226.67375777 457.96025085 218.44754028 C457.95944519 217.25088745 457.95863953 216.05423462 457.95780945 214.82131958 C457.88466845 203.35180739 457.42770709 191.90401821 456.89775085 180.44754028 C456.85854523 179.56474396 456.8193396 178.68194763 456.77894592 177.7723999 C456.0287166 161.17885439 454.0714396 144.8950294 451.71388245 128.46463013 C450.23296222 118.13721653 448.80412007 107.81499222 447.6985321 97.43972778 C447.61387695 96.65397369 447.5292218 95.8682196 447.44200134 95.05865479 C447.04034343 91.30979896 446.65425509 87.56034226 446.29277039 83.80740356 C444.77064543 68.81629627 441.02025324 55.58807865 429.04618835 45.70144653 C419.44723463 39.08773443 409.47242969 36.8520077 398.0579071 36.79129028 C397.02235687 36.77734726 395.98680664 36.76340424 394.9198761 36.7490387 C392.70579084 36.71930675 390.49165194 36.69336868 388.27748108 36.67089844 C372.31112864 36.50457489 356.38708078 36.24065039 340.46025085 35.07254028 C290.9091222 30.37701032 290.9091222 30.37701032 246.8938446 48.98269653 Z " fill="#EECD3E" transform="translate(98.22724914550781,-0.135040283203125)"/>
<path d="M0 0 C17.25671182 15.09636931 17.25671182 15.09636931 18.61132812 25.44116211 C18.71025684 28.41349636 18.67540973 31.35533796 18.58984375 34.328125 C18.57074951 35.43470459 18.55165527 36.54128418 18.53198242 37.68139648 C18.48613011 40.10256528 18.43077479 42.523568 18.3671875 44.94433594 C18.28789974 48.4269646 18.24918997 51.9058538 18.23005676 55.38908386 C18.20983672 58.35051911 18.16707699 61.31137813 18.11972046 64.27249146 C18.09999892 65.7119221 18.08766063 67.15147523 18.0831604 68.59103394 C18.02810732 80.49795577 15.44598964 88.11457471 7.34765625 96.9140625 C-5.37623324 109.06177586 -19.57814926 114.43143749 -36.94921875 114.13671875 C-52.07938921 113.1499685 -64.18645105 106.54053025 -74.72265625 95.890625 C-75.55023438 95.11332031 -75.55023438 95.11332031 -76.39453125 94.3203125 C-87.2601855 83.16257077 -91.61901659 66.46777443 -92.09765625 51.390625 C-91.52010919 33.19789256 -85.43185684 17.23110703 -72.4453125 4.37890625 C-52.42989711 -13.91351786 -21.99997772 -17.04445907 0 0 Z " fill="#FDFDFD" transform="translate(228.72265625,76.109375)"/>
<path d="M0 0 C1.00546875 -0.03738281 2.0109375 -0.07476562 3.046875 -0.11328125 C10.76583034 0.91277501 15.83930397 6.42121042 21.1875 11.625 C22.52864754 12.91411465 23.8710943 14.20187901 25.21484375 15.48828125 C25.87983887 16.12515869 26.54483398 16.76203613 27.22998047 17.41821289 C29.86431103 19.88857437 32.58153373 22.25398736 35.31079102 24.6184082 C38.34556259 27.26958282 41.29776462 30.00765548 44.25 32.75 C44.83394531 33.29076172 45.41789062 33.83152344 46.01953125 34.38867188 C47.43059237 35.69563832 48.84043248 37.00392284 50.25 38.3125 C55.27432445 35.69790009 59.01836044 31.95065675 63.0625 28.0625 C67.75835831 23.57784297 72.49610089 19.18102724 77.40405273 14.92871094 C79.04081321 13.49565257 80.64169043 12.03678064 82.2265625 10.546875 C83.10054688 9.72703125 83.97453125 8.9071875 84.875 8.0625 C85.75414062 7.23234375 86.63328125 6.4021875 87.5390625 5.546875 C93.61532619 0.53877294 98.49053739 -0.23160771 106.18359375 -0.0390625 C111.49721472 0.57014245 113.99711131 2.95520392 117.5 6.75 C121.06148824 11.96503636 122.37245389 17.04388042 121.25 23.3125 C118.9583679 29.53299705 115.43556629 33.57236768 110.5 37.875 C109.8723877 38.43944824 109.24477539 39.00389648 108.59814453 39.58544922 C106.8262657 41.1739512 105.0414717 42.74616549 103.25 44.3125 C102.49976563 44.97378906 101.74953125 45.63507813 100.9765625 46.31640625 C99.75646543 47.3846347 98.53258185 48.448556 97.3046875 49.5078125 C94.58075297 51.90031774 91.91656731 54.35655942 89.25 56.8125 C85.34416493 60.40905769 81.4046505 63.95535354 77.3828125 67.421875 C75.66063019 68.94849815 73.97820534 70.4991742 72.3046875 72.078125 C71.78003906 72.56990234 71.25539063 73.06167969 70.71484375 73.56835938 C69.6833047 74.53780332 68.65691682 75.51276899 67.63671875 76.49414062 C62.63769389 81.17821352 58.23213048 83.74090719 51.3125 83.75 C50.33410156 83.76933594 49.35570312 83.78867187 48.34765625 83.80859375 C40.93264728 82.62107025 35.99989514 77.53242789 30.8125 72.5 C29.48390133 71.23480658 28.1544841 69.97047214 26.82421875 68.70703125 C26.19950684 68.11100098 25.57479492 67.5149707 24.93115234 66.90087891 C23.03774964 65.11196256 21.10059511 63.38507959 19.125 61.6875 C15.63416571 58.682347 12.2532974 55.56770671 8.875 52.4375 C-1.22757626 43.04730419 -1.22757626 43.04730419 -11.6875 34.0625 C-16.9042183 29.61908347 -18.50673944 25.23162666 -19.0625 18.5625 C-18.97162438 13.14025483 -16.98285406 8.66778209 -13.25390625 4.734375 C-8.94822343 0.99777245 -5.57269226 0.13436695 0 0 Z " fill="#000000" transform="translate(241.75,297.6875)"/>
<path d="M0 0 C13.24749378 12.80782227 20.1493158 29.54443897 20.5625 48 C20.34009407 66.01487996 14.015578 81.85996357 1.92578125 95.1171875 C-8.35991819 104.95568262 -21.39258906 110.42614604 -35.625 110.875 C-47.36976405 110.49268346 -58.00387252 107.24630028 -67.6875 100.5 C-68.75073486 99.77756104 -68.75073486 99.77756104 -69.83544922 99.04052734 C-73.61040573 95.99868559 -75.45441445 93.80161057 -76.32348633 88.94848633 C-76.5713732 84.78943808 -76.38748385 80.65721142 -76.1875 76.5 C-76.14730874 75.04306694 -76.11081786 73.58602685 -76.078125 72.12890625 C-75.99059638 68.58368842 -75.85292022 65.04253774 -75.6875 61.5 C-73.73007645 63.36421291 -72.4360451 64.90977835 -71 67.25 C-65.95778077 74.33636216 -58.94472093 79.90332983 -50.421875 82.078125 C-38.08798885 83.98106743 -27.55697833 82.91026636 -17.125 75.73828125 C-10.69366772 70.52340162 -6.20400703 63.73463318 -4.6875 55.5 C-3.95709579 44.22087349 -4.72775809 35.29176949 -11.96484375 26.34765625 C-18.93305566 18.87381445 -27.30801363 14.44881717 -37.58984375 14.078125 C-48.6812708 13.99550729 -57.38620529 15.86066198 -65.6875 23.5 C-69.88841531 27.73008833 -72.90035223 32.24729844 -75.6875 37.5 C-76.0175 37.5 -76.3475 37.5 -76.6875 37.5 C-76.91196328 33.10781002 -77.07416898 28.71875004 -77.18188477 24.32250977 C-77.22682712 22.83135782 -77.28801176 21.34059536 -77.36645508 19.85083008 C-77.99294314 7.63636031 -77.99294314 7.63636031 -74.9230957 2.61254883 C-70.55465621 -1.93968677 -65.46587925 -5.31381772 -59.75 -7.9375 C-59.05616211 -8.2675 -58.36232422 -8.5975 -57.64746094 -8.9375 C-38.174783 -17.89837834 -16.21451061 -13.75297627 0 0 Z " fill="#FDFDFD" transform="translate(415.6875,83.5)"/>
<path d="M0 0 C7.02214652 5.63190337 12.2719365 12.11167147 13.75 21.1875 C14.63804662 32.97959445 13.38156223 42.20639155 5.75 51.5 C-0.25399201 57.76330064 -8.88557782 62.87087122 -17.69140625 63.390625 C-29.61764602 63.6201993 -39.13161784 62.60592336 -48.25 54.1875 C-56.32192717 46.06694676 -58.77794307 39.79672839 -58.75 28.375 C-58.77835937 27.33279297 -58.80671875 26.29058594 -58.8359375 25.21679688 C-58.85744109 16.65299356 -56.51442041 11.43192239 -51.36328125 4.734375 C-37.37156621 -9.22698925 -16.22389501 -11.37502413 0 0 Z " fill="#000000" transform="translate(398.25,103.8125)"/>
<path d="M0 0 C7.36757537 6.0416424 12.47132298 12.49134843 14 22 C14.96483833 33.92603444 12.84867406 43.72272547 5.03515625 52.99609375 C-2.82165981 60.73226772 -13.21418812 63.90454015 -24.0625 64.4375 C-34.22087884 64.06247157 -42.52926514 59.28033806 -49.68359375 52.375 C-56.9196861 44.57950899 -58.60611039 37.07138549 -58.46826172 26.66699219 C-58.08074727 16.91623587 -55.08837255 10.16166914 -48.34765625 3.04296875 C-44.31468414 -0.46658935 -39.84040122 -2.78960006 -35 -5 C-34.01 -5.45375 -33.02 -5.9075 -32 -6.375 C-20.5575604 -8.75884158 -9.75617874 -6.21258986 0 0 Z " fill="#010101" transform="translate(229,102)"/>
</svg>
