<?xml version="1.0" encoding="UTF-8"?>
<svg version="1.1" xmlns="http://www.w3.org/2000/svg" width="600" height="855">
<path d="M0 0 C2.07309679 0.01611595 4.14424558 0.0000116 6.21728516 -0.01904297 C18.90224749 -0.03969445 31.34715285 1.83406 43.38525391 5.95361328 C44.11824707 6.20264404 44.85124023 6.4516748 45.60644531 6.70825195 C78.8047326 18.56277482 104.18414674 43.3681356 119.32275391 74.76611328 C124.81542943 86.6494409 128.23335414 99.37762689 129.57275391 112.39111328 C129.77384766 114.27636719 129.77384766 114.27636719 129.97900391 116.19970703 C133.00637382 149.54488351 122.94242608 181.87354845 102.26025391 208.01611328 C80.1292187 234.08410294 50.53036323 251.75815469 16.05761719 255.19628906 C-8.45477831 257.11816876 -32.37449108 253.54496336 -54.42724609 242.39111328 C-55.46365234 241.87806641 -56.50005859 241.36501953 -57.56787109 240.83642578 C-86.480185 225.96919327 -108.20726741 199.84953988 -119.11474609 169.32861328 C-129.48968427 135.97078225 -127.89554605 100.86107303 -112.12890625 69.43066406 C-106.02907209 57.84019478 -98.41156573 47.90392231 -89.42724609 38.39111328 C-88.32316406 37.17294922 -88.32316406 37.17294922 -87.19677734 35.93017578 C-74.02429646 21.94130999 -56.81569239 12.6427442 -38.92724609 6.07861328 C-38.31244385 5.84811279 -37.6976416 5.6176123 -37.06420898 5.38012695 C-25.04857441 1.21586923 -12.63668145 -0.11615144 0 0 Z " fill="#EFCD3E" transform="translate(460.42724609375,-0.39111328125)"/>
<path d="M0 0 C25.50013438 22.69680835 39.7599882 54.99322086 41.8125 88.8125 C42.7273337 109.46640211 39.06560776 130.32534205 30 149 C29.71785645 149.58201172 29.43571289 150.16402344 29.14501953 150.76367188 C22.61813581 164.04548291 14.13921795 175.21882039 4 186 C3.19369141 186.90298828 3.19369141 186.90298828 2.37109375 187.82421875 C-15.43650802 206.97073794 -45.67445683 221.0401369 -71.74780273 222.16113281 C-73.14299398 222.18108339 -74.5382849 222.19476636 -75.93359375 222.203125 C-77.06608299 222.21167511 -77.06608299 222.21167511 -78.22145081 222.22039795 C-79.81746032 222.22980902 -81.41348892 222.23636638 -83.00952148 222.24023438 C-85.39929284 222.24984633 -87.78816778 222.28086648 -90.17773438 222.3125 C-119.45957228 222.5162919 -146.63782763 211.68979216 -169 193 C-169.87269531 192.32066406 -170.74539062 191.64132812 -171.64453125 190.94140625 C-173.78629843 189.17613546 -175.52619549 187.42681079 -177.3125 185.3125 C-179.12653123 183.17397611 -180.93466021 181.0681984 -182.875 179.04296875 C-205.67667634 155.00007213 -215.00943803 121.25018604 -214.28515625 88.84375 C-213.26943945 62.76660237 -203.80902468 37.69288409 -188 17 C-187.319375 16.08605469 -186.63875 15.17210937 -185.9375 14.23046875 C-182.33296052 9.53471126 -178.59304089 5.46354622 -174.02734375 1.6953125 C-171.98194657 0.0280405 -171.98194657 0.0280405 -170.12890625 -1.8203125 C-122.98966939 -47.2136517 -47.10416269 -40.11913476 0 0 Z " fill="#DB3320" transform="translate(219,633)"/>
<path d="M0 0 C34.67167918 -0.85345672 66.01899126 11.92923128 91.4140625 35.125 C92.21199219 35.84042969 93.00992188 36.55585938 93.83203125 37.29296875 C110.49138973 53.00878834 121.41267672 74.24334061 127.4140625 96.125 C127.92259766 97.88650391 127.92259766 97.88650391 128.44140625 99.68359375 C132.80242201 118.03201491 132.63676281 142.0342016 127.4140625 160.125 C127.22602051 160.81062012 127.03797852 161.49624023 126.84423828 162.20263672 C122.03912894 179.4238122 113.92191262 195.41351901 102.4140625 209.125 C101.70765625 209.970625 101.00125 210.81625 100.2734375 211.6875 C78.81830153 236.38405939 48.6639412 252.95551649 15.7890625 255.8125 C13.66504279 255.9350396 11.53991407 256.03996594 9.4140625 256.125 C8.021875 256.186875 8.021875 256.186875 6.6015625 256.25 C-25.83199513 256.97074573 -55.94068781 245.91225014 -80.5859375 225.125 C-81.43027344 224.4340625 -82.27460938 223.743125 -83.14453125 223.03125 C-89.07992759 218.0113654 -93.84817154 212.26717516 -98.5859375 206.125 C-99.2665625 205.27164063 -99.9471875 204.41828125 -100.6484375 203.5390625 C-113.20859367 187.20104686 -120.32942388 167.32007006 -123.5859375 147.125 C-123.77027344 146.06152344 -123.95460938 144.99804688 -124.14453125 143.90234375 C-127.99359563 110.96389014 -119.4562607 76.63650143 -98.91015625 50.39428711 C-97.48481527 48.62386116 -96.0398869 46.87195261 -94.5859375 45.125 C-93.87566406 44.24457031 -93.16539062 43.36414063 -92.43359375 42.45703125 C-87.46387045 36.55230889 -81.68245473 31.82562501 -75.5859375 27.125 C-74.74417969 26.45597656 -73.90242188 25.78695313 -73.03515625 25.09765625 C-51.58567405 8.66064789 -26.7290681 1.29203955 0 0 Z " fill="#22A839" transform="translate(469.5859375,300.875)"/>
<path d="M0 0 C0.65291016 0.16628906 1.30582031 0.33257812 1.97851562 0.50390625 C17.54179066 4.59551702 32.0419903 11.45100158 45 21 C45.825 21.60199219 46.65 22.20398438 47.5 22.82421875 C73.61995874 42.79091798 90.43138874 71.71006709 96 104 C96.18433594 105.0209375 96.36867188 106.041875 96.55859375 107.09375 C100.63450043 143.16372064 91.22001649 177.07846562 68.75 205.5 C47.98206286 230.11777583 19.23076411 248.01009989 -13.27441406 251.77294922 C-49.29211106 254.77334856 -83.47937205 247.16163018 -111.67578125 223.78125 C-114.17408035 221.57435437 -116.59447137 219.30742387 -119 217 C-119.82113281 216.24203125 -120.64226562 215.4840625 -121.48828125 214.703125 C-142.36816053 194.82989619 -156.91947523 165.01113939 -158.12426758 136.00854492 C-158.99016873 98.25471847 -150.50256757 65.43838666 -124.20703125 37.30078125 C-123.47871094 36.54152344 -122.75039062 35.78226562 -122 35 C-121.28199219 34.23042969 -120.56398437 33.46085937 -119.82421875 32.66796875 C-89.91826531 1.48716117 -41.45578962 -10.57719735 0 0 Z " fill="#29A6E0" transform="translate(161,303)"/>
<path d="M0 0 C0.74221298 -0.00979385 1.48442596 -0.01958771 2.24913025 -0.02967834 C32.41179618 -0.34608578 32.41179618 -0.34608578 46.171875 4.23828125 C47.60937097 4.67839857 49.0468711 5.11850232 50.484375 5.55859375 C82.36035851 15.72256801 109.00661286 38.93614144 124.45532227 68.53613281 C139.89277138 99.46744563 142.71454207 135.03730964 132.046875 167.92578125 C125.67995735 186.50367207 115.64815477 201.99450816 102.171875 216.23828125 C101.41261719 217.06199219 100.65335938 217.88570312 99.87109375 218.734375 C78.06594164 241.6101565 46.6422842 254.34945102 15.30859375 255.36328125 C-20.39113719 256.06572094 -53.39108386 243.87186954 -79.37915039 219.16259766 C-91.31365727 207.39515733 -99.9222013 194.45251221 -106.828125 179.23828125 C-107.55128906 177.71460938 -107.55128906 177.71460938 -108.2890625 176.16015625 C-114.85552979 161.59453789 -117.02754624 145.92384961 -117.06835938 130.08325195 C-117.07796442 127.8383126 -117.10898484 125.59433053 -117.140625 123.34960938 C-117.21240756 113.59020915 -116.16779013 104.72724313 -113.828125 95.23828125 C-113.63460449 94.44252686 -113.44108398 93.64677246 -113.24169922 92.8269043 C-104.73390169 60.19233759 -82.11363048 33.25667723 -53.578125 16.05078125 C-37.69190604 6.74802443 -18.48290755 0.20027197 0 0 Z " fill="#E76CA4" transform="translate(116.828125,1.76171875)"/>
<path d="M0 0 C0.84129959 -0.00953201 1.68259918 -0.01906403 2.5493927 -0.02888489 C3.90879219 -0.02751778 3.90879219 -0.02751778 5.2956543 -0.02612305 C6.69958687 -0.03255074 6.69958687 -0.03255074 8.13188171 -0.03910828 C10.11314078 -0.04485273 12.09442094 -0.04535099 14.07568359 -0.04101562 C17.09794456 -0.03786466 20.11921814 -0.06128208 23.14135742 -0.08666992 C25.06778848 -0.08894389 26.99422217 -0.08964596 28.9206543 -0.08862305 C29.82084793 -0.09783279 30.72104156 -0.10704254 31.64851379 -0.11653137 C36.76881488 -0.07904321 40.40886546 0.35388468 44.80737305 3.2746582 C46.94323983 6.47845838 47.0386948 7.29405787 46.93237305 10.9621582 C46.91432617 11.77040039 46.8962793 12.57864258 46.87768555 13.41137695 C46.85448242 14.02625977 46.8312793 14.64114258 46.80737305 15.2746582 C48.78737305 15.2746582 50.76737305 15.2746582 52.80737305 15.2746582 C52.64237305 14.0990332 52.47737305 12.9234082 52.30737305 11.7121582 C52.36254323 7.98940631 53.170126 6.18519553 55.78393555 3.5324707 C62.08800801 -1.65604047 69.98677784 -0.54086786 77.68237305 -0.2878418 C79.19926724 -0.26984145 80.71620018 -0.25484515 82.2331543 -0.24291992 C102.10853728 0.0228546 102.10853728 0.0228546 106.50976562 3.69506836 C113.67409188 12.41627078 112.98962008 30.85329485 113.11987305 41.7746582 C113.13751709 42.62350586 113.15516113 43.47235352 113.17333984 44.34692383 C113.16783052 49.39146516 112.66590271 52.93665534 109.80737305 57.2746582 C106.64662845 59.38182127 105.8495127 59.53126943 102.23168945 59.56518555 C101.30707916 59.57794525 100.38246887 59.59070496 99.42984009 59.60385132 C98.43294159 59.60607697 97.43604309 59.60830261 96.40893555 59.6105957 C95.38182465 59.6172525 94.35471375 59.6239093 93.29647827 59.63076782 C91.12271924 59.64089694 88.94892909 59.64558476 86.77514648 59.64526367 C83.45203261 59.64963236 80.13025147 59.6859378 76.80737305 59.72387695 C74.69539842 59.72974594 72.58341749 59.73371478 70.47143555 59.7355957 C68.98216049 59.75715225 68.98216049 59.75715225 67.46279907 59.77914429 C63.20257222 59.75098458 60.52585527 59.68009487 56.76586914 57.55834961 C53.07875852 53.25901868 52.55719431 49.66780026 52.61206055 44.09887695 C52.61850586 42.94194336 52.62495117 41.78500977 52.6315918 40.59301758 C52.65672852 38.79574219 52.65672852 38.79574219 52.68237305 36.9621582 C52.69139648 35.74463867 52.70041992 34.52711914 52.7097168 33.27270508 C52.73324268 30.27315546 52.76611652 27.27400776 52.80737305 24.2746582 C50.82737305 24.2746582 48.84737305 24.2746582 46.80737305 24.2746582 C46.79279053 25.12697021 46.77820801 25.97928223 46.76318359 26.85742188 C46.7019402 30.03536995 46.62775275 33.21268367 46.54492188 36.39013672 C46.51177499 37.76241778 46.48371134 39.13483182 46.4609375 40.50732422 C46.42720538 42.48603587 46.37335814 44.46437196 46.3190918 46.44262695 C46.29290771 47.63138428 46.26672363 48.8201416 46.23974609 50.04492188 C45.77205412 53.5384832 44.90193732 55.46681855 42.80737305 58.2746582 C34.84463765 62.2560259 22.39005567 60.54808101 13.484375 60.62475586 C12.06201028 60.64150695 10.63973587 60.66904018 9.21777344 60.70678711 C-4.16752842 61.05754698 -4.16752842 61.05754698 -7.9777832 58.1262207 C-13.35673392 51.20094024 -13.64568637 45.95397664 -13.50512695 37.3996582 C-13.49384766 36.28937256 -13.48256836 35.17908691 -13.47094727 34.03515625 C-13.0700906 9.79563483 -13.0700906 9.79563483 -7.19262695 2.2746582 C-4.11987894 0.22615953 -3.46963438 0.02162804 0 0 Z " fill="#EACC43" transform="translate(85.192626953125,378.725341796875)"/>
<path d="M0 0 C6.32165347 2.7075533 10.05883716 7.68700097 12.93359375 13.80078125 C14.94409951 19.82315987 14.57219164 26.2747243 12.16796875 32.125 C8.58751167 39.09878225 4.51832875 43.86261279 -2.921875 46.70703125 C-8.97454024 48.47627186 -12.80618595 47.91683215 -18.33203125 45.125 C-24.29063144 41.23535821 -27.01519061 36.027881 -29.20703125 29.375 C-30.38246724 23.15210358 -29.02686549 16.99474031 -26.20703125 11.375 C-19.77284154 1.99804135 -11.53822144 -3.26746094 0 0 Z " fill="#FBF8F5" transform="translate(106.20703125,691.625)"/>
<path d="M0 0 C6.09796627 3.50387175 9.58802237 8.74507065 11.6875 15.375 C12.61554096 23.0281597 11.53478316 30.16661249 7.17578125 36.609375 C2.8344184 41.95559262 -1.1658637 44.93351177 -8.2109375 45.68359375 C-12.97846083 45.87782618 -16.39730256 45.80763879 -20.75 43.75 C-27.64640929 37.35820603 -30.70544168 31.83852486 -31.75 22.4375 C-31.4215271 15.56694184 -28.65216166 9.39259895 -23.9375 4.4375 C-16.89048086 -1.87948967 -8.89508269 -4.01876137 0 0 Z " fill="#FBF9F7" transform="translate(176.3125,697.625)"/>
<path d="M0 0 C1.33043335 0.02755371 1.33043335 0.02755371 2.68774414 0.05566406 C5.29307244 0.11900689 7.89582433 0.21338623 10.5 0.3125 C11.54969971 0.33787842 11.54969971 0.33787842 12.62060547 0.36376953 C23.50798641 0.62863539 23.50798641 0.62863539 28.5 5.3125 C32.60654471 13.52558942 31.72039587 26.26617926 31.8125 35.25 C31.82998291 36.11995605 31.84746582 36.98991211 31.86547852 37.88623047 C31.86328125 40.33984375 31.86328125 40.33984375 31.5 44.3125 C27.67309774 46.86376817 24.50973264 46.6360873 20.0703125 46.6484375 C19.242966 46.6550943 18.41561951 46.6617511 17.5632019 46.66860962 C15.8131533 46.67873218 14.06306613 46.68342676 12.31298828 46.68310547 C9.64160152 46.68747286 6.97187503 46.72377848 4.30078125 46.76171875 C2.59896397 46.76758826 0.89713886 46.77155675 -0.8046875 46.7734375 C-1.99866653 46.79499405 -1.99866653 46.79499405 -3.21676636 46.81698608 C-7.14708244 46.78477167 -9.08299828 46.56910085 -12.51293945 44.45849609 C-14.5 42.3125 -14.5 42.3125 -14.98828125 39.515625 C-14.93027344 38.54109375 -14.87226563 37.5665625 -14.8125 36.5625 C-14.76738281 35.57765625 -14.72226563 34.5928125 -14.67578125 33.578125 C-14.61777344 32.83046875 -14.55976563 32.0828125 -14.5 31.3125 C-13.9225 31.63863281 -13.345 31.96476562 -12.75 32.30078125 C-8.70022222 34.12177508 -4.45744715 33.51854707 -0.125 33.0625 C2.17783269 31.99965414 2.5910083 30.61994048 3.5 28.3125 C3.83 27.6525 4.16 26.9925 4.5 26.3125 C4.92308538 21.71551468 5.03894467 17.60596722 3.25 13.3125 C0.85530398 10.57570455 -0.73316803 9.48371877 -4.39453125 9.12890625 C-8.25163622 9.00725359 -11.18822505 9.10465003 -14.5 11.3125 C-14.8125 8.0625 -14.8125 8.0625 -14.5 4.3125 C-10.26566949 -0.55740953 -5.99016751 -0.20862675 0 0 Z " fill="#2DA8DE" transform="translate(159.5,385.6875)"/>
<path d="M0 0 C0.8037355 -0.00004028 1.60747101 -0.00008057 2.43556213 -0.00012207 C4.1326582 0.0052308 5.82975382 0.02280394 7.52661133 0.05175781 C10.11682376 0.09355503 12.70442957 0.09283038 15.29492188 0.0859375 C16.94663256 0.09643288 18.59832989 0.10937287 20.25 0.125 C21.02097519 0.12520142 21.79195038 0.12540283 22.58628845 0.12561035 C27.0855242 0.22402033 30.15413711 0.72262918 33.69140625 3.59375 C34.1796875 6.07421875 34.1796875 6.07421875 34.00390625 8.78125 C33.95878906 9.68230469 33.91367188 10.58335937 33.8671875 11.51171875 C33.78017578 12.54232422 33.78017578 12.54232422 33.69140625 13.59375 C33.03140625 13.26375 32.37140625 12.93375 31.69140625 12.59375 C31.69140625 11.93375 31.69140625 11.27375 31.69140625 10.59375 C27.15338678 8.2515464 22.6925595 7.84947674 17.69140625 8.59375 C14.22080457 10.66134249 11.91415232 12.70319433 10.69140625 16.59375 C9.92469614 22.2893108 11.35729859 25.38010156 14.40234375 29.9921875 C16.01465525 31.99536239 17.10119666 32.52174443 19.64453125 32.83203125 C25.37416271 33.0171724 28.2477818 32.23980083 32.69140625 28.59375 C32.82717455 30.65441104 32.92374528 32.71767757 33.00390625 34.78125 C33.06191406 35.92980469 33.11992188 37.07835937 33.1796875 38.26171875 C32.53824657 42.63891166 31.09477312 43.84113299 27.69140625 46.59375 C24.60449219 47.19311523 24.60449219 47.19311523 21.17578125 47.15234375 C19.29826172 47.14170898 19.29826172 47.14170898 17.3828125 47.13085938 C16.08214844 47.09798828 14.78148437 47.06511719 13.44140625 47.03125 C12.15621094 47.02544922 10.87101562 47.01964844 9.546875 47.01367188 C2.70856101 46.92600118 -3.80377703 46.81375488 -10.30859375 44.59375 C-13.52148111 41.28889067 -13.65050135 38.08119693 -13.62402344 33.56518555 C-13.60243164 32.81148682 -13.58083984 32.05778809 -13.55859375 31.28125 C-13.54473633 30.49596924 -13.53087891 29.71068848 -13.51660156 28.90161133 C-13.46476106 26.46486307 -13.38717486 24.02976438 -13.30859375 21.59375 C-13.293125 20.82804687 -13.27765625 20.06234375 -13.26171875 19.2734375 C-13.21644759 17.10796705 -13.14295864 14.94551429 -13.05859375 12.78125 C-13.0121875 11.51667969 -12.96578125 10.25210937 -12.91796875 8.94921875 C-11.4969401 1.12445201 -7.3054939 -0.15494902 0 0 Z " fill="#2DA8DF" transform="translate(91.30859375,385.40625)"/>
<path d="M0 0 C4.85965186 1.68394716 8.16672359 4.75008538 11 9 C12.66026461 13.98079383 12.59903425 18.30273629 10.875 23.1875 C8.28535548 27.07196678 5.22685959 29.88657021 1 32 C-5.34228973 32.77083214 -10.51452674 32.98759164 -15.75 29 C-16.85786122 28.0272438 -17.95135005 27.03631289 -19 26 C-19.721875 27.093125 -20.44375 28.18625 -21.1875 29.3125 C-23.52448177 32.51047506 -25.18693431 34.59082355 -29 36 C-34.29418805 36.64859884 -38.5705371 36.6757461 -43.4375 34.375 C-48.91574117 29.29760574 -50.50037723 25.24453012 -51 18 C-50.195625 19.2065625 -50.195625 19.2065625 -49.375 20.4375 C-47.18833148 23.19463286 -47.18833148 23.19463286 -44 24.0625 C-40.95476681 24.25730299 -40.95476681 24.25730299 -38.625 22.5 C-36.45265709 19.15793399 -36.64392209 16.91685697 -37 13 C-37.33 12.01 -37.66 11.02 -38 10 C-41.00847418 8.77479736 -41.00847418 8.77479736 -44 8 C-40.98104869 4.84382363 -39.13206265 3.82909726 -34.75 3.6875 C-30.1119837 3.73223971 -27.60621844 4.99481797 -24 8 C-23.4225 8.4125 -22.845 8.825 -22.25 9.25 C-20.50917851 11.68715009 -20.17384525 14.23112344 -19.51953125 17.125 C-18.84902283 19.54488003 -18.17676898 20.71006283 -16 22 C-13.5 22.5 -13.5 22.5 -11 22 C-8.87492355 20.38331504 -8.09155544 19.49547648 -7.6015625 16.84375 C-7.61316406 15.68359375 -7.61316406 15.68359375 -7.625 14.5 C-7.61726563 13.7265625 -7.60953125 12.953125 -7.6015625 12.15625 C-8.0947881 9.4870291 -8.85022813 8.6185928 -11 7 C-14.10839021 6.2730774 -14.10839021 6.2730774 -17 6 C-11.3034907 0.15358256 -8.09415192 -0.87373154 0 0 Z " fill="#FAFCF8" transform="translate(487,390)"/>
<path d="M0 0 C1.67578125 1.1953125 1.67578125 1.1953125 3 3 C3.29296875 5.48046875 3.29296875 5.48046875 3.1875 8.1875 C3.14689453 9.53908203 3.14689453 9.53908203 3.10546875 10.91796875 C3.07066406 11.60503906 3.03585937 12.29210937 3 13 C-3.05473373 15.57886807 -8.44074057 16.61020794 -15 17 C-15.495 19.475 -15.495 19.475 -16 22 C-11.71 22.33 -7.42 22.66 -3 23 C-4.94361808 26.88723616 -5.41550119 27.61832807 -8.875 29.6875 C-9.55304688 30.10386719 -10.23109375 30.52023438 -10.9296875 30.94921875 C-17.8482403 34.46071064 -27.6167584 34.23748509 -34.9609375 32.1640625 C-41.66804452 29.0891119 -46.90864992 24.25912824 -50.17578125 17.60546875 C-51.09351363 14.70439058 -51.23306741 12.34894647 -51.1875 9.3125 C-51.18105469 8.35988281 -51.17460937 7.40726563 -51.16796875 6.42578125 C-51 4 -51 4 -50 2 C-45.29659176 2.61634993 -40.74155225 3.47902345 -36.125 4.5625 C-25.69929994 6.78635577 -18.83351562 6.41702177 -9 2 C-5.53076119 -0.31282587 -4.07794425 -0.42478586 0 0 Z " fill="#FDFCFB" transform="translate(492,144)"/>
<path d="M0 0 C5.93368879 3.52485423 9.76097663 7.41418337 11.97265625 14.05859375 C12.77921466 21.9084704 13.02441019 29.60989177 7.97265625 36.05859375 C3.18287185 40.5062507 -0.00894518 41.48706992 -6.421875 41.39453125 C-10.61818568 40.8534777 -13.21797664 39.17430142 -16.02734375 36.05859375 C-20.72118486 28.83179571 -21.86535642 21.58035635 -21.02734375 13.05859375 C-19.27657712 7.11599159 -16.02149567 3.56512595 -11.02734375 0.05859375 C-7.02874877 -1.27427124 -3.95041059 -1.83439104 0 0 Z " fill="#04A2E9" transform="translate(169.02734375,100.94140625)"/>
<path d="M0 0 C4.8605071 2.38439971 7.36323298 5.31241418 10 10 C12.43816578 17.62333168 11.83561466 26.01608907 8.20703125 33.09375 C5.5654112 37.26562891 2.51291401 40.07304411 -2 42 C-5.90667502 42.75100592 -9.45740669 42.80534622 -13.03515625 40.9375 C-17.52835175 37.4268929 -19.97996592 33.60107998 -21 28 C-21.7710909 20.29872967 -21.89101855 13.31010281 -17 7 C-12.11325594 1.24180497 -7.6692383 -1.77858031 0 0 Z " fill="#03A2E9" transform="translate(102,98)"/>
<path d="M0 0 C7.58097515 3.16705212 11.5202076 8.77943077 15 16 C17.94022075 24.82066226 17.01295354 37.20964735 13.33203125 45.6640625 C9.95603975 51.58442297 5.68365201 56.94349169 -1 59 C-6.22800343 59.61828184 -10.50177991 59.70670759 -15.3125 57.4375 C-22.2623445 51.13415266 -26.78359498 45.11737898 -27.50390625 35.484375 C-27.82045141 24.35408844 -26.85138582 15.34460608 -18.9609375 6.7890625 C-13.13671478 1.44473828 -8.02913607 -1.41539258 0 0 Z M-16.38671875 20.7890625 C-20.3317772 27.29494836 -19.88658417 35.13170299 -18.5625 42.40234375 C-17.180351 46.90296645 -14.74199429 50.05839682 -11.0234375 52.9296875 C-7.342563 54.87671378 -4.01798295 54.82493101 0 54 C5.31439373 52.12064662 8.34320767 48.9199858 11 44 C14.19439261 37.29177552 14.13024151 28.59511702 11.875 21.5625 C9.88075817 16.98242306 6.44700676 14.22350338 2 12 C-6.70133859 10.41137387 -11.21911273 14.1221229 -16.38671875 20.7890625 Z " fill="#F9F9FC" transform="translate(100,86)"/>
<path d="M0 0 C8.12283599 3.57502063 12.10253457 8.85809744 15.859375 16.7109375 C19.27081962 26.02790811 18.64331592 36.62010269 14.8203125 45.703125 C11.61630113 51.56777739 7.98865485 56.11341581 1.484375 58.1484375 C-4.13030226 59.02127223 -9.05235966 59.02642074 -13.828125 55.7109375 C-21.61549321 48.89699032 -25.8974765 40.19704752 -26.796875 29.94140625 C-27.05101653 20.84525736 -25.70671202 13.02243101 -20.0234375 5.72265625 C-14.28391048 -0.26964786 -8.02722057 -2.71728895 0 0 Z M-19.828125 16.5859375 C-23.81725094 22.64349911 -24.14697888 28.05784773 -23.515625 35.1484375 C-22.11498962 41.79378785 -19.60715741 46.51154221 -14.390625 50.9609375 C-10.07899523 52.74182806 -6.11172486 52.80502319 -1.515625 52.1484375 C3.37910307 49.79171658 5.80053102 46.82031406 8.484375 42.1484375 C10.6669729 35.60064379 10.786109 26.92517048 7.859375 20.5859375 C5.04419553 15.92392044 0.68215249 11.93517351 -4.515625 10.1484375 C-10.99444083 9.28459539 -15.51869284 12.04356306 -19.828125 16.5859375 Z " fill="#FAF9FC" transform="translate(171.515625,89.8515625)"/>
<path d="M0 0 C0.495 2.475 0.495 2.475 1 5 C-3.62066698 6.65353569 -8.20582296 8.11015514 -13.0078125 9.140625 C-13.84957031 9.32496094 -14.69132813 9.50929688 -15.55859375 9.69921875 C-17.27387385 10.06733822 -18.99280027 10.41884802 -20.71484375 10.75390625 C-27.25427144 12.23055121 -30.75817548 14.86538976 -35 20 C-36.2065625 21.4540625 -36.2065625 21.4540625 -37.4375 22.9375 C-38.2109375 23.9584375 -38.2109375 23.9584375 -39 25 C-43.8123369 24.3496842 -48.23227668 23.04146013 -52.828125 21.5234375 C-60.79132108 20.20931401 -68.65435354 22.48344427 -76.3125 24.5625 C-87.25143688 27.514793 -87.25143688 27.514793 -91 27 C-91.66 26.34 -92.32 25.68 -93 25 C-92.8359375 22.97387695 -92.8359375 22.97387695 -92 21 C-85.9492055 18.16369008 -79.49787991 16.77762142 -73 15.3125 C-71.58074219 14.97508789 -71.58074219 14.97508789 -70.1328125 14.63085938 C-63.01512889 13.00917107 -56.29689864 11.68353346 -49.3125 14.5625 C-45.80197789 16.00649904 -43.64232008 16.24329195 -40 15 C-38.13850232 13.13431918 -36.69235051 11.13162211 -35.13671875 9.0078125 C-30.26047857 4.42575134 -22.86197063 3.30159513 -16.5 1.8125 C-15.79230469 1.63525391 -15.08460938 1.45800781 -14.35546875 1.27539062 C-9.46025836 0.1164697 -5.02911473 -0.16423911 0 0 Z " fill="#020402" transform="translate(532,428)"/>
<path d="M0 0 C1.98 0 3.96 0 6 0 C6.09796875 0.66386719 6.1959375 1.32773438 6.296875 2.01171875 C7.19676613 7.32573102 7.92888813 11.1683653 12 15 C16.28050811 17.53061486 20.13832401 17.65587534 25 17 C29.01891722 15.64236194 31.52874115 13.72259691 33.875 10.125 C34.978101 7.06083055 35.61557748 4.2291492 36 1 C39.63 1 43.26 1 47 1 C47.5658017 8.49687252 46.32277876 16.03943669 41.3515625 21.96484375 C35.21736723 27.44276049 29.47412508 28.51141025 21.36328125 28.3828125 C13.94088644 27.53798707 7.67403484 23.8071342 3 18 C-0.95269536 12.41170657 -0.28668801 6.56197003 0 0 Z " fill="#FEFCF8" transform="translate(482,111)"/>
<path d="M0 0 C3.3 0 6.6 0 10 0 C10.20625 1.340625 10.4125 2.68125 10.625 4.0625 C11.74757183 9.21168817 14.14217458 12.47763766 18 16 C22.38819469 18.19409734 27.70974911 17.39700027 32.25 16 C36.78479249 12.7019691 39.35343154 8.3873297 40.8125 3 C40.9053125 2.01 40.9053125 2.01 41 1 C42.65 1 44.3 1 46 1 C46.52890685 8.05209133 46.73651021 13.54398619 42.41796875 19.38671875 C38.05985614 24.34512235 32.99841119 27.43494035 26.45703125 28.359375 C19.29212697 28.72317832 13.88014954 27.11919407 8 23 C3.77904372 19.08491012 0.18683953 14.88480242 -0.1953125 8.984375 C-0.17210937 7.91703125 -0.14890625 6.8496875 -0.125 5.75 C-0.10695313 4.67234375 -0.08890625 3.5946875 -0.0703125 2.484375 C-0.04710937 1.66453125 -0.02390625 0.8446875 0 0 Z " fill="#FEFBF8" transform="translate(409,109)"/>
<path d="M0 0 C4.57493538 1.87156447 6.83592096 4.59169084 9 9 C9.80941161 13.95458013 9.65024857 18.43375582 7.3125 22.9375 C4.47756692 26.69187083 2.60472816 28.57070221 -2.109375 29.34765625 C-6.22598128 29.61703149 -9.12112291 29.38919494 -12.4375 26.8125 C-16.42420905 22.43684372 -17.48582068 19.04066393 -17.31640625 13.0546875 C-16.5886919 8.3290363 -13.95372014 5.03319682 -10.75 1.5625 C-7.04744498 -0.54122445 -4.16376415 -0.68549776 0 0 Z " fill="#26AA3D" transform="translate(99,704)"/>
<path d="M0 0 C4.55479418 1.90665803 6.80613412 4.61226825 9 9 C10.03826429 14.66325977 9.03543112 19.37183533 6.1875 24.3359375 C4.35798548 26.89966508 2.9842231 27.9389429 0 29 C-3.11540419 29.49937262 -5.89504407 29.6085939 -9 29 C-12.86066046 26.04289837 -15.6145162 22.75345569 -16.30078125 17.8515625 C-16.33647643 11.0694792 -15.05393803 7.14729885 -10.25 2.125 C-6.38212988 -0.403992 -4.536838 -0.65990371 0 0 Z " fill="#26AA3D" transform="translate(171,708)"/>
<path d="M0 0 C2.296875 0.32421875 2.296875 0.32421875 3.296875 1.32421875 C3.421875 3.82421875 3.421875 3.82421875 3.296875 6.32421875 C2.966875 6.65421875 2.636875 6.98421875 2.296875 7.32421875 C3.96242432 7.35394775 3.96242432 7.35394775 5.66162109 7.38427734 C9.77302102 7.46022956 13.88406218 7.54896235 17.99511719 7.64160156 C19.77596973 7.6799344 21.55690084 7.71477964 23.33789062 7.74609375 C25.89481734 7.79165146 28.4512011 7.84965982 31.0078125 7.91015625 C31.80681976 7.92170746 32.60582703 7.93325867 33.42904663 7.94515991 C39.06913159 8.09647534 39.06913159 8.09647534 41.296875 10.32421875 C40.76116071 13.85993304 40.76116071 13.85993304 39.296875 15.32421875 C37.04877453 15.4839967 34.79580969 15.57587592 32.54296875 15.640625 C31.84986099 15.6614061 31.15675323 15.68218719 30.44264221 15.70359802 C28.96223369 15.74698879 27.4817543 15.78801448 26.0012207 15.8269043 C23.79554446 15.88510469 21.59019149 15.95062636 19.38476562 16.01757812 C15.02255041 16.14533559 10.66012287 16.23997407 6.296875 16.32421875 C5.53932922 16.34087585 4.78178345 16.35753296 4.00128174 16.37469482 C1.77820288 16.41994789 -0.44459088 16.45051735 -2.66796875 16.4765625 C-3.97241943 16.49581787 -5.27687012 16.51507324 -6.62084961 16.53491211 C-9.703125 16.32421875 -9.703125 16.32421875 -11.703125 14.32421875 C-11.44300246 10.02497114 -9.75201123 7.68414055 -6.953125 4.51171875 C-6.27765625 3.72152344 -5.6021875 2.93132813 -4.90625 2.1171875 C-2.703125 0.32421875 -2.703125 0.32421875 0 0 Z " fill="#040202" transform="translate(112.703125,751.67578125)"/>
<path d="M0 0 C19.34042553 -0.19148936 19.34042553 -0.19148936 29 1 C29.45760607 6.7200759 28.63848132 9.55296727 25 14 C20.86118633 17.63713929 16.82404122 18.50985775 11.42578125 18.4921875 C6.92571322 17.57913022 3.96876183 14.34743043 1 11 C-0.20272819 8.59454362 -0.10071472 7.05003047 -0.0625 4.375 C-0.05347656 3.55773437 -0.04445313 2.74046875 -0.03515625 1.8984375 C-0.02355469 1.27195312 -0.01195312 0.64546875 0 0 Z " fill="#E8382A" transform="translate(420,109)"/>
<path d="M0 0 C9.9 0 19.8 0 30 0 C30 6.57716496 29.0699093 9.12256901 25 14 C20.89941865 16.98224098 17.13332319 17.53929233 12.17578125 17.34765625 C7.32626525 16.57277847 4.68221963 13.80789167 1.625 10.1875 C0 7 0 7 0 0 Z " fill="#E8382B" transform="translate(488,112)"/>
<path d="M0 0 C1.32 0.66 2.64 1.32 4 2 C3.49430263 6.42485195 2.10058108 8.81561943 -1 12 C-6.05502901 15.49037717 -11.04897092 15.74636652 -17 15 C-19.85240179 13.72552261 -21.46240666 12.58060081 -23.5625 10.3125 C-25.16789842 8.55048709 -25.16789842 8.55048709 -29 9 C-30.36363208 10.97946592 -31.69418644 12.9819245 -33 15 C-36.66072247 18.13776212 -40.093644 18.58217191 -44.77734375 18.41796875 C-48.70654831 17.67908494 -50.35461124 15.97606235 -53 13 C-53.875 10.1875 -53.875 10.1875 -54 8 C-52.35 7.67 -50.7 7.34 -49 7 C-48.649375 7.66 -48.29875 8.32 -47.9375 9 C-46.05407132 11.34201822 -46.05407132 11.34201822 -42.5625 11.5625 C-38.90120554 11.34233431 -38.90120554 11.34233431 -36.75 8.75 C-35.69689491 7.09512057 -34.68274775 5.41308334 -33.75 3.6875 C-32 2 -32 2 -28.3125 1.375 C-24.61534551 1.52369726 -22.81405591 2.65772861 -20 5 C-17.22885196 7.29749405 -15.44943087 8.47488278 -11.8125 8.625 C-6.59550264 7.76975453 -4.43015351 5.77536298 -1.1875 1.75 C-0.795625 1.1725 -0.40375 0.595 0 0 Z " fill="#080506" transform="translate(160,155)"/>
<path d="M0 0 C3.63467079 1.62400184 4.77408696 2.66113044 7 6 C7.125 9.1875 7.125 9.1875 7 12 C6.13375 11.175 5.2675 10.35 4.375 9.5 C1.91238703 7.43908985 1.14244357 7.01675807 -2.1875 6.625 C-5.07379225 6.92011282 -5.07379225 6.92011282 -8 8 C-8.08131463 9.43655854 -8.13933559 10.8744483 -8.1875 12.3125 C-8.22230469 13.11300781 -8.25710937 13.91351563 -8.29296875 14.73828125 C-8.18117735 17.0624035 -8.18117735 17.0624035 -6.66796875 18.76953125 C-4.06734861 20.68802152 -2.14486907 20.37738429 1 20 C3.81780534 18.61114752 3.81780534 18.61114752 6 17 C5.72608098 20.2870282 5.18168017 21.78993231 3 24.3125 C-1.08438083 26.60996422 -4.4123675 26.8174327 -9 26 C-13.32666412 23.55449419 -15.27796857 20.62229488 -17 16 C-17.54016234 11.6787013 -17.3251256 9.60380468 -15.25 5.75 C-10.61821477 0.08892916 -7.24106641 -0.96978568 0 0 Z " fill="#F2F5F7" transform="translate(118,393)"/>
<path d="M0 0 C3.13837611 -0.3077917 4.59343628 -0.27813784 7.23828125 1.53125 C7.92277344 2.1809375 8.60726562 2.830625 9.3125 3.5 C10.00988281 4.1496875 10.70726562 4.799375 11.42578125 5.46875 C11.94527344 5.9740625 12.46476563 6.479375 13 7 C15.74561932 5.47465593 17.86886256 4.14343157 20 1.8125 C22 0 22 0 24.6875 -0.3125 C27 0 27 0 28 1 C28.5 3.125 28.5 3.125 28 6 C25.91886888 8.62046651 23.50608585 10.79213313 21 13 C19.700625 14.2065625 19.700625 14.2065625 18.375 15.4375 C15.53149163 17.30822919 14.34501054 17.42627571 11 17 C8.90234375 15.390625 8.90234375 15.390625 6.9375 13.25 C6.28652344 12.55390625 5.63554688 11.8578125 4.96484375 11.140625 C4.31644531 10.43421875 3.66804688 9.7278125 3 9 C1.88044922 7.96359375 1.88044922 7.96359375 0.73828125 6.90625 C0.16464844 6.2771875 -0.40898438 5.648125 -1 5 C-0.75 2.25 -0.75 2.25 0 0 Z " fill="#030506" transform="translate(121,443)"/>
<path d="M0 0 C4.05549932 2.1028515 6.32004909 3.76957815 8 8 C8.7121481 13.01815989 8.52912753 16.94174495 6.25 21.5 C3.55651077 24.49276582 2.11998623 25.75909247 -1.890625 26.21484375 C-5.17619362 26.36695341 -7.47527751 26.23612512 -10.5 24.875 C-12.60705132 22.24118585 -12.29101222 20.27388743 -12 17 C-10.515 17.99 -10.515 17.99 -9 19 C-5.4913658 19.54468716 -2.16754089 19.6202561 1 17.9375 C2.60318593 14.83132725 2.42751128 12.42009021 2 9 C0.55851025 6.81452316 0.55851025 6.81452316 -2 6 C-6.20625886 6.22138205 -8.47567443 6.65044962 -12 9 C-12.48 3.6 -12.48 3.6 -10.5 1.125 C-6.96861303 -0.46412414 -3.76252789 -0.65844238 0 0 Z " fill="#F3F6F7" transform="translate(157,394)"/>
<path d="M0 0 C6.75 2.625 6.75 2.625 9 6 C9.57336947 10.42313594 9.48251341 12.3188046 6.875 16 C4 18 4 18 0.9375 18.1875 C-3.04454743 16.57773615 -4.18209901 14.85395009 -6 11 C-6.08745867 6.7145253 -5.30829846 5.34589583 -2.4375 2.125 C-1.633125 1.42375 -0.82875 0.7225 0 0 Z " fill="#E9AE41" transform="translate(442,397)"/>
<path d="M0 0 C3.5625 0.5 3.5625 0.5 6 1.9375 C8.313541 5.73170724 8.34898911 9.1703377 7.5625 13.5 C5.62542801 16.44147968 4.50941325 17.25720173 1.125 18.125 C-2.03820631 17.35348627 -3.55176027 15.86922052 -5.48828125 13.28515625 C-7.10378527 10.24694499 -6.93171045 7.83592054 -6.4375 4.5 C-4.84580713 0.8484693 -3.98042609 0.57897107 0 0 Z " fill="#ECAE3F" transform="translate(472.4375,395.5)"/>
<path d="M0 0 C1.9375 1.125 1.9375 1.125 3 3 C3.49125459 6.85985753 3.56021138 9.08965651 1.5 12.4375 C-2.27828899 14.79893062 -4.57790439 14.56153595 -9 14 C-11.90460477 11.73077752 -11.97856495 10.15004537 -12.5 6.5 C-12 3 -12 3 -9.9375 0.5 C-6.10621033 -1.45640324 -4.1000774 -1.13891039 0 0 Z " fill="#080808" transform="translate(157,400)"/>
<path d="M0 0 C2.875 1.625 2.875 1.625 5 4 C5.625 6.9375 5.625 6.9375 5 10 C2.51397551 13.36344489 1.08574477 14.80057749 -3.0625 15.5625 C-6 15 -6 15 -8.375 13.4375 C-10.62340519 10.06489221 -10.56783945 7.97487617 -10 4 C-7.25657347 -0.1151398 -4.81370572 -0.78591114 0 0 Z " fill="#070707" transform="translate(119,399)"/>
<path d="M0 0 C-0.6875 3.375 -0.6875 3.375 -2 7 C-5.63304539 8.99561648 -8.71857049 9.2236489 -12.8125 9.125 C-14.27623047 9.09792969 -14.27623047 9.09792969 -15.76953125 9.0703125 C-16.50558594 9.04710937 -17.24164063 9.02390625 -18 9 C-18.625 6.625 -18.625 6.625 -19 4 C-16.5162463 1.5162463 -15.43222478 1.67196884 -12 1.4375 C-7.73925043 1.13404545 -4.28577103 -0.11278345 0 0 Z " fill="#0A0909" transform="translate(494,158)"/>
<path d="M0 0 C0.33 0.66 0.66 1.32 1 2 C1.66 2.33 2.32 2.66 3 3 C2.1875 4.9375 2.1875 4.9375 1 7 C0.01 7.33 -0.98 7.66 -2 8 C-1.34 5.36 -0.68 2.72 0 0 Z " fill="#E6F2FA" transform="translate(112,124)"/>
<path d="M0 0 C1.41377341 2.63904371 2.37240135 5.07120629 3 8 C2.01 8 1.02 8 0 8 C-0.38063221 5.6739143 -0.71269945 3.33944736 -1 1 C-0.67 0.67 -0.34 0.34 0 0 Z " fill="#DFEEF8" transform="translate(148,125)"/>
</svg>
