<?xml version="1.0" encoding="UTF-8"?>
<svg version="1.1" xmlns="http://www.w3.org/2000/svg" width="1184" height="1184">
<path d="M0 0 C1.39520708 0.169111 2.79055696 0.33704731 4.18603516 0.50390625 C78.44173556 9.46899301 152.25881871 32.62503008 217.42919922 69.55126953 C219.93197731 70.96166699 222.44960183 72.34111997 224.97265625 73.71484375 C252.61481291 88.92828374 278.98299492 107.41203901 303.24267578 127.546875 C305.76933367 129.63615921 308.32467907 131.68971268 310.875 133.75 C315.17101484 137.26667782 319.32063937 140.91834282 323.41796875 144.6640625 C325.51528907 146.56148693 327.63388758 148.42367219 329.76953125 150.27734375 C334.10802983 154.06521992 338.31323315 157.98333131 342.5 161.9375 C343.20769531 162.60201172 343.91539062 163.26652344 344.64453125 163.95117188 C351.34078008 170.26180492 357.89822712 176.6290277 363.89453125 183.61328125 C366.10570233 186.11982213 368.3792115 188.55701317 370.66723633 190.99316406 C376.73277147 197.45497505 382.46267674 204.07605018 388 211 C388.98128222 212.19158109 389.96448045 213.38158596 390.94921875 214.5703125 C409.97727231 237.60227679 426.80772821 262.28611045 442 288 C442.4522998 288.75651855 442.90459961 289.51303711 443.37060547 290.29248047 C482.69546388 356.26160254 508.03454166 430.98847232 522 542 C522.09571289 543.11141357 522.19142578 544.22282715 522.29003906 545.36791992 C523.32951621 559.28443253 523.24581779 573.23949679 523.25 587.1875 C523.25044186 587.86325829 523.25088371 588.53901657 523.25133896 589.23525238 C523.25899565 611.6101021 522.7063436 633.7715286 520 656 C519.91278687 656.72479553 519.82557373 657.44959106 519.73571777 658.1963501 C511.2726728 727.92051605 491.27007547 795.42951717 459.06298828 857.93164062 C458.31415915 859.38871008 457.57084715 860.84862151 456.83154297 862.31054688 C433.44639407 908.54748303 402.90298836 951.11872411 367.6953125 989.0859375 C365.92799818 990.99668602 364.17230485 992.91826362 362.4296875 994.8515625 C357.03758867 1000.82311076 351.49113253 1006.61214556 345.8125 1012.3125 C345.15934814 1012.97024414 344.50619629 1013.62798828 343.83325195 1014.30566406 C339.97143455 1018.15532362 335.99577257 1021.81378768 331.8684082 1025.37670898 C329.25100077 1027.65073774 326.72466465 1030.01171097 324.1875 1032.375 C318.64340173 1037.49000206 312.89094098 1042.28724722 307 1047 C305.88094186 1047.91076019 304.76248112 1048.82225476 303.64453125 1049.734375 C287.12617156 1063.15765407 269.8756242 1075.45241335 252 1087 C251.17338867 1087.53447754 250.34677734 1088.06895508 249.49511719 1088.61962891 C215.24729989 1110.61481935 178.90336528 1128.30627318 141 1143 C139.95553711 1143.41056641 138.91107422 1143.82113281 137.83496094 1144.24414062 C56.37802149 1176.04675017 -34.83826622 1186.41616373 -304.34863281 1132.62695312 C-315.37581704 1127.71353004 -326.20852887 1122.40828744 -337 1117 C-338.02319336 1116.48969238 -339.04638672 1115.97938477 -340.10058594 1115.45361328 C-361.96470736 1104.49264133 -382.87760779 1091.89291331 -403 1078 C-403.69996094 1077.51998535 -404.39992188 1077.0399707 -405.12109375 1076.54541016 C-422.97753965 1064.27115136 -439.9645703 1050.82936129 -456.375 1036.6875 C-456.93920654 1036.20273193 -457.50341309 1035.71796387 -458.0847168 1035.21850586 C-469.13975252 1025.62761121 -479.65834421 1015.50695503 -489.98632812 1005.14404297 C-491.89078505 1003.23417006 -493.80060819 1001.32977851 -495.7109375 999.42578125 C-501.68589843 993.45440888 -507.56899646 987.47810252 -513 981 C-513.94904683 979.90497076 -514.89953928 978.81119254 -515.8515625 977.71875 C-527.69840297 964.00202299 -538.96218526 950.01010771 -549.43115234 935.20849609 C-550.92613004 933.10398812 -552.438433 931.01328342 -553.95703125 928.92578125 C-571.12870056 905.18788178 -586.2335767 879.64184327 -598.92041016 853.23291016 C-600.18398836 850.61945781 -601.47345107 848.01933714 -602.76171875 845.41796875 C-636.0116812 777.83257326 -655.19308148 703.1404838 -660 628 C-660.05639648 627.16774902 -660.11279297 626.33549805 -660.17089844 625.47802734 C-665.86153501 538.28333264 -651.17788769 450.52272824 -603 332 C-602.49742676 330.95102539 -601.99485352 329.90205078 -601.47705078 328.82128906 C-581.61669605 287.61523053 -556.60025943 248.95027727 -527.42382812 213.72802734 C-526.13936123 212.1691356 -524.87321063 210.59519561 -523.609375 209.01953125 C-519.0925728 203.38977599 -514.35873302 198.02711457 -509.42358398 192.76489258 C-506.8730099 190.04465724 -504.39051288 187.29226064 -501.97265625 184.453125 C-497.04343294 178.7922201 -491.69008167 173.54099047 -486.37573242 168.24536133 C-484.56639067 166.44137915 -482.76245681 164.63211335 -480.95898438 162.82226562 C-475.14155338 157.00112792 -469.29455483 151.30956619 -463 146 C-461.83146825 144.97869252 -460.66479168 143.95525845 -459.5 142.9296875 C-391.64099776 83.58673985 -310.38803975 39.63961159 -138 0 C-136.80487793 -0.14953125 -135.60975586 -0.2990625 -134.37841797 -0.453125 C-90.64869424 -5.72683307 -43.67889403 -5.63383983 0 0 Z " fill="#E76CA5" transform="translate(661,3)"/>
<path d="M0 0 C1.55956997 1.33350852 3.10245596 2.6868681 4.625 4.0625 C5.29789063 4.65417969 5.97078125 5.24585938 6.6640625 5.85546875 C25.23578572 23.20634164 36.32046646 50.06577235 37.81396484 75.2487793 C37.89151153 78.50203566 37.9031786 81.74597421 37.875 85 C37.86750732 86.145896 37.86001465 87.29179199 37.85229492 88.47241211 C37.75419277 96.16329234 37.46122317 103.56378756 35.625 111.0625 C35.47434082 111.69349609 35.32368164 112.32449219 35.16845703 112.97460938 C31.48064297 128.00927113 25.21683881 141.84064087 15.625 154.0625 C15.10679687 154.74441406 14.58859375 155.42632813 14.0546875 156.12890625 C4.35478937 168.10148582 -11.09273506 177.48689631 -26.375 180.0625 C-29.63096863 180.34597131 -32.85789866 180.39631672 -36.125 180.375 C-37.00462402 180.37081055 -37.88424805 180.36662109 -38.79052734 180.36230469 C-45.66912528 180.24338098 -51.85342959 179.33173025 -58.375 177.0625 C-59.19613281 176.80726563 -60.01726563 176.55203125 -60.86328125 176.2890625 C-81.72132337 169.03698406 -96.79570139 150.55529442 -106.28100586 131.40014648 C-109.72663965 124.17758581 -112.28881899 116.78558426 -114.375 109.0625 C-114.58898437 108.31355469 -114.80296875 107.56460938 -115.0234375 106.79296875 C-122.33724792 79.92266525 -117.95646773 48.26776673 -104.29492188 24.15625 C-93.43808114 5.72794294 -78.2922046 -8.01649235 -57.375 -13.9375 C-36.68011513 -17.57848429 -16.67083624 -12.9351458 0 0 Z " fill="#00A1E9" transform="translate(807.375,472.9375)"/>
<path d="M0 0 C20.6312244 16.59253582 30.74184159 41.90380154 33.79394531 67.59912109 C36.99441298 98.15878946 29.04029778 131.61710768 9.73535156 155.91943359 C8.2810579 157.54618332 6.8021124 159.15127422 5.29785156 160.73193359 C4.53085937 161.58787109 3.76386719 162.44380859 2.97363281 163.32568359 C-10.19594691 177.40716658 -27.77206071 185.38094737 -46.95214844 186.10693359 C-63.99585425 185.7636362 -79.03417234 178.4463147 -90.98730469 166.60302734 C-110.08374823 146.40750791 -118.33167019 117.68721178 -118.05126953 90.33227539 C-117.27869356 63.05824119 -109.0281658 35.41523949 -90.70214844 14.73193359 C-90.16332031 14.05130859 -89.62449219 13.37068359 -89.06933594 12.66943359 C-67.25759984 -14.30546709 -27.95716864 -20.82752925 0 0 Z " fill="#00A1E9" transform="translate(493.7021484375,458.26806640625)"/>
<path d="M0 0 C4.53632322 3.32218966 8.60317212 7.05726222 12.65625 10.9453125 C13.40648437 11.63238281 14.15671875 12.31945312 14.9296875 13.02734375 C26.01490198 23.50967815 33.46724413 36.14536387 39.65625 49.9453125 C39.93452637 50.56519043 40.21280273 51.18506836 40.49951172 51.82373047 C59.00832208 93.83437366 58.15528435 142.37234945 41.7734375 184.91015625 C30.07424999 214.25235639 9.807507 242.71499886 -20.01049805 255.5534668 C-40.28881738 263.75619713 -61.77839651 264.79072916 -82.21484375 256.35546875 C-91.2701711 252.27435368 -98.76143825 247.34456851 -106.34375 240.9453125 C-107.354375 240.1821875 -108.365 239.4190625 -109.40625 238.6328125 C-113.92225071 234.50115228 -117.58708724 229.76433645 -121.34375 224.9453125 C-122.02824219 224.08808594 -122.71273438 223.23085938 -123.41796875 222.34765625 C-134.76541554 207.56699373 -141.51861163 189.73889393 -146.09375 171.8203125 C-146.29250732 171.0459082 -146.49126465 170.27150391 -146.69604492 169.47363281 C-149.86389377 156.41117849 -150.69252162 143.68599674 -150.65942383 130.3059082 C-150.6562667 127.64687926 -150.67980675 124.98897041 -150.70507812 122.33007812 C-150.74650379 111.21144348 -149.72004268 100.80432465 -147.34375 89.9453125 C-147.13967529 89.00631104 -146.93560059 88.06730957 -146.7253418 87.09985352 C-146.20382511 84.84634403 -145.63737171 82.61490821 -145.03125 80.3828125 C-144.81742676 79.59382568 -144.60360352 78.80483887 -144.38330078 77.99194336 C-138.62712281 57.31334155 -129.30633814 38.35747751 -115.34375 21.9453125 C-114.56644531 21.00558594 -113.78914063 20.06585938 -112.98828125 19.09765625 C-84.06524484 -14.44929136 -38.06204286 -25.26532155 0 0 Z M-87.70532227 67.84350586 C-107.12867929 92.00060173 -115.8788852 124.20823212 -113.34375 154.9453125 C-110.15133056 182.20550669 -100.96115457 206.57939134 -79.96875 224.8828125 C-66.31836223 235.46526105 -50.49675206 239.34505996 -33.5 237.6640625 C-12.77056861 234.56656126 3.98204413 220.96467763 16.65625 204.9453125 C19.69152677 200.47722603 22.19005571 195.74424901 24.65625 190.9453125 C25.18992187 189.94113281 25.72359375 188.93695312 26.2734375 187.90234375 C40.49449144 159.42339375 42.85282152 124.78490227 32.96875 94.5703125 C25.92168978 74.42733656 13.58659825 55.78223845 -5.95019531 45.93725586 C-35.99243652 31.66231673 -67.1894524 43.58208781 -87.70532227 67.84350586 Z " fill="#FEFEFE" transform="translate(489.34375,406.0546875)"/>
<path d="M0 0 C6.79458754 5.69038864 12.59522509 11.69042623 17.85083008 18.86254883 C18.97231445 20.39008789 18.97231445 20.39008789 20.11645508 21.94848633 C46.34864945 58.79847366 56.48488679 105.42791804 49.53442383 150.19848633 C49.30883789 151.40762695 49.08325195 152.61676758 48.85083008 153.86254883 C48.72724121 154.55251953 48.60365234 155.24249023 48.47631836 155.95336914 C42.63268433 187.84190298 27.5732766 217.47809381 1.85083008 237.86254883 C-17.5954336 251.26322238 -39.67644381 255.7703733 -62.83666992 251.80004883 C-81.1273947 247.56699627 -95.70492467 237.72529558 -109.14916992 224.86254883 C-109.81174805 224.26313477 -110.47432617 223.6637207 -111.15698242 223.04614258 C-134.37768614 201.28260853 -148.09629561 166.9127956 -152.14916992 135.86254883 C-152.2477832 135.20158203 -152.34639648 134.54061523 -152.44799805 133.85961914 C-157.25708268 101.60245714 -154.35558294 66.1709985 -139.14916992 36.86254883 C-138.56393555 35.6843457 -137.97870117 34.50614258 -137.37573242 33.29223633 C-133.0879209 24.81489813 -128.16806052 17.24985505 -122.14916992 9.86254883 C-121.53686523 9.08524414 -120.92456055 8.30793945 -120.29370117 7.50708008 C-88.52837379 -30.76031858 -36.6641244 -30.02933469 0 0 Z M-115.29370117 52.19067383 C-136.10078856 76.43607038 -142.21716881 105.58378196 -140.14916992 136.86254883 C-137.20297399 162.10180366 -127.46052766 186.01937921 -109.14916992 203.86254883 C-107.91166992 205.09618164 -107.91166992 205.09618164 -106.64916992 206.35473633 C-91.6028756 220.67765111 -74.47304622 225.44674501 -54.20385742 225.13598633 C-36.60089599 224.47579357 -20.82442297 213.93096586 -8.93823242 201.56176758 C1.4112315 189.39194341 7.5605316 175.09763405 11.85083008 159.86254883 C12.03790527 159.20512695 12.22498047 158.54770508 12.41772461 157.87036133 C20.14609343 129.08983052 14.26184725 96.68042516 -0.17260742 71.02270508 C-12.7627502 50.89340565 -29.59322197 36.1951287 -53.02416992 30.55004883 C-76.3385275 26.56306585 -99.31718467 34.84640455 -115.29370117 52.19067383 Z " fill="#FEFEFE" transform="translate(830.149169921875,428.137451171875)"/>
<path d="M0 0 C3.31609475 2.10019334 6.2282057 4.4564114 8 8 C10.08338716 19.2116299 4.15393307 28.65930481 -1.7734375 37.70703125 C-3.42097196 39.91534623 -5.147639 41.96121295 -7 44 C-7.65355469 44.74507812 -8.30710937 45.49015625 -8.98046875 46.2578125 C-22.58580628 60.87921349 -41.51716741 67.51107508 -61.14453125 68.21875 C-82.74880639 68.71141033 -102.72496407 64.58106063 -118.93847656 49.15576172 C-121.60378799 46.49498975 -124.23960652 43.81537237 -126.80004883 41.05322266 C-130.2596391 37.39401341 -132.84475794 34.89076972 -138 34 C-140.66448256 33.80782728 -140.66448256 33.80782728 -143 35 C-145.05398515 37.75378503 -145.05398515 37.75378503 -146.75 41.25 C-147.44215572 42.53366425 -148.13889762 43.81486456 -148.83984375 45.09375 C-149.19546387 45.74601563 -149.55108398 46.39828125 -149.91748047 47.0703125 C-159.57734707 64.28988525 -173.51171521 76.67410632 -192.5078125 82.55957031 C-206.62370408 86.35437921 -221.93108735 85.20294549 -234.91796875 78.4921875 C-246.4832185 71.63279799 -257.85237022 60.28501835 -261.890625 47.08984375 C-262.60073559 41.97241635 -262.07380474 38.30332664 -259 34 C-255.50164879 30.19297074 -252.2798616 29.22073678 -247.265625 28.921875 C-243.58609562 29.04875532 -240.85915208 29.72597671 -238 32 C-236.08124752 34.36617458 -234.41159644 36.8219675 -232.73828125 39.3671875 C-227.80258561 46.84282539 -222.68783065 52.15195928 -214 55 C-205.12488027 56.73242337 -197.25002012 53.09456041 -189.70703125 48.6484375 C-181.90822292 43.24810214 -177.3462751 35.85717114 -173.125 27.5625 C-167.82647349 17.26180524 -161.35727521 8.7975337 -150 5 C-140.09577798 2.31725502 -127.78071618 4.86719588 -118.5625 9.125 C-112.26638823 12.87223269 -107.31858116 18.40084525 -102.36352539 23.73095703 C-92.31295841 34.37020519 -81.89637869 38.44225447 -67.33203125 39.0234375 C-53.79555537 39.18795915 -40.53627784 35.30076404 -30.3125 26.1875 C-25.80679953 21.41194814 -22.9803584 15.8248485 -20.1809082 9.94018555 C-18.05833652 5.55905014 -16.22146037 2.7030964 -12 0 C-7.78922844 -1.40359052 -4.27195544 -1.17408047 0 0 Z " fill="#000000" transform="translate(756,714)"/>
</svg>
