<?xml version="1.0" encoding="UTF-8"?>
<svg version="1.1" xmlns="http://www.w3.org/2000/svg" width="544" height="407">
    <path
        d="M0 0 C31.91886814 30.35801371 46.77938195 73.18116057 48.24609375 116.62109375 C48.75776537 153.1280018 40.11784793 190.19014188 16.24609375 218.62109375 C15.60414063 219.40871094 14.9621875 220.19632813 14.30078125 221.0078125 C-0.23307881 238.08912036 -20.06168907 249.56176085 -42.62890625 251.49609375 C-43.68078125 251.55796875 -43.68078125 251.55796875 -44.75390625 251.62109375 C-45.43453125 251.66234375 -46.11515625 251.70359375 -46.81640625 251.74609375 C-68.8718606 252.39478358 -89.21767976 243.76471604 -105.75390625 229.62109375 C-106.54023438 228.96753906 -107.3265625 228.31398438 -108.13671875 227.640625 C-138.22658508 201.74824786 -154.17005206 161.17177942 -157.59057617 122.27929688 C-159.53810548 90.58318456 -155.81378875 60.29605988 -141.75390625 31.62109375 C-140.93792969 29.92919922 -140.93792969 29.92919922 -140.10546875 28.203125 C-127.9800056 4.37915164 -108.20879681 -13.96284614 -82.75390625 -22.37890625 C-79.75938036 -23.28092704 -76.84891414 -23.93997786 -73.75390625 -24.37890625 C-72.53574219 -24.56066406 -72.53574219 -24.56066406 -71.29296875 -24.74609375 C-44.8622136 -27.92398513 -19.36103602 -17.78014 0 0 Z "
        fill="#00A1E9" transform="translate(495.75390625,38.37890625)" />
    <path
        d="M0 0 C10.8183285 8.57853924 19.21442004 18.18067335 26.6875 29.6875 C27.38746094 30.76515625 28.08742187 31.8428125 28.80859375 32.953125 C38.62969994 49.11104629 44.09345286 67.23293284 47.6875 85.6875 C48.05681641 87.56115234 48.05681641 87.56115234 48.43359375 89.47265625 C51.71366121 110.26149758 50.90295992 133.11638753 46.6875 153.6875 C46.52121094 154.51217773 46.35492188 155.33685547 46.18359375 156.18652344 C38.8603792 191.24302273 20.79203265 225.3893705 -9.40234375 245.7734375 C-16.41179635 250.25748685 -23.44183059 253.96779225 -31.3125 256.6875 C-32.69695312 257.16703125 -32.69695312 257.16703125 -34.109375 257.65625 C-54.9792114 263.6190604 -76.81891696 259.93901712 -95.59765625 249.80859375 C-111.0903304 241.1158538 -122.93525086 228.63191282 -132.3125 213.6875 C-133.21548828 212.31078125 -133.21548828 212.31078125 -134.13671875 210.90625 C-156.46348577 175.18342276 -160.56804249 127.22193722 -151.67822266 86.80371094 C-148.88734071 75.05158949 -145.29574313 63.70118952 -140.3125 52.6875 C-140.02149414 52.04119629 -139.73048828 51.39489258 -139.43066406 50.72900391 C-132.86224354 36.33755978 -124.2683442 24.10790297 -113.3125 12.6875 C-112.58289063 11.90632813 -111.85328125 11.12515625 -111.1015625 10.3203125 C-81.21029208 -20.82953772 -34.7616565 -24.9961396 0 0 Z "
        fill="#00A1E9" transform="translate(155.3125,16.3125)" />
</svg>