<?xml version="1.0" encoding="UTF-8"?>
<svg version="1.1" xmlns="http://www.w3.org/2000/svg" width="544" height="407">
<path d="M0 0 C31.91886814 30.35801371 46.77938195 73.18116057 48.24609375 116.62109375 C48.75776537 153.1280018 40.11784793 190.19014188 16.24609375 218.62109375 C15.60414063 219.40871094 14.9621875 220.19632813 14.30078125 221.0078125 C-0.23307881 238.08912036 -20.06168907 249.56176085 -42.62890625 251.49609375 C-43.68078125 251.55796875 -43.68078125 251.55796875 -44.75390625 251.62109375 C-45.43453125 251.66234375 -46.11515625 251.70359375 -46.81640625 251.74609375 C-68.8718606 252.39478358 -89.21767976 243.76471604 -105.75390625 229.62109375 C-106.54023438 228.96753906 -107.3265625 228.31398438 -108.13671875 227.640625 C-138.22658508 201.74824786 -154.17005206 161.17177942 -157.59057617 122.27929688 C-159.53810548 90.58318456 -155.81378875 60.29605988 -141.75390625 31.62109375 C-140.93792969 29.92919922 -140.93792969 29.92919922 -140.10546875 28.203125 C-127.9800056 4.37915164 -108.20879681 -13.96284614 -82.75390625 -22.37890625 C-79.75938036 -23.28092704 -76.84891414 -23.93997786 -73.75390625 -24.37890625 C-72.53574219 -24.56066406 -72.53574219 -24.56066406 -71.29296875 -24.74609375 C-44.8622136 -27.92398513 -19.36103602 -17.78014 0 0 Z " fill="#00A1E9" transform="translate(495.75390625,38.37890625)"/>
<path d="M0 0 C10.8183285 8.57853924 19.21442004 18.18067335 26.6875 29.6875 C27.38746094 30.76515625 28.08742187 31.8428125 28.80859375 32.953125 C38.62969994 49.11104629 44.09345286 67.23293284 47.6875 85.6875 C48.05681641 87.56115234 48.05681641 87.56115234 48.43359375 89.47265625 C51.71366121 110.26149758 50.90295992 133.11638753 46.6875 153.6875 C46.52121094 154.51217773 46.35492188 155.33685547 46.18359375 156.18652344 C38.8603792 191.24302273 20.79203265 225.3893705 -9.40234375 245.7734375 C-16.41179635 250.25748685 -23.44183059 253.96779225 -31.3125 256.6875 C-32.69695312 257.16703125 -32.69695312 257.16703125 -34.109375 257.65625 C-54.9792114 263.6190604 -76.81891696 259.93901712 -95.59765625 249.80859375 C-111.0903304 241.1158538 -122.93525086 228.63191282 -132.3125 213.6875 C-133.21548828 212.31078125 -133.21548828 212.31078125 -134.13671875 210.90625 C-156.46348577 175.18342276 -160.56804249 127.22193722 -151.67822266 86.80371094 C-148.88734071 75.05158949 -145.29574313 63.70118952 -140.3125 52.6875 C-140.02149414 52.04119629 -139.73048828 51.39489258 -139.43066406 50.72900391 C-132.86224354 36.33755978 -124.2683442 24.10790297 -113.3125 12.6875 C-112.58289063 11.90632813 -111.85328125 11.12515625 -111.1015625 10.3203125 C-81.21029208 -20.82953772 -34.7616565 -24.9961396 0 0 Z " fill="#00A1E9" transform="translate(155.3125,16.3125)"/>
<path d="M0 0 C10.8183285 8.57853924 19.21442004 18.18067335 26.6875 29.6875 C27.38746094 30.76515625 28.08742187 31.8428125 28.80859375 32.953125 C38.62969994 49.11104629 44.09345286 67.23293284 47.6875 85.6875 C48.05681641 87.56115234 48.05681641 87.56115234 48.43359375 89.47265625 C51.71366121 110.26149758 50.90295992 133.11638753 46.6875 153.6875 C46.52121094 154.51217773 46.35492188 155.33685547 46.18359375 156.18652344 C38.8603792 191.24302273 20.79203265 225.3893705 -9.40234375 245.7734375 C-16.41179635 250.25748685 -23.44183059 253.96779225 -31.3125 256.6875 C-32.69695312 257.16703125 -32.69695312 257.16703125 -34.109375 257.65625 C-54.9792114 263.6190604 -76.81891696 259.93901712 -95.59765625 249.80859375 C-111.0903304 241.1158538 -122.93525086 228.63191282 -132.3125 213.6875 C-133.21548828 212.31078125 -133.21548828 212.31078125 -134.13671875 210.90625 C-156.46348577 175.18342276 -160.56804249 127.22193722 -151.67822266 86.80371094 C-148.88734071 75.05158949 -145.29574313 63.70118952 -140.3125 52.6875 C-140.02149414 52.04119629 -139.73048828 51.39489258 -139.43066406 50.72900391 C-132.86224354 36.33755978 -124.2683442 24.10790297 -113.3125 12.6875 C-112.58289063 11.90632813 -111.85328125 11.12515625 -111.1015625 10.3203125 C-81.21029208 -20.82953772 -34.7616565 -24.9961396 0 0 Z M-91.67407227 65.58569336 C-111.09742929 89.74278923 -119.8476352 121.95041962 -117.3125 152.6875 C-114.12008056 179.94769419 -104.92990457 204.32157884 -83.9375 222.625 C-70.28711223 233.20744855 -54.46550206 237.08724746 -37.46875 235.40625 C-16.73931861 232.30874876 0.01329413 218.70686513 12.6875 202.6875 C15.72277677 198.21941353 18.22130571 193.48643651 20.6875 188.6875 C21.22117188 187.68332031 21.75484375 186.67914063 22.3046875 185.64453125 C36.52574144 157.16558125 38.88407152 122.52708977 29 92.3125 C21.95293978 72.16952406 9.61784825 53.52442595 -9.91894531 43.67944336 C-39.96118652 29.40450423 -71.1582024 41.32427531 -91.67407227 65.58569336 Z " fill="#FEFEFE" transform="translate(155.3125,16.3125)"/>
<path d="M0 0 C31.91886814 30.35801371 46.77938195 73.18116057 48.24609375 116.62109375 C48.75776537 153.1280018 40.11784793 190.19014188 16.24609375 218.62109375 C15.60414063 219.40871094 14.9621875 220.19632813 14.30078125 221.0078125 C-0.23307881 238.08912036 -20.06168907 249.56176085 -42.62890625 251.49609375 C-43.68078125 251.55796875 -43.68078125 251.55796875 -44.75390625 251.62109375 C-45.43453125 251.66234375 -46.11515625 251.70359375 -46.81640625 251.74609375 C-68.8718606 252.39478358 -89.21767976 243.76471604 -105.75390625 229.62109375 C-106.54023438 228.96753906 -107.3265625 228.31398438 -108.13671875 227.640625 C-138.22658508 201.74824786 -154.17005206 161.17177942 -157.59057617 122.27929688 C-159.53810548 90.58318456 -155.81378875 60.29605988 -141.75390625 31.62109375 C-140.93792969 29.92919922 -140.93792969 29.92919922 -140.10546875 28.203125 C-127.9800056 4.37915164 -108.20879681 -13.96284614 -82.75390625 -22.37890625 C-79.75938036 -23.28092704 -76.84891414 -23.93997786 -73.75390625 -24.37890625 C-72.53574219 -24.56066406 -72.53574219 -24.56066406 -71.29296875 -24.74609375 C-44.8622136 -27.92398513 -19.36103602 -17.78014 0 0 Z M-118.8984375 49.94921875 C-139.70552489 74.1946153 -145.82190513 103.34232688 -143.75390625 134.62109375 C-140.80771031 159.86034858 -131.06526399 183.77792413 -112.75390625 201.62109375 C-111.51640625 202.85472656 -111.51640625 202.85472656 -110.25390625 204.11328125 C-95.20761193 218.43619603 -78.07778255 223.20528993 -57.80859375 222.89453125 C-40.20563232 222.23433849 -24.42915929 211.68951079 -12.54296875 199.3203125 C-2.19350483 187.15048833 3.95579527 172.85617897 8.24609375 157.62109375 C8.43316895 156.96367187 8.62024414 156.30625 8.81298828 155.62890625 C16.5413571 126.84837544 10.65711092 94.43897008 -3.77734375 68.78125 C-16.36748653 48.65195057 -33.1979583 33.95367362 -56.62890625 28.30859375 C-79.94326383 24.32161078 -102.921921 32.60494947 -118.8984375 49.94921875 Z " fill="#FEFEFE" transform="translate(495.75390625,38.37890625)"/>
<path d="M0 0 C4.72403852 1.9512333 7.72471109 5.44942218 10 10 C11.22074901 22.61440641 4.53335474 33.32321155 -3 43 C-16.94418451 59.66436672 -35.56467691 67.70730436 -57 70 C-78.1760183 71.61558415 -98.84593967 67.53785877 -115.40673828 53.44091797 C-119.1704252 50.03710549 -122.71604881 46.39118286 -126.19335938 42.69726562 C-130.07346927 38.63647541 -132.94375937 36.45344816 -138.6328125 35.609375 C-141.12260667 35.76373185 -141.12260667 35.76373185 -142.5546875 37.765625 C-142.99039063 38.58546875 -143.42609375 39.4053125 -143.875 40.25 C-144.38417969 41.16523438 -144.89335937 42.08046875 -145.41796875 43.0234375 C-145.94003906 44.00570312 -146.46210938 44.98796875 -147 46 C-156.6945566 64.21697537 -170.22673608 76.7685919 -189.796875 84.0390625 C-204.93991196 88.51504304 -220.65142155 86.85499232 -234.6875 79.8125 C-246.83611092 72.51443337 -258.21537096 60.3959484 -261.9375 46.5 C-262.03737033 40.90726146 -260.61285346 36.80260092 -256.875 32.625 C-252.39795212 30.09449468 -247.96494469 28.49888259 -242.78125 29.375 C-238.12093145 30.90525385 -235.73119964 32.85914894 -233 37 C-225.51670052 48.3578839 -225.51670052 48.3578839 -214 55 C-204.10545606 56.32543735 -195.29742099 53.64459166 -187.25 47.875 C-180.71703725 42.37294803 -176.73672411 35.40884738 -172.71459961 27.99291992 C-166.98452518 17.45924846 -161.08015621 9.23614559 -149.19921875 5.421875 C-137.11344537 3.10346732 -124.41905589 5.21239482 -114.0625 11.875 C-109.62508108 15.20126036 -105.85863019 19.10168862 -102 23.0625 C-91.75388149 33.55828962 -81.64397219 38.93510376 -66.6875 39.375 C-52.04784869 38.97126861 -38.55925112 35.74549542 -28.23046875 24.94140625 C-24.93442444 20.59478389 -22.52031516 15.85873161 -20.18139648 10.94042969 C-15.65919016 1.60960003 -10.09687007 -0.87729519 0 0 Z " fill="#000000" transform="translate(417,321)"/>
</svg>
