<?xml version="1.0" encoding="UTF-8"?>
<svg version="1.1" xmlns="http://www.w3.org/2000/svg" width="544" height="407">
    <path
        d="M0 0 C4.72403852 1.9512333 7.72471109 5.44942218 10 10 C11.22074901 22.61440641 4.53335474 33.32321155 -3 43 C-16.94418451 59.66436672 -35.56467691 67.70730436 -57 70 C-78.1760183 71.61558415 -98.84593967 67.53785877 -115.40673828 53.44091797 C-119.1704252 50.03710549 -122.71604881 46.39118286 -126.19335938 42.69726562 C-130.07346927 38.63647541 -132.94375937 36.45344816 -138.6328125 35.609375 C-141.12260667 35.76373185 -141.12260667 35.76373185 -142.5546875 37.765625 C-142.99039063 38.58546875 -143.42609375 39.4053125 -143.875 40.25 C-144.38417969 41.16523438 -144.89335937 42.08046875 -145.41796875 43.0234375 C-145.94003906 44.00570312 -146.46210938 44.98796875 -147 46 C-156.6945566 64.21697537 -170.22673608 76.7685919 -189.796875 84.0390625 C-204.93991196 88.51504304 -220.65142155 86.85499232 -234.6875 79.8125 C-246.83611092 72.51443337 -258.21537096 60.3959484 -261.9375 46.5 C-262.03737033 40.90726146 -260.61285346 36.80260092 -256.875 32.625 C-252.39795212 30.09449468 -247.96494469 28.49888259 -242.78125 29.375 C-238.12093145 30.90525385 -235.73119964 32.85914894 -233 37 C-225.51670052 48.3578839 -225.51670052 48.3578839 -214 55 C-204.10545606 56.32543735 -195.29742099 53.64459166 -187.25 47.875 C-180.71703725 42.37294803 -176.73672411 35.40884738 -172.71459961 27.99291992 C-166.98452518 17.45924846 -161.08015621 9.23614559 -149.19921875 5.421875 C-137.11344537 3.10346732 -124.41905589 5.21239482 -114.0625 11.875 C-109.62508108 15.20126036 -105.85863019 19.10168862 -102 23.0625 C-91.75388149 33.55828962 -81.64397219 38.93510376 -66.6875 39.375 C-52.04784869 38.97126861 -38.55925112 35.74549542 -28.23046875 24.94140625 C-24.93442444 20.59478389 -22.52031516 15.85873161 -20.18139648 10.94042969 C-15.65919016 1.60960003 -10.09687007 -0.87729519 0 0 Z "
        fill="#000000" transform="translate(417,321)" />
</svg>