<?xml version="1.0" encoding="UTF-8"?>
<svg version="1.1" xmlns="http://www.w3.org/2000/svg" width="1184" height="1184">
<path d="M0 0 C2.08243882 0.25929199 4.16603864 0.5071713 6.25 0.75390625 C89.86737557 10.79164183 171.3364881 39.17633443 266.0078125 98.25 C266.66910156 98.70552246 267.33039062 99.16104492 268.01171875 99.63037109 C282.82786855 109.86666898 297.19957247 120.68585169 311.0078125 132.25 C311.76457275 132.87938477 311.76457275 132.87938477 312.53662109 133.52148438 C320.06338181 139.78426128 327.37241561 146.23791473 334.54589844 152.90136719 C335.96293473 154.20859974 337.39531587 155.49913739 338.828125 156.7890625 C344.9890003 162.34560125 350.94309327 168.08126402 356.8203125 173.9375 C357.87835083 174.9886499 357.87835083 174.9886499 358.95776367 176.06103516 C362.9326313 180.0476253 366.72591043 184.13596033 370.40209961 188.39916992 C372.66887651 191.01197754 375.02513426 193.53135894 377.3828125 196.0625 C382.49781456 201.60659827 387.29505972 207.35905902 392.0078125 213.25 C392.91857269 214.36905814 393.83006726 215.48751888 394.7421875 216.60546875 C408.16546657 233.12382844 420.46022585 250.3743758 432.0078125 268.25 C432.54229004 269.07661133 433.07676758 269.90322266 433.62744141 270.75488281 C476.59122413 337.65204312 506.0110343 414.04780823 523.0078125 528.25 C523.13526855 529.3848584 523.26272461 530.5197168 523.39404297 531.68896484 C531.65281464 608.91400216 522.87053432 689.15293766 500.0078125 763.25 C499.80369751 763.9134845 499.59958252 764.57696899 499.38928223 765.26055908 C477.07497861 837.51795193 440.68850535 905.26552134 392.43164062 963.52197266 C391.14717373 965.0808644 389.88102313 966.65480439 388.6171875 968.23046875 C384.1003853 973.86022401 379.36654552 979.22288543 374.43139648 984.48510742 C371.8808224 987.20534276 369.39832538 989.95773936 366.98046875 992.796875 C362.05124544 998.4577799 356.69789417 1003.70900953 351.38354492 1009.00463867 C349.57420317 1010.80862085 347.77026931 1012.61788665 345.96679688 1014.42773438 C340.14786072 1020.24997629 334.28743409 1025.92075553 328.0078125 1031.25 C326.4629999 1032.6632355 324.92085925 1034.07940409 323.3828125 1035.5 C318.34316436 1040.04722451 313.06010386 1044.2152243 307.69921875 1048.37109375 C304.63084786 1050.75165642 301.60962273 1053.184954 298.59643555 1055.63476562 C270.03282575 1078.78604357 238.48864255 1098.12649664 206.0078125 1115.25 C205.09112793 1115.73436523 204.17444336 1116.21873047 203.22998047 1116.71777344 C143.79837312 1147.87487944 78.39301977 1167.29978059 12.0078125 1176.25 C10.88745605 1176.40307617 9.76709961 1176.55615234 8.61279297 1176.71386719 C-73.30754048 1187.61697722 -157.81113323 1180.08505148 -370.9921875 1097.25 C-372.60264237 1096.29259487 -374.21330683 1095.33554216 -375.82421875 1094.37890625 C-398.85173876 1080.60892949 -420.61207619 1064.78102912 -441.26416016 1047.67382812 C-442.8230519 1046.38936123 -444.39699189 1045.12321063 -445.97265625 1043.859375 C-451.60241151 1039.3425728 -456.96507293 1034.60873302 -462.22729492 1029.67358398 C-464.95809253 1027.1131064 -467.7216734 1024.6204581 -470.5703125 1022.19140625 C-476.06906796 1017.40337429 -481.17598647 1012.21551186 -486.31958008 1007.05297852 C-488.0511345 1005.316064 -489.78797109 1003.58456111 -491.52539062 1001.85351562 C-497.22906911 996.15325894 -502.77094229 990.40119557 -507.9921875 984.25 C-509.44664267 982.64231627 -510.90439645 981.03760285 -512.3671875 979.4375 C-517.09794843 974.18819023 -521.56215802 968.75376055 -525.9921875 963.25 C-526.91757158 962.11686303 -527.84337143 960.98406551 -528.76953125 959.8515625 C-548.72337794 935.33873535 -566.48193718 908.77897313 -581.9921875 881.25 C-582.51586914 880.32219727 -583.03955078 879.39439453 -583.57910156 878.43847656 C-627.74250312 799.68443262 -656.84485229 707.54519843 -658.1953125 608.80078125 C-658.20237373 607.34666409 -658.20950643 605.89254727 -658.21670532 604.43843079 C-658.23625034 599.81311541 -658.24139751 595.18785279 -658.2421875 590.5625 C-658.24248207 589.77461845 -658.24277664 588.98673691 -658.24308014 588.17498016 C-658.24578581 543.4124616 -658.24578581 543.4124616 -655.27081299 521.32745361 C-654.96815548 519.07081533 -654.67889267 516.81265668 -654.39013672 514.55419922 C-651.27472015 490.48332093 -646.81728436 466.80948682 -640.9921875 443.25 C-640.68587402 442.00814941 -640.37956055 440.76629883 -640.06396484 439.48681641 C-632.3792539 408.94310036 -621.94751143 378.94983142 -608.9921875 350.25 C-608.51426758 349.1789502 -608.03634766 348.10790039 -607.54394531 347.00439453 C-585.6642196 298.07428941 -557.42107052 252.37171317 -522.9921875 211.25 C-522.57791504 210.75081055 -522.16364258 210.25162109 -521.73681641 209.73730469 C-515.2071294 201.87073619 -508.42676837 194.28809533 -501.44775391 186.81884766 C-499.16671954 184.36028898 -496.92816593 181.86331613 -494.6796875 179.375 C-486.24916603 170.17473527 -477.54369983 161.03293249 -468 152.9765625 C-465.86260074 151.13856547 -463.79560578 149.23217797 -461.73022461 147.31396484 C-456.63140054 142.58203773 -451.43564682 138.04055671 -446.01171875 133.6796875 C-443.7855159 131.88835739 -441.57730634 130.08261697 -439.37890625 128.2578125 C-371.61671039 72.19317022 -289.16302641 32.20574812 -137.08984375 0.5 C-135.0641363 0.2585749 -133.03990999 0.00694187 -131.015625 -0.24609375 C-88.38851962 -5.3732108 -42.6018001 -5.32522501 0 0 Z " fill="#EFCD3E" transform="translate(657.9921875,2.75)"/>
<path d="M0 0 C6.90561509 5.59101405 10.53349194 11.78021757 12.703125 20.37890625 C13.19307051 25.12474018 13.17482388 29.80016932 13.078125 34.56640625 C13.07619141 36.39461914 13.07619141 36.39461914 13.07421875 38.25976562 C12.94753261 51.23101896 12.94753261 51.23101896 10.703125 56.37890625 C7.88826727 58.29082055 5.85319449 59.2642482 2.703125 60.37890625 C1.6394873 60.77094238 0.57584961 61.16297852 -0.52001953 61.56689453 C-3.63374361 62.68011753 -6.75503499 63.74910517 -9.89379883 64.78833008 C-11.83477342 65.43323221 -13.76987396 66.09387419 -15.70507812 66.75585938 C-30.61868067 71.78330116 -44.79951544 73.81002199 -60.54882812 73.81835938 C-69.21907112 73.91560356 -69.21907112 73.91560356 -76.296875 78.37890625 C-77.4725 79.36890625 -77.4725 79.36890625 -78.671875 80.37890625 C-81.2847509 85.20267713 -81.02292611 90.02064903 -80.296875 95.37890625 C-78.34503607 99.35229263 -76.21020921 102.26359046 -72.296875 104.37890625 C-54.37387629 110.05452251 -32.99953689 105.43377163 -15.4609375 100.1484375 C-12.28096506 99.3750368 -9.55523335 99.2361685 -6.296875 99.37890625 C-9.91165361 105.35114916 -14.5473767 110.28905303 -19.296875 115.37890625 C-19.96460938 116.12398437 -20.63234375 116.8690625 -21.3203125 117.63671875 C-41.61054587 139.32627856 -74.6785075 152.5886218 -104.03125 153.76171875 C-144.17034078 154.47828184 -180.7546054 140.69098059 -210.03369141 113.04467773 C-229.25740759 94.26449033 -240.24468341 70.13509015 -240.58007812 43.25976562 C-240.58974609 42.04095703 -240.59941406 40.82214844 -240.609375 39.56640625 C-240.63837891 38.35919922 -240.66738281 37.15199219 -240.69726562 35.90820312 C-240.76861308 25.76040037 -238.8862671 16.36604819 -232.296875 8.37890625 C-228.56455883 5.0856861 -224.91540242 4.81399472 -220.109375 4.95703125 C-214.05187975 5.86565554 -208.61943824 8.74505864 -203.16796875 11.42578125 C-166.62916964 28.87287907 -109.40675518 34.74644128 -70.921875 21.81640625 C-59.30460016 17.63510717 -47.76964329 11.88896194 -37.859375 4.50390625 C-27.87669573 -2.77656501 -11.19705724 -6.98599006 0 0 Z " fill="#FEFEFE" transform="translate(729.296875,672.62109375)"/>
<path d="M0 0 C8.58 0 17.16 0 26 0 C26.0825 3.485625 26.165 6.97125 26.25 10.5625 C27.14378816 33.79282225 35.05525376 51.02924944 51.91796875 66.79296875 C66.37872872 78.69995213 84.60504931 83.3531077 103 82 C121.74051582 79.15803167 138.82878723 70.31163547 150.625 55.375 C155.0473701 49.3028338 158.16175754 42.93275618 161 36 C161.35964844 35.14535156 161.71929688 34.29070313 162.08984375 33.41015625 C164.95407355 25.82547907 165.1235283 18.10903312 165.0546875 10.1015625 C165.05073975 9.22411377 165.04679199 8.34666504 165.04272461 7.44262695 C165.03249115 5.2950618 165.01680045 3.14752382 165 1 C170.2103644 0.97504799 175.42069305 0.95702213 180.63110352 0.94506836 C182.39901334 0.94007836 184.16691911 0.93328399 185.93481445 0.92456055 C204.77081595 0.83402845 204.77081595 0.83402845 214 2 C218.44298676 34.7899767 213.91127379 66.35773619 193.5390625 93.3046875 C178.17758816 112.84184619 156.03535305 125.05433319 131.54199219 128.60302734 C113.66369091 130.60675755 95.33874252 129.86091906 78 125 C76.99525635 124.72712158 76.99525635 124.72712158 75.97021484 124.44873047 C48.26543058 116.71957226 23.45944401 99.11549352 8.78515625 74.23046875 C4.28211038 66.08163082 1.09163717 58.07247622 -1 49 C-1.20625 48.20851563 -1.4125 47.41703125 -1.625 46.6015625 C-5.11878126 31.21922001 -3.17730537 15.22458822 0 0 Z " fill="#FEFEFD" transform="translate(683,518)"/>
<path d="M0 0 C5.83495783 -0.02483449 11.66988446 -0.04292349 17.50488281 -0.05493164 C19.48731014 -0.05994103 21.46973382 -0.0667504 23.45214844 -0.07543945 C26.31185818 -0.08765429 29.1715188 -0.09326239 32.03125 -0.09765625 C32.90865845 -0.10281754 33.78606689 -0.10797882 34.69006348 -0.11329651 C39.88625006 -0.11376359 44.85717573 0.24783592 50 1 C49.97905273 1.58265625 49.95810547 2.1653125 49.93652344 2.765625 C49.22680633 25.62031254 53.02088929 45.8249996 68.52734375 63.5390625 C81.88124054 76.82967068 99.48001126 85.26000442 118.4375 85.5 C137.85385311 85.23302514 155.25091373 77.42807298 169.14453125 63.9140625 C182.35090747 49.92489916 187.64573802 32.47122169 188.5625 13.625 C188.62727539 12.37783203 188.62727539 12.37783203 188.69335938 11.10546875 C188.79861805 9.07046772 188.89973072 7.03525297 189 5 C197.72630608 4.90255986 206.33003296 4.83288905 215 6 C219.91421136 22.38070454 219.02524744 39.50400932 215 56 C214.80664062 56.87269531 214.61328125 57.74539063 214.4140625 58.64453125 C208.40752711 82.16362762 190.48341431 102.73933647 170 115 C165.06346332 117.670604 159.97622933 119.98383034 154.82421875 122.20410156 C153.34639822 122.84886801 151.88836922 123.5388698 150.4375 124.2421875 C126.47992325 135.27978536 95.61194738 133.4127601 71.30981445 124.60375977 C42.66206728 113.51313556 19.84379413 91.10934386 6.98583984 63.34326172 C2.15137759 51.85213525 -1.12051804 39.64487779 -1.1328125 27.1484375 C-1.13474609 25.25351562 -1.13474609 25.25351562 -1.13671875 23.3203125 C-1.13285156 22.01835938 -1.12898438 20.71640625 -1.125 19.375 C-1.12886719 18.0653125 -1.13273437 16.755625 -1.13671875 15.40625 C-1.13542969 14.14554688 -1.13414062 12.88484375 -1.1328125 11.5859375 C-1.13168457 10.4417334 -1.13055664 9.2975293 -1.12939453 8.11865234 C-1.01210025 5.29163895 -0.64706097 2.74824208 0 0 Z " fill="#FEFEFD" transform="translate(340,506)"/>
<path d="M0 0 C30.00337761 0.63801112 59.99660601 1.48913572 89.9909668 2.45935059 C95.43729277 2.6350989 100.88368889 2.80864724 106.33007812 2.98242188 C116.88678554 3.31955227 127.44341789 3.6589701 138 4 C141.66219941 14.98659822 138.27594076 27.33892448 135 38 C134.72285156 38.91523437 134.44570313 39.83046875 134.16015625 40.7734375 C127.95509242 58.44500177 113.62199135 71.09925475 97.33203125 79.3515625 C94.91215154 80.38583409 92.5165299 81.23106031 90 82 C89.0409375 82.29648437 88.081875 82.59296875 87.09375 82.8984375 C68.77065684 87.84204432 51.13807705 84.98116804 34.41796875 76.1015625 C17.14180837 65.88686613 5.89469508 49.62508196 0.625 30.375 C-1.6850555 21.18120557 -3.02795829 9.08387488 0 0 Z " fill="#E83528" transform="translate(390,507)"/>
<path d="M0 0 C13.95832355 -0.03049299 27.91664774 -0.05093761 41.875 -0.0625 C43.41422749 -0.06378403 43.41422749 -0.06378403 44.98455048 -0.06509399 C76.66884281 -0.08846085 108.32684121 0.08037778 140 1 C140.03227134 3.85686266 140.05572126 6.71335427 140.07421875 9.5703125 C140.0841687 10.37122314 140.09411865 11.17213379 140.10437012 11.99731445 C140.19447278 30.59640167 131.88515987 48.259362 119.359375 61.8046875 C108.68087947 71.74063864 96.20846998 78.02566682 82 81 C81.20980469 81.18433594 80.41960937 81.36867188 79.60546875 81.55859375 C62.1854071 84.50981859 44.66910009 79.43700564 30 70 C25.57391774 66.74592942 21.76051542 62.99098049 18 59 C17.25105469 58.20851563 16.50210938 57.41703125 15.73046875 56.6015625 C4.38262503 43.53960854 -0.21859014 27.61264098 -0.06640625 10.59765625 C-0.06161255 9.57740356 -0.05681885 8.55715088 -0.05187988 7.50598145 C-0.03943181 5.00391812 -0.02200199 2.5019945 0 0 Z " fill="#E83528" transform="translate(709,519)"/>
<path d="M0 0 C-0.6076245 11.54486547 -4.74449073 22.10994875 -10.0625 32.25 C-10.39064697 32.88180176 -10.71879395 33.51360352 -11.05688477 34.16455078 C-13.87557215 39.31795826 -16.31554274 41.57304113 -21.84375 43.28125 C-23.39230771 43.70073869 -24.94471732 44.10617576 -26.5 44.5 C-27.33442627 44.71358154 -28.16885254 44.92716309 -29.02856445 45.1472168 C-67.03328566 54.52869021 -67.03328566 54.52869021 -82 48 C-86.05009038 45.34163952 -89.21436155 42.57983196 -91 38 C-91.81665453 32.94107812 -92.17650898 28.05647323 -89.57421875 23.5078125 C-86.08051863 19.42310101 -82.86161612 16.25618228 -77.32470703 15.76049805 C-75.80659424 15.76110229 -75.80659424 15.76110229 -74.2578125 15.76171875 C-73.12085938 15.74955322 -71.98390625 15.7373877 -70.8125 15.72485352 C-69.595625 15.71252686 -68.37875 15.7002002 -67.125 15.6875 C-44.67045013 15.11207346 -25.2562529 8.71622244 -4.44824219 0.83862305 C-2 0 -2 0 0 0 Z " fill="#020101" transform="translate(739,730)"/>
</svg>
