<?xml version="1.0" encoding="UTF-8"?>
<svg version="1.1" xmlns="http://www.w3.org/2000/svg" width="561" height="321">
<path d="M0 0 C7.5237325 6.16579054 10.49493054 13.68712089 12.3515625 23.125 C12.46374051 24.51881176 12.54324867 25.91539777 12.6015625 27.3125 C12.653125 28.27027344 12.7046875 29.22804687 12.7578125 30.21484375 C13.39278319 52.88858883 7.60497004 74.61672831 -3.3984375 94.3125 C-3.94242188 95.29863281 -4.48640625 96.28476562 -5.046875 97.30078125 C-22.09580884 126.03447219 -52.90896524 142.94676679 -84.26171875 151.34765625 C-120.59867045 159.19935938 -158.2313439 150.47708571 -189.375 131.08154297 C-212.94811932 115.79970124 -233.36142567 92.87683906 -239.9375 65.02978516 C-243.35125382 48.70269472 -245.80017286 27.72146625 -237.0234375 12.6875 C-233.82488169 8.25507993 -231.12678129 5.75190944 -225.7109375 4.375 C-218.54970974 3.83857844 -212.40091808 6.63005766 -206.36328125 10.2109375 C-200.36015888 13.52246842 -194.42014248 15.30239786 -187.7734375 16.875 C-186.57702637 17.16528076 -185.38061523 17.45556152 -184.14794922 17.75463867 C-138.47088109 28.41457952 -90.8063559 34.15195444 -48.3984375 10.3125 C-45.99754301 8.77341957 -43.69044642 7.13340177 -41.3984375 5.4375 C-30.88628669 -2.18684558 -12.11500178 -7.68528747 0 0 Z " fill="#FEFEFE" transform="translate(392.3984375,167.6875)"/>
<path d="M0 0 C15.7916572 -0.03137585 31.58331564 -0.05124165 47.375 -0.0625 C49.16300774 -0.06378403 49.16300774 -0.06378403 50.98713684 -0.06509399 C89.91061387 -0.08971134 128.82856277 0.10371679 167.75 0.5 C168.92507866 0.51195782 170.10015732 0.52391563 171.31084442 0.53623581 C185.54066467 0.68184716 199.77037809 0.83617168 214 1 C214.33102218 2.88252822 214.65711761 4.76592308 214.98120117 6.6496582 C215.25440437 8.22273491 215.25440437 8.22273491 215.53312683 9.82759094 C216.23872406 14.62213297 216.3414207 19.34852159 216.3125 24.1875 C216.30512817 25.67842163 216.30512817 25.67842163 216.29760742 27.19946289 C215.83721241 56.54905448 204.69972221 83.97691968 183.78515625 104.70092773 C167.53729342 120.07800667 144.27533965 129.1996884 122 130 C120.87078125 130.0515625 119.7415625 130.103125 118.578125 130.15625 C85.51947141 130.95284406 50.72367749 120.64866256 26.45166016 97.52807617 C7.49689879 78.83252013 -2.80870149 55.82419433 -3.22924805 29.21582031 C-3.37423175 6.7484635 -3.37423175 6.7484635 0 0 Z " fill="#FEFEFE" transform="translate(345,13)"/>
<path d="M0 0 C11.40943694 -0.05707552 22.79480544 0.09820648 34.19873047 0.44311523 C35.84213157 0.49096272 37.48553897 0.53859393 39.12895203 0.58602905 C43.54084292 0.71400134 47.95263798 0.84503019 52.36441946 0.9767139 C57.02684269 1.11539559 61.68934496 1.25137104 66.35183716 1.38771057 C74.18740781 1.61722589 82.02292094 1.84862603 89.85839844 2.08129883 C98.84280008 2.34807757 107.82727006 2.61244125 116.81178558 2.87535518 C126.46829131 3.15794587 136.12474915 3.44214685 145.78119135 3.72689939 C148.51958686 3.80755985 151.2579901 3.8879533 153.99639511 3.96829033 C174.33433022 4.56557731 194.66883391 5.20005263 215 6 C222.51857792 27.92218863 218.60345365 54.30620947 209 75 C196.07058231 99.52225 173.8951273 118.20638286 147.50439453 126.81396484 C116.55407277 135.99469469 84.64734454 134.25738886 56.03515625 118.94873047 C30.06455336 104.24074897 9.81651166 79.46315995 1.78588867 50.61767578 C-0.82183179 40.78212872 -2.1964297 31.37405337 -2.1875 21.1875 C-2.18814453 20.4135791 -2.18878906 19.6396582 -2.18945312 18.84228516 C-2.13079 12.41467373 -1.31263454 6.29197288 0 0 Z " fill="#FEFEFE" transform="translate(2,0)"/>
<path d="M0 0 C27.21669754 -0.26286558 54.38882848 0.40582521 81.59179688 1.22680664 C87.54190869 1.40631128 93.49224644 1.57658001 99.44269753 1.74441433 C104.05964661 1.87558688 108.67645145 2.01135438 113.29322433 2.14857674 C115.49173241 2.21338025 117.69028299 2.27675799 119.88887405 2.33868217 C122.92168385 2.42479724 125.9542427 2.51706816 128.98681641 2.61108398 C129.89136063 2.63554092 130.79590485 2.65999786 131.7278595 2.68519592 C137.88570199 2.88570199 137.88570199 2.88570199 139 4 C140.30782202 26.811434 134.63495352 45.56315302 120.1328125 63.28125 C112.24495373 71.81232472 101.06175175 78.6200203 90 82 C89.0409375 82.29648438 88.081875 82.59296875 87.09375 82.8984375 C68.77065684 87.84204432 51.13807705 84.98116804 34.41796875 76.1015625 C17.09868085 65.86136657 5.84882462 49.5635357 0.625 30.25 C-1.8216031 20.41441568 -2.117769 9.91951487 0 0 Z " fill="#E83629" transform="translate(52,2)"/>
<path d="M0 0 C79.25635897 -0.19539496 79.25635897 -0.19539496 115.5625 0.4375 C117.38308426 0.4669722 117.38308426 0.4669722 119.240448 0.49703979 C122.59925312 0.55304051 125.95780699 0.61647434 129.31640625 0.68359375 C130.29779572 0.70031128 131.27918518 0.71702881 132.29031372 0.73425293 C133.16976654 0.75419312 134.04921936 0.7741333 134.95532227 0.79467773 C136.09989647 0.81799416 136.09989647 0.81799416 137.26759338 0.84178162 C139 1 139 1 140 2 C141.25905572 24.17875078 135.63931831 43.29760703 121.375 60.625 C110.89564949 71.9573209 96.92493304 78.87568587 82 82 C81.20980469 82.18433594 80.41960937 82.36867188 79.60546875 82.55859375 C62.1854071 85.50981859 44.66910009 80.43700564 30 71 C25.57391774 67.74592942 21.76051542 63.99098049 18 60 C17.25105469 59.20851562 16.50210937 58.41703125 15.73046875 57.6015625 C4.21660787 44.34851423 -0.21359447 28.33009044 -0.06640625 11.09375 C-0.06161255 10.02608398 -0.05681885 8.95841797 -0.05187988 7.85839844 C-0.03942685 5.23886606 -0.02199343 2.61946675 0 0 Z " fill="#E83729" transform="translate(371,13)"/>
<path d="M0 0 C-0.82624519 9.63003017 -3.54403635 18.01411535 -7 27 C-7.2769873 27.73283203 -7.55397461 28.46566406 -7.83935547 29.22070312 C-10.10559511 34.96166878 -12.33240807 40.43233296 -17.8515625 43.67578125 C-20.81136434 44.59056487 -23.67873518 45.22398708 -26.74365234 45.6640625 C-29.36335602 46.05409845 -31.95147238 46.55419855 -34.55078125 47.0625 C-74.27764467 54.7250981 -74.27764467 54.7250981 -85.0234375 47.671875 C-89.11336265 44.36654773 -91.58334436 41.58105262 -92.44140625 36.265625 C-92.67069307 30.55564351 -92.56358677 26.83371172 -88.75 22.375 C-85.60271343 19.1873636 -82.86586488 17.16703901 -78.32470703 16.76049805 C-76.80659424 16.76110229 -76.80659424 16.76110229 -75.2578125 16.76171875 C-74.12085938 16.74955322 -72.98390625 16.7373877 -71.8125 16.72485352 C-70.595625 16.71252686 -69.37875 16.7002002 -68.125 16.6875 C-44.70299561 16.0872812 -21.53189061 0 0 0 Z " fill="#030303" transform="translate(402,224)"/>
</svg>
