<?xml version="1.0" encoding="UTF-8"?>
<svg version="1.1" xmlns="http://www.w3.org/2000/svg" width="1184" height="1184">
<path d="M0 0 C1.0523584 0.00093658 2.1047168 0.00187317 3.18896484 0.00283813 C97.20951225 0.18322309 187.692317 23.26709533 271.75 65.1875 C272.64799316 65.63448242 273.54598633 66.08146484 274.47119141 66.54199219 C309.20456026 83.9674062 342.13030687 106.01001991 372.04003906 130.78173828 C374.3748891 132.70122237 376.74938939 134.56883433 379.125 136.4375 C383.36703438 139.81831599 387.39490905 143.40030347 391.40234375 147.0546875 C393.38977613 148.86024171 395.4015348 150.62486145 397.4375 152.375 C410.88044791 164.11391226 424.37980242 176.43749377 435.921875 190.078125 C437.91151865 192.37386767 439.97232233 194.59053248 442.04638672 196.80981445 C447.88925738 203.06564396 453.41034261 209.49273627 458.75 216.1875 C459.6592663 217.30541194 460.5694716 218.4225606 461.48046875 219.5390625 C487.08542066 251.03864872 508.86603498 285.28285832 527.75 321.1875 C528.19762695 322.0321582 528.64525391 322.87681641 529.10644531 323.74707031 C567.65656951 396.9388816 588.933881 481.02348629 565.94140625 770.38232422 C548.04311911 827.54681261 521.37821163 882.27110083 486.75 931.1875 C486.20456543 931.95964844 485.65913086 932.73179687 485.09716797 933.52734375 C475.04542841 947.71248134 464.47263833 961.35801367 453.15039062 974.54882812 C451.74203398 976.19682146 450.34643142 977.85489677 448.953125 979.515625 C438.14996494 992.34115137 426.57670823 1004.43095992 414.75 1016.3125 C414.06848877 1016.99868408 413.38697754 1017.68486816 412.68481445 1018.3918457 C408.7866782 1022.2775933 404.77870804 1025.97521754 400.61181641 1029.57080078 C397.99613648 1031.84211372 395.47240605 1034.20131479 392.9375 1036.5625 C387.39368251 1041.67663218 381.65551292 1046.49337435 375.75 1051.1875 C374.96568604 1051.81325928 374.96568604 1051.81325928 374.16552734 1052.45166016 C370.65370179 1055.25012994 367.12169188 1058.02121574 363.57275391 1060.77246094 C362.39538015 1061.68647892 361.22039489 1062.60358574 360.04833984 1063.52441406 C333.27023963 1084.517456 303.81586599 1102.36599517 273.75 1118.1875 C272.75790527 1118.70957031 271.76581055 1119.23164062 270.74365234 1119.76953125 C204.36630804 1154.41768303 131.15231125 1174.89091737 56.75 1182.1875 C55.59419434 1182.30464355 54.43838867 1182.42178711 53.24755859 1182.54248047 C17.54151281 1186.00155184 -19.5683609 1185.82586054 -55.25 1182.1875 C-56.53680664 1182.05859375 -57.82361328 1181.9296875 -59.14941406 1181.796875 C-139.11808071 1173.61412166 -217.4574544 1149.56910573 -379.14453125 1046.8203125 C-382.09420349 1044.30411783 -385.10470418 1041.86857031 -388.125 1039.4375 C-391.80156323 1036.44729951 -395.21057575 1033.35994417 -398.49194336 1029.94458008 C-400.13642581 1028.3010111 -401.83098461 1026.81227396 -403.609375 1025.31640625 C-409.33738763 1020.33701168 -414.65012455 1014.93667481 -420.00463867 1009.56323242 C-421.80862085 1007.75389067 -423.61788665 1005.94995681 -425.42773438 1004.14648438 C-431.24912764 998.32879805 -436.93740589 992.47977129 -442.25 986.1875 C-443.29460847 984.9954059 -444.34148803 983.8052981 -445.390625 982.6171875 C-452.11981864 974.941033 -458.60532448 967.13085795 -464.82568359 959.03710938 C-466.31995158 957.09666127 -467.8255964 955.16538896 -469.33203125 953.234375 C-508.24116635 903.13463817 -538.01867435 846.875884 -559.25 787.1875 C-559.63462402 786.10774902 -560.01924805 785.02799805 -560.41552734 783.91552734 C-575.65156394 740.45092228 -584.44890728 694.91190679 -589.25 649.1875 C-589.36859375 648.09518066 -589.4871875 647.00286133 -589.609375 645.87744141 C-593.35803581 609.65712198 -593.25676523 571.36508899 -589.25 535.1875 C-589.13688477 534.13925049 -589.13688477 534.13925049 -589.02148438 533.06982422 C-581.91996088 467.40913799 -565.41467154 403.53294434 -537.37255859 343.59277344 C-536.20999701 341.10178676 -535.06775959 338.60204398 -533.92578125 336.1015625 C-528.14757538 323.57996376 -521.5908321 311.6031683 -514.68212891 299.67285156 C-513.48226986 297.59058679 -512.30127692 295.50054897 -511.13671875 293.3984375 C-501.37455208 275.8808879 -490.21601923 259.26379819 -478.25 243.1875 C-477.40606426 242.04440794 -476.56230127 240.90118831 -475.71875 239.7578125 C-471.03439504 233.45318408 -466.20298622 227.28274466 -461.25 221.1875 C-460.56421875 220.33800781 -459.8784375 219.48851562 -459.171875 218.61328125 C-444.76713584 200.86643534 -429.3818415 184.25382156 -413.25 168.0625 C-412.37802979 167.18585693 -411.50605957 166.30921387 -410.60766602 165.40600586 C-405.64819026 160.45889906 -400.56436437 155.7484583 -395.25 151.1875 C-393.64231627 149.73304483 -392.03760285 148.27529105 -390.4375 146.8125 C-385.18824117 142.08178498 -379.75441004 137.61666306 -374.25 133.1875 C-373.12864698 132.27375558 -372.00756489 131.35967861 -370.88671875 130.4453125 C-356.25302544 118.56055598 -341.09508953 107.40336083 -325.25 97.1875 C-324.56599121 96.7426123 -323.88198242 96.29772461 -323.17724609 95.83935547 C-289.08578561 73.70873208 -253.15920588 54.86850434 -215.25 40.1875 C-214.13399414 39.75002441 -213.01798828 39.31254883 -211.86816406 38.86181641 C-144.48016249 12.57050803 -72.23434162 -0.08380353 0 0 Z " fill="#22A83A" transform="translate(591.25,-0.1875)"/>
<path d="M0 0 C15.95368508 12.70200753 27.19683414 29.97993114 29.59375 50.45703125 C30.93495456 72.66371046 27.56063256 92.76687303 12.67578125 110.15625 C11.98871094 110.91550781 11.30164063 111.67476562 10.59375 112.45703125 C9.57861328 113.61138672 9.57861328 113.61138672 8.54296875 114.7890625 C-3.55386748 127.7704937 -22.45639486 136.95419046 -40.31640625 137.79296875 C-61.41627678 138.16485321 -79.06062083 133.39793565 -95.40625 119.45703125 C-96.19515625 118.87308594 -96.9840625 118.28914062 -97.796875 117.6875 C-101.03727591 114.91763635 -103.5036574 111.82591359 -106.09375 108.45703125 C-106.57908203 107.84085938 -107.06441406 107.2246875 -107.56445312 106.58984375 C-109.84052058 103.66391979 -111.93839505 100.89061008 -113.40625 97.45703125 C-113.78136719 98.43542969 -114.15648437 99.41382813 -114.54296875 100.421875 C-122.81168839 121.73056693 -135.06796368 138.64196879 -156.40625 148.45703125 C-173.74579246 155.53292287 -194.61547689 157.84760403 -212.37890625 150.65869141 C-232.01792402 142.06429203 -247.89242678 128.62978826 -256.21582031 108.49902344 C-260.1491087 98.22400179 -261.58521957 88.57201158 -261.59375 77.64453125 C-261.60599609 76.79955078 -261.61824219 75.95457031 -261.63085938 75.08398438 C-261.63279297 74.27251953 -261.63472656 73.46105469 -261.63671875 72.625 C-261.64082764 71.89563232 -261.64493652 71.16626465 -261.64916992 70.41479492 C-261.40625 68.45703125 -261.40625 68.45703125 -259.40625 65.45703125 C-259.17550781 66.29105469 -258.94476563 67.12507813 -258.70703125 67.984375 C-255.05130033 80.5988141 -250.7231973 89.69019088 -239.22265625 96.80859375 C-231.69138599 100.76642576 -223.96748241 101.74283388 -215.78125 99.20703125 C-211.91296208 97.80644424 -208.75951943 95.8522237 -205.40625 93.45703125 C-204.41625 93.12703125 -203.42625 92.79703125 -202.40625 92.45703125 C-201.30585163 90.65358396 -201.30585163 90.65358396 -200.40625 88.45703125 C-200.0040625 87.6990625 -199.601875 86.94109375 -199.1875 86.16015625 C-193.17509514 74.64860061 -191.16274187 63.00739741 -194.90625 50.26953125 C-198.6680669 40.38321244 -204.81016627 32.18912065 -214.40625 27.45703125 C-219.47236624 25.32431277 -223.8877008 25.21319034 -229.28125 25.33203125 C-230.456875 25.34556641 -230.456875 25.34556641 -231.65625 25.359375 C-233.57305055 25.38275062 -235.48969191 25.41861472 -237.40625 25.45703125 C-224.23432513 11.89018094 -207.79506858 5.70486228 -189.10986328 5.23681641 C-166.00151503 4.94123888 -148.59946935 12.62626902 -132.09375 28.51953125 C-130.85649505 29.82440945 -129.62660586 31.13633502 -128.40625 32.45703125 C-127.88804687 32.95074219 -127.36984375 33.44445312 -126.8359375 33.953125 C-122.74083921 38.45773312 -122.91041512 43.54553553 -122.70605469 49.33862305 C-122.25604984 61.67245837 -118.23420089 73.32626663 -109.03125 81.89453125 C-100.54288488 88.87989749 -92.36952965 91.48938252 -81.40625 90.45703125 C-73.46762283 88.44361132 -66.98119721 84.7327519 -62.71484375 77.6484375 C-55.9492339 64.58999535 -54.64987964 52.84146363 -58.375 38.52734375 C-61.67170188 28.71216314 -67.85658858 21.44084593 -76.6796875 16.07421875 C-86.01932545 11.637115 -96.773915 12.36578125 -106.40625 15.45703125 C-97.2801286 0.49019215 -80.99949486 -8.81156366 -64.40625 -13.48046875 C-41.83972603 -17.89384798 -18.44967676 -14.08304408 0 0 Z " fill="#FEFEFD" transform="translate(683.40625,424.54296875)"/>
<path d="M0 0 C4.11205816 4.17892089 6.15849179 7.31087089 6.3125 13.1875 C6.24698244 18.74921307 5.40905312 21.60411571 2 26 C-2.22795126 29.2288925 -5.90903801 30.7734063 -11.06689453 31.98803711 C-11.7539938 32.15319635 -12.44109306 32.3183556 -13.14901352 32.48851967 C-15.43266344 33.03407698 -17.72001975 33.56195321 -20.0078125 34.08984375 C-21.64753355 34.47780411 -23.28702415 34.86673953 -24.92630005 35.25657654 C-35.89280332 37.85325167 -46.88140055 40.356482 -57.86663818 42.87246704 C-64.61119549 44.41791065 -71.35291492 45.97559748 -78.0935936 47.53786659 C-83.02797841 48.68009686 -87.9646256 49.81034652 -92.90673828 50.91870117 C-97.80567529 52.01805633 -102.69702625 53.14669201 -107.58456802 54.29560661 C-109.41843396 54.72121635 -111.25477348 55.13632475 -113.09356308 55.54013252 C-125.58903734 57.90124943 -125.58903734 57.90124943 -134.77438354 66.0509491 C-135.17883698 66.69413589 -135.58329041 67.33732269 -136 68 C-137.16878107 69.30823508 -138.3596003 70.59734261 -139.578125 71.859375 C-140.47470825 72.81106567 -140.47470825 72.81106567 -141.3894043 73.78198242 C-142.00340088 74.43142822 -142.61739746 75.08087402 -143.25 75.75 C-147.75728987 80.5374322 -152.24872843 85.33641874 -156.6875 90.1875 C-157.55375 91.13367188 -158.42 92.07984375 -159.3125 93.0546875 C-161.23367069 95.16015654 -163.14965844 97.26981772 -165.0625 99.3828125 C-180.63704272 116.51869463 -180.63704272 116.51869463 -188.72021484 117.41040039 C-195.31581158 117.32096604 -201.22019392 114.6409512 -207.27882767 112.28021049 C-211.10960859 110.80450777 -214.97553832 109.42522382 -218.8359375 108.02929688 C-223.70102849 106.26577266 -228.55125623 104.47914765 -233.36328125 102.57495117 C-257.09363774 93.23720386 -273.5490877 92.09306038 -297.90996742 99.59102154 C-307.9254869 102.66361691 -318.11164615 104.95955307 -328.31431961 107.31730461 C-333.87850195 108.61005557 -339.43295472 109.94324182 -344.98828125 111.2734375 C-347.22865056 111.80838479 -349.46904781 112.34321506 -351.70947266 112.87792969 C-356.29398318 113.97279501 -360.87825508 115.06865389 -365.46240234 116.16503906 C-371.10232444 117.51377177 -376.74296896 118.85944625 -382.38407898 120.20320129 C-384.5053861 120.70916091 -386.62641433 121.21629142 -388.74714661 121.72465515 C-391.6816645 122.42803778 -394.61708372 123.12753443 -397.55273438 123.82617188 C-398.41072128 124.03285492 -399.26870819 124.23953796 -400.1526947 124.45248413 C-408.50899527 126.432671 -415.0336478 127.90097172 -423 124 C-426.98826974 120.69058468 -429.64995212 117.65792171 -430.3359375 112.44921875 C-430.42670285 106.03210825 -430.04788713 102.0858069 -426 97 C-419.31160433 92.15056266 -411.33177821 90.85801184 -403.42578125 89.015625 C-401.84900766 88.63962063 -400.27246461 88.26264837 -398.69613647 87.88478088 C-394.45232084 86.87047619 -390.20538648 85.86987573 -385.95760727 84.87231827 C-381.52782577 83.83011707 -377.10062007 82.77708233 -372.6730957 81.7253418 C-366.3046056 80.21376261 -359.93498546 78.70708605 -353.56411648 77.20556545 C-343.16864504 74.75514521 -332.78155003 72.27150371 -322.39821053 69.77022934 C-317.71898279 68.6445356 -313.03809243 67.52578534 -308.35697842 66.40796471 C-304.67367593 65.52816603 -300.99123643 64.64508772 -297.31069946 63.75378418 C-293.23482671 62.76719694 -289.15482604 61.79884856 -285.07421875 60.83203125 C-283.88911713 60.54235977 -282.7040155 60.25268829 -281.48300171 59.95423889 C-269.3727984 57.11704627 -260.97597054 57.84738831 -249.24298668 61.91967964 C-247.15760686 62.64334637 -245.0665996 63.34803738 -242.9733429 64.04856873 C-238.53896696 65.53646899 -234.11307992 67.04867859 -229.6875 68.5625 C-224.53750942 70.32095192 -219.3843236 72.06921172 -214.22464943 73.7990551 C-212.16875271 74.49309211 -210.11832498 75.20180626 -208.0677948 75.91151428 C-206.81912125 76.3320256 -205.57044769 76.75253693 -204.28393555 77.18579102 C-203.18824753 77.56107437 -202.09255951 77.93635773 -200.96366882 78.32301331 C-197.81657063 79.04190051 -196.04757867 78.99642791 -193 78 C-190.47792131 76.0002491 -190.47792131 76.0002491 -188.125 73.4375 C-187.32320312 72.61121094 -186.52140625 71.78492188 -185.6953125 70.93359375 C-183.63758092 68.69394677 -181.62422261 66.43483378 -179.62890625 64.140625 C-176.11759206 60.10603565 -172.48680474 56.19848509 -168.8125 52.3125 C-165.03567125 48.31560703 -161.26465022 44.32018763 -157.60546875 40.21484375 C-157.07912842 39.62856201 -156.55278809 39.04228027 -156.01049805 38.43823242 C-155.03936777 37.35283306 -154.07534021 36.26101376 -153.12036133 35.16137695 C-147.33051059 28.72128956 -140.95406466 26.40384693 -132.77709961 24.5456543 C-131.87816986 24.33198212 -130.97924011 24.11830994 -130.05307007 23.89816284 C-127.08853902 23.19628172 -124.12058839 22.51020944 -121.15234375 21.82421875 C-119.05922696 21.33200106 -116.96634035 20.83880362 -114.87367249 20.34468079 C-109.35221682 19.043753 -103.82772443 17.7562064 -98.30249023 16.47143555 C-92.79156754 15.18756609 -87.28359726 13.89116621 -81.77539062 12.59570312 C-73.32649917 10.6096884 -64.87491627 8.63560409 -56.42138672 6.66943359 C-49.44159744 5.04597135 -42.46882215 3.39758385 -35.50439453 1.70947266 C-34.10354427 1.37252024 -32.70263236 1.03582403 -31.301651 0.69941711 C-28.83742849 0.10581597 -26.37500065 -0.49532015 -23.9150238 -1.10627747 C-7.41733009 -5.05727052 -7.41733009 -5.05727052 0 0 Z " fill="#000000" transform="translate(866,587)"/>
<path d="M0 0 C10.34030958 6.40443215 17.14496383 15.00563481 20.21484375 26.76171875 C22.81163829 40.01003581 21.72459336 51.66689562 14.58984375 63.32421875 C9.8698383 69.87055797 3.30085139 74.73213867 -4.66015625 76.44921875 C-14.29859292 77.62322382 -22.04336864 75.20467279 -29.91015625 69.63671875 C-39.06167943 62.25289421 -45.34392554 52.27750828 -46.66015625 40.44921875 C-47.6275008 28.93258975 -46.51114881 19.01955044 -39.5 9.5234375 C-29.31782773 -2.22260764 -14.71310899 -6.97709827 0 0 Z " fill="#ECAC3C" transform="translate(606.66015625,439.55078125)"/>
<path d="M0 0 C1.02673828 0.61875 1.02673828 0.61875 2.07421875 1.25 C11.36729993 7.48078967 16.76774946 17.18217044 19 28 C20.16238036 38.48538984 18.75199006 49.3968159 13.0625 58.5 C7.05218229 65.78523359 0.43807955 71.14609152 -9 73 C-18.72911696 73.7974686 -26.49639014 71.16970353 -33.96484375 64.88671875 C-43.77656926 55.79062773 -48.92674352 44.53590369 -49.4375 31.0625 C-49.10649494 19.96663462 -44.95919118 11.15549394 -37.33984375 3.28515625 C-27.30709936 -6.06197919 -11.63196142 -7.3416719 0 0 Z " fill="#ECAC3C" transform="translate(472,453)"/>
<path d="M0 0 C0.99 0.33 1.98 0.66 3 1 C-1.62 5.62 -6.24 10.24 -11 15 C-11.66 14.67 -12.32 14.34 -13 14 C-12.22914063 13.24074219 -11.45828125 12.48148438 -10.6640625 11.69921875 C-9.65090904 10.69544634 -8.63789552 9.69153268 -7.625 8.6875 C-7.11710938 8.18798828 -6.60921875 7.68847656 -6.0859375 7.17382812 C-3.77145867 4.87457613 -1.81652517 2.72478775 0 0 Z " fill="#418D46" transform="translate(737,646)"/>
</svg>
