<?xml version="1.0" encoding="UTF-8"?>
<svg version="1.1" xmlns="http://www.w3.org/2000/svg" width="451" height="305">
<path d="M0 0 C19.08687025 -0.56137854 37.74139471 5.87123775 52.125 18.4375 C53.74691789 19.98156583 55.35141878 21.54414475 56.9375 23.125 C58.09572266 24.24841797 58.09572266 24.24841797 59.27734375 25.39453125 C70.66774717 37.13540862 78.22380252 53.68022059 78.9375 70.125 C79.01484375 71.64287109 79.01484375 71.64287109 79.09375 73.19140625 C79.68245502 95.14519771 72.26191129 114.69733495 57.40771484 130.77001953 C43.62692074 144.97870195 24.82585273 152.94626776 5.13696289 153.6003418 C-14.8620512 153.78302249 -34.06725991 147.78085942 -49.0625 134.125 C-50.19751953 133.10986328 -50.19751953 133.10986328 -51.35546875 132.07421875 C-57.03747292 126.71581281 -61.14660485 120.86134696 -65.0625 114.125 C-65.49949219 115.34123047 -65.49949219 115.34123047 -65.9453125 116.58203125 C-73.67293263 137.45632587 -85.49695266 153.60863229 -105.89257812 163.44018555 C-123.19347895 171.34818617 -143.19129595 173.34208997 -161.51953125 167.50390625 C-182.53198003 159.32596312 -198.40159853 146.79074675 -207.80639648 125.74291992 C-213.74337789 111.67528074 -213.51078345 98.14647453 -213.0625 83.125 C-213.04171387 82.36848145 -213.02092773 81.61196289 -212.99951172 80.83251953 C-212.59658489 68.50892779 -210.3159717 56.02331112 -200.98828125 47.15234375 C-198.73917914 45.36640752 -196.44694099 43.72518963 -194.0625 42.125 C-193.32773438 41.62484375 -192.59296875 41.1246875 -191.8359375 40.609375 C-190.35087291 39.61233517 -188.85715206 38.62807947 -187.35546875 37.65625 C-185.80441791 36.62045455 -184.2857598 35.53473111 -182.80078125 34.40625 C-167.28012901 22.70803939 -147.7239714 18.62094762 -128.5625 20.75 C-107.96633503 24.01786751 -89.93951685 34.10462056 -77.3125 50.8125 C-76.54895944 51.90734695 -75.79253561 53.00753321 -75.0625 54.125 C-74.85496094 53.50753906 -74.64742187 52.89007813 -74.43359375 52.25390625 C-71.58693192 44.4285639 -67.50491544 38.55639971 -61.62109375 32.69140625 C-59.12248941 30.18517258 -56.85952262 27.56534841 -54.5625 24.875 C-40.33289327 9.21189215 -20.858698 1.26416352 0 0 Z " fill="#FEFEFE" transform="translate(213.0625,-0.125)"/>
<path d="M0 0 C3.78393883 3.60496875 6.72079743 6.88044821 7.203125 12.26953125 C7.30169456 17.61692994 7.16143318 21.46861245 4 26 C-0.30034404 30.11683891 -4.03294297 32.031023 -9.84057617 33.44677734 C-10.6165298 33.64889517 -11.39248343 33.85101299 -12.1919508 34.0592556 C-14.78982191 34.72729462 -17.39345109 35.36670453 -20 36 C-20.91484287 36.2244001 -21.82968575 36.4488002 -22.77225113 36.68000031 C-28.90521036 38.17788916 -35.04837442 39.62999232 -41.19588661 41.06685257 C-44.6315915 41.87046402 -48.0659717 42.67953128 -51.50004578 43.49008179 C-61.24842068 45.79036338 -70.9984223 48.08364559 -80.75073242 50.3671875 C-86.7513578 51.77265763 -92.74997348 53.18644075 -98.74739647 54.60551071 C-101.02282284 55.14214828 -103.29900603 55.67558745 -105.57595253 56.20573807 C-108.74565089 56.94395653 -111.9126926 57.69269054 -115.0793457 58.44384766 C-116.01491806 58.65897507 -116.95049042 58.87410248 -117.91441345 59.0957489 C-128.11304345 61.54116475 -133.57075062 66.98655781 -140.2734375 74.75390625 C-143.83809984 78.84472672 -147.52282836 82.80749807 -151.25 86.75 C-155.8571141 91.64505873 -160.45474432 96.54738271 -165 101.5 C-166.30904297 102.923125 -166.30904297 102.923125 -167.64453125 104.375 C-169.73121251 106.70045574 -171.709902 109.082442 -173.6875 111.5 C-177.88270166 116.29451618 -182.06861538 118.79830586 -188.46313477 119.23828125 C-193.91312483 119.18696517 -198.74452434 117.48710777 -203.875 115.78125 C-204.9165625 115.44508667 -205.958125 115.10892334 -207.03125 114.76257324 C-210.35781671 113.68592973 -213.67883814 112.59318756 -217 111.5 C-219.16893085 110.79582694 -221.33819942 110.09269323 -223.5078125 109.390625 C-224.57845947 109.04249756 -225.64910645 108.69437012 -226.75219727 108.33569336 C-228.92330747 107.63081288 -231.0956844 106.92982259 -233.26928711 106.23266602 C-238.68274052 104.48079042 -244.01601069 102.63377412 -249.30859375 100.54296875 C-250.33919922 100.15330933 -251.36980469 99.7636499 -252.43164062 99.36218262 C-254.34318068 98.63503042 -256.24156904 97.87150842 -258.11914062 97.06066895 C-266.96543 93.77101531 -274.58369777 96.07277815 -283.39493942 98.33583832 C-285.99029 98.99752443 -288.59220315 99.61628537 -291.20120239 100.22174072 C-296.78885893 101.52046237 -302.36508216 102.86452309 -307.94140625 104.2109375 C-310.00424412 104.70677855 -312.06714744 105.2023474 -314.13011169 105.69766235 C-319.5176461 106.99179724 -324.90446513 108.28888282 -330.29107666 109.58685303 C-335.69961243 110.88987029 -341.10856055 112.19117195 -346.51757812 113.4921875 C-347.57122244 113.74565067 -348.62486675 113.99911385 -349.71043968 114.26025772 C-357.82665566 116.21198704 -365.94464327 118.15625968 -374.06359291 120.09658432 C-378.87832359 121.24828831 -383.69038485 122.40969685 -388.49821186 123.58988762 C-391.44334126 124.31074416 -394.39188246 125.0173911 -397.33984375 125.7265625 C-398.30217422 125.96821136 -399.2645047 126.20986023 -400.2559967 126.45883179 C-407.47827014 128.17313417 -416.0791212 129.93328057 -422.9375 126.3125 C-426.90607737 123.31581913 -429.4190756 120.7427732 -431 116 C-431.69766205 108.817512 -431.39536204 103.82088486 -427 98 C-423.32389262 94.58885312 -420.32713792 93.259012 -415.46362305 92.13500977 C-414.48221187 91.90179551 -414.48221187 91.90179551 -413.4809742 91.66386986 C-411.26472695 91.1400264 -409.04460705 90.63488516 -406.82421875 90.12890625 C-405.2025952 89.74873305 -403.58132431 89.36705303 -401.96037292 88.98402405 C-398.33001554 88.12704607 -394.6982775 87.27622666 -391.06585693 86.42803955 C-384.54687608 84.89979383 -378.03982968 83.32360242 -371.53369141 81.74169922 C-360.45334326 79.04767657 -349.36971617 76.36776742 -338.28285408 73.70067406 C-331.85397631 72.15367301 -325.42615316 70.60254651 -319.00073242 69.04125977 C-312.67117497 67.50327848 -306.33881363 65.977218 -300.00461388 64.45846748 C-297.61995617 63.88469384 -295.23623514 63.30701156 -292.85352516 62.72520256 C-289.54518183 61.91808394 -286.23370893 61.1252729 -282.92114258 60.33569336 C-281.95859055 60.09736282 -280.99603851 59.85903229 -280.00431824 59.61347961 C-271.31840258 57.57159287 -263.62706258 57.01683057 -255.0690918 59.94360352 C-254.45143448 60.15003479 -253.83377716 60.35646606 -253.19740295 60.56915283 C-251.87699744 61.01263581 -250.55887271 61.4629611 -249.24298668 61.91967964 C-247.15760686 62.64334637 -245.0665996 63.34803738 -242.9733429 64.04856873 C-238.53896696 65.53646899 -234.11307992 67.04867859 -229.6875 68.5625 C-224.53750942 70.32095192 -219.3843236 72.06921172 -214.22464943 73.7990551 C-212.16875271 74.49309211 -210.11832498 75.20180626 -208.0677948 75.91151428 C-206.81912125 76.3320256 -205.57044769 76.75253693 -204.28393555 77.18579102 C-203.18824753 77.56107437 -202.09255951 77.93635773 -200.96366882 78.32301331 C-197.83438324 79.0378316 -196.03816085 78.95553727 -193 78 C-191.16858 76.68703954 -191.16858 76.68703954 -189.625 74.9375 C-189.10164062 74.38964844 -188.57828125 73.84179688 -188.0390625 73.27734375 C-186.24991237 71.27911669 -184.4865321 69.26214764 -182.7265625 67.23828125 C-179.16012928 63.15203827 -175.4758501 59.19064304 -171.75 55.25 C-166.26746428 49.43054867 -160.83582561 43.57094198 -155.46484375 37.6484375 C-154.65144531 36.77445313 -153.83804687 35.90046875 -153 35 C-152.37441303 34.26536419 -152.37441303 34.26536419 -151.73618793 33.51588726 C-147.8233394 29.17372876 -144.40390939 27.74599532 -138.76831055 26.5246582 C-137.5383424 26.22964778 -137.5383424 26.22964778 -136.28352642 25.92867756 C-134.48362528 25.49847814 -132.68152533 25.0774009 -130.8776207 24.66431046 C-127.90919314 23.97903687 -124.95123437 23.25864478 -121.99356079 22.52841187 C-115.23739823 20.86222774 -108.4729299 19.23160593 -101.70703125 17.60546875 C-100.48776129 17.31217493 -99.26849133 17.01888111 -98.01227379 16.7166996 C-92.2399014 15.32855099 -86.46711312 13.94215342 -80.693672 12.55845755 C-74.07812262 10.9728491 -67.46443371 9.37974843 -60.85215551 7.78055495 C-55.07522007 6.38397665 -49.29592247 4.99735657 -43.51575279 3.61422157 C-41.07383943 3.02838798 -38.63265595 2.43950303 -36.19223976 1.84746361 C-32.79005062 1.02283988 -29.38531593 0.20965989 -25.97973633 -0.60083008 C-24.98171494 -0.84544479 -23.98369354 -1.09005951 -22.95542908 -1.34208679 C-14.72442756 -3.27977937 -7.68338411 -4.41083162 0 0 Z " fill="#000000" transform="translate(444,177)"/>
<path d="M0 0 C10.71476178 6.63635496 17.96832622 16.1125606 20.8671875 28.40234375 C22.95914793 41.88770849 21.10049339 54.29437301 13.03515625 65.48046875 C7.68867592 71.68928461 0.89925493 75.77205739 -7.2578125 76.765625 C-17.66892023 77.21955515 -25.99444089 73.32021632 -33.66015625 66.44921875 C-43.16493479 57.30395902 -46.62900346 46.00259107 -47.03515625 33.13671875 C-46.84385806 21.8951367 -43.7652132 12.45583372 -35.66015625 4.44921875 C-25.46487472 -3.45890837 -11.90997266 -5.64782398 0 0 Z " fill="#EDAC3C" transform="translate(184.66015625,30.55078125)"/>
<path d="M0 0 C0.64195313 0.4125 1.28390625 0.825 1.9453125 1.25 C2.97011719 1.86875 2.97011719 1.86875 4.015625 2.5 C12.78048779 8.36545951 17.54079811 16.8585163 20.29296875 26.875 C22.7320863 39.49414711 20.47751461 50.35044663 13.9453125 61.25 C11.4453125 64.125 11.4453125 64.125 8.9453125 66.25 C8.1409375 66.95125 7.3365625 67.6525 6.5078125 68.375 C-0.22226037 73.29944356 -6.765745 75.03115689 -15.0546875 74.25 C-26.0165903 72.19355401 -33.49398649 66.0701261 -40.0546875 57.25 C-46.43267176 47.29462073 -48.653002 35.21388049 -46.5859375 23.62109375 C-43.85351274 13.228121 -38.42317084 4.74617689 -29.0546875 -0.75 C-20.4379452 -4.34131358 -8.2889698 -4.53844734 0 0 Z " fill="#EDAC3C" transform="translate(48.0546875,42.75)"/>
</svg>
