<?xml version="1.0" encoding="UTF-8"?>
<svg version="1.1" xmlns="http://www.w3.org/2000/svg" width="1184" height="1184">
<path d="M0 0 C1.72428223 0.41475586 1.72428223 0.41475586 3.48339844 0.83789062 C54.97245939 13.42252732 104.97112406 33.76079446 151 60 C152.25369385 60.71373779 152.25369385 60.71373779 153.53271484 61.44189453 C175.59797286 74.1141223 196.79042703 88.55619411 217 104 C217.63679687 104.4851709 218.27359375 104.9703418 218.9296875 105.47021484 C230.57256186 114.37738218 241.6878212 123.89926986 252.5234375 133.76953125 C253.91094709 135.01916528 255.30455359 136.26237349 256.71925354 137.48114014 C261.59125923 141.68145646 266.2133467 146.06657831 270.75390625 150.62109375 C271.45845444 151.32468521 272.16300262 152.02827667 272.88890076 152.75318909 C274.36653367 154.23014648 275.84292457 155.70834742 277.31811523 157.18774414 C279.55666481 159.43165085 281.80050473 161.67016704 284.04492188 163.90820312 C285.48990404 165.35384618 286.93457592 166.79979945 288.37890625 168.24609375 C289.03951553 168.9046788 289.70012482 169.56326385 290.38075256 170.24180603 C294.78461988 174.66755722 298.93477146 179.26266073 303 184 C303.97325348 185.11780159 304.94709294 186.23509366 305.921875 187.3515625 C312.32648039 194.74484323 318.52714535 202.2628593 324.48242188 210.02294922 C325.53508503 211.3943241 326.59132926 212.7629547 327.65039062 214.12939453 C347.81908065 240.20042566 365.31086567 268.03262016 381 297 C381.42603516 297.77827148 381.85207031 298.55654297 382.29101562 299.35839844 C421.65720265 371.47142104 443.88101324 454.15751704 449 536 C449.05639648 536.80630859 449.11279297 537.61261719 449.17089844 538.44335938 C455.05043249 623.40088692 441.01034546 710.1007172 402 810 C401.56864746 810.97404785 401.13729492 811.9480957 400.69287109 812.95166016 C378.3796136 863.09335415 350.16526858 909.81069734 315 952 C314.51934082 952.57975586 314.03868164 953.15951172 313.54345703 953.75683594 C307.78117329 960.69862753 301.84746279 967.44467574 295.703125 974.05078125 C293.71855306 976.18973737 291.8139101 978.38385789 289.91796875 980.6015625 C285.39803768 985.78604493 280.52807123 990.62178527 275.6574707 995.47290039 C274.06541034 997.05959946 272.4787701 998.65157742 270.89257812 1000.24414062 C265.43271494 1005.70757322 259.87331523 1010.97968759 254 1016 C252.22429779 1017.61967817 250.45291693 1019.24411718 248.6875 1020.875 C243.28506684 1025.79507305 237.71085243 1030.44355013 232 1035 C231.49162598 1035.40798828 230.98325195 1035.81597656 230.45947266 1036.23632812 C201.44949376 1059.48690772 170.53571943 1080.12161163 137.69677734 1097.56347656 C135.08829219 1098.95296838 132.4908075 1100.36129574 129.89453125 1101.7734375 C69.82559825 1134.18194126 2.21981932 1154.18302374 -65.3125 1162.875 C-66.06183807 1162.97259613 -66.81117615 1163.07019226 -67.58322144 1163.17074585 C-91.63130008 1166.25211248 -115.67285697 1167.38558285 -139.90739441 1167.31805801 C-141.9758207 1167.31239509 -144.04423871 1167.30958872 -146.1126709 1167.30697632 C-167.53586146 1167.26769839 -188.72681004 1166.64718569 -210 1164 C-211.43846479 1163.82656253 -212.87694163 1163.65322492 -214.31542969 1163.47998047 C-278.99512978 1155.5712778 -341.21576679 1137.06473069 -400 1109 C-400.98564941 1108.52981445 -401.97129883 1108.05962891 -402.98681641 1107.57519531 C-418.4546129 1100.14199687 -433.31163272 1091.86615273 -448 1083 C-448.93005859 1082.44135254 -449.86011719 1081.88270508 -450.81835938 1081.30712891 C-462.91290689 1074.02087019 -474.59513072 1066.32136836 -486 1058 C-487.18819336 1057.13858398 -487.18819336 1057.13858398 -488.40039062 1056.25976562 C-497.82040646 1049.42563649 -507.11940056 1042.52774794 -516 1035 C-517.51400391 1033.72769531 -517.51400391 1033.72769531 -519.05859375 1032.4296875 C-521.81144115 1030.11334339 -524.55236647 1027.78329537 -527.29101562 1025.45019531 C-529.02641846 1023.97758205 -530.77031603 1022.51554004 -532.515625 1021.0546875 C-538.91916222 1015.66743086 -545.02898047 1010.12850296 -550.88305664 1004.14648438 C-553.49378594 1001.48267186 -556.13795034 998.95343038 -559 996.5625 C-563.81426428 992.47188296 -567.93864801 987.73686984 -572.1796875 983.0703125 C-574.28221528 980.76238926 -576.43771507 978.54107201 -578.6875 976.375 C-582.34667082 972.786709 -585.47877935 968.80172026 -588.6875 964.8125 C-590.84349735 962.19034106 -593.07567103 959.68391432 -595.375 957.1875 C-600.9382969 951.06498088 -605.9744562 944.56453147 -611 938 C-611.47308594 937.38382813 -611.94617188 936.76765625 -612.43359375 936.1328125 C-636.23038254 905.04866021 -656.36101932 871.92814629 -674 837 C-674.4626123 836.08557129 -674.92522461 835.17114258 -675.40185547 834.22900391 C-683.60651632 817.8808458 -690.43062456 801.05155256 -697 784 C-697.37753418 783.03271973 -697.75506836 782.06543945 -698.14404297 781.06884766 C-717.86976592 730.32305873 -728.30450702 676.08679439 -733 622 C-733.1045752 620.80898682 -733.20915039 619.61797363 -733.31689453 618.39086914 C-734.35171189 604.55782319 -734.24584302 590.67636717 -734.25 576.8125 C-734.25044186 576.13674171 -734.25088371 575.46098343 -734.25133896 574.76474762 C-734.25899565 552.3898979 -733.7063436 530.2284714 -731 508 C-730.91278687 507.27520447 -730.82557373 506.55040894 -730.73571777 505.8036499 C-723.15589824 443.35607967 -706.25063839 383.15471374 -680 326 C-679.33532715 324.54303711 -679.33532715 324.54303711 -678.65722656 323.05664062 C-671.86688183 308.24585219 -664.20849567 294.06793631 -656 280 C-655.44489746 279.04109863 -654.88979492 278.08219727 -654.31787109 277.09423828 C-647.58293307 265.46507576 -640.66531644 254.04003909 -633 243 C-632.54302734 242.33726074 -632.08605469 241.67452148 -631.61523438 240.99169922 C-621.38077024 226.17665455 -610.56290506 211.80675552 -599 198 C-598.58041016 197.49549316 -598.16082031 196.99098633 -597.72851562 196.47119141 C-591.53257376 189.0247547 -585.15032968 181.7979881 -578.55737305 174.70092773 C-576.61364573 172.57803258 -574.70664429 170.42345754 -572.79296875 168.2734375 C-568.00698391 162.94865624 -563.01077148 157.86248179 -557.9375 152.8125 C-557.09123047 151.96236328 -556.24496094 151.11222656 -555.37304688 150.23632812 C-550.96371477 145.8337953 -546.48873189 141.57799141 -541.76245117 137.51733398 C-539.35224729 135.44233507 -537.02343776 133.28292695 -534.6875 131.125 C-530.25503526 127.08720678 -525.72257823 123.22692566 -521.0546875 119.46484375 C-518.8168842 117.65914825 -516.59518101 115.84020688 -514.3828125 114.00390625 C-444.93366483 56.56252583 -360.62870791 17.35322191 -181 -16 C-180.00371582 -16.07057617 -179.00743164 -16.14115234 -177.98095703 -16.21386719 C-118.33992906 -20.20471664 -58.0027828 -14.01033401 0 0 Z " fill="#DB3320" transform="translate(734,17)"/>
<path d="M0 0 C0.92167969 0.44085938 1.84335937 0.88171875 2.79296875 1.3359375 C26.01516144 13.19268468 42.32405874 35.05014212 50.53515625 59.40234375 C60.68256262 91.32379744 57.16278179 126.14804742 42.16796875 155.98828125 C36.85382417 166.08395094 29.87347574 174.77186319 22 183 C21.37738281 183.68578125 20.75476563 184.3715625 20.11328125 185.078125 C4.49910536 201.70705866 -19.12846729 212.35358952 -41.8984375 213.23828125 C-60.90840625 213.62687707 -75.45824763 210.31539999 -92 201 C-93.44439453 200.23429687 -93.44439453 200.23429687 -94.91796875 199.453125 C-117.86986994 186.29900733 -131.41889949 161.88707038 -138.42773438 137.20874023 C-144.87155719 113.17361102 -143.82739819 85.05771635 -134 62 C-133.55744873 60.95730957 -133.55744873 60.95730957 -133.10595703 59.89355469 C-128.2612183 48.65563774 -122.71248528 38.51618735 -115 29 C-114.22011719 28.03707031 -113.44023437 27.07414062 -112.63671875 26.08203125 C-84.55296127 -6.50615869 -39.28197393 -19.00202982 0 0 Z " fill="#FEFEFD" transform="translate(475,429)"/>
<path d="M0 0 C1.62228516 -0.01836914 1.62228516 -0.01836914 3.27734375 -0.03710938 C13.00312803 -0.0547073 21.6285539 1.42999719 30.6875 4.9375 C31.71544678 5.33219482 31.71544678 5.33219482 32.76416016 5.73486328 C58.37811842 15.81356868 76.07911922 35.97878396 86.9921875 60.76171875 C92.69549692 74.53802248 94.94767931 88.27387267 94.99023438 103.13623047 C94.99984555 105.15505721 95.03089016 107.17282151 95.0625 109.19140625 C95.11342703 122.2159945 92.75995552 134.34698078 88.5625 146.6875 C88.26134277 147.57622803 87.96018555 148.46495605 87.64990234 149.38061523 C77.58999194 178.0490348 56.80306548 200.27217694 29.79296875 213.65234375 C10.05553554 222.53553872 -14.65814135 225.25304926 -35.33007812 217.91943359 C-63.13053791 207.32103857 -81.85520821 187.96171134 -94.25 161.1875 C-96.32139901 156.30353706 -97.86850574 151.30715519 -99.25 146.1875 C-99.56839844 145.04152344 -99.88679687 143.89554688 -100.21484375 142.71484375 C-107.46120139 111.49205855 -101.53760757 77.70663914 -85.18701172 50.41308594 C-69.89921064 26.00022539 -46.52064764 7.69534711 -18.25 1.1875 C-12.13076787 0.03527951 -6.20908533 0.00364811 0 0 Z " fill="#FEFEFD" transform="translate(753.25,442.8125)"/>
<path d="M0 0 C12.73775288 7.97803405 20.9134735 19.69531433 25.6875 33.8125 C26.06003906 34.81410156 26.43257813 35.81570313 26.81640625 36.84765625 C33.23819861 55.97877984 30.10462771 76.54922231 21.3125 94.4375 C18.28875691 100.05395584 14.92947297 105.05298784 10.6875 109.8125 C10.10613281 110.48667969 9.52476562 111.16085937 8.92578125 111.85546875 C-0.97019778 122.58129927 -15.17463378 129.93253314 -29.7734375 131.0859375 C-46.23006375 131.51295575 -60.36471957 126.46730809 -72.5625 115.0625 C-76.91064509 110.46487118 -80.154582 105.27222523 -83.3125 99.8125 C-83.70308594 99.16796875 -84.09367187 98.5234375 -84.49609375 97.859375 C-92.84017749 82.92443912 -93.8470907 62.75714428 -90.0625 46.3046875 C-84.30720012 27.18030562 -73.99710465 9.97231895 -56.3125 -0.1875 C-37.76292338 -9.7829933 -18.58576979 -10.07803406 0 0 Z " fill="#23A93A" transform="translate(447.3125,487.1875)"/>
<path d="M0 0 C14.82474749 15.6619097 18.18590146 34.75125903 17.8203125 55.44921875 C16.91975411 74.71563406 7.77891986 93.11052998 -6.11474609 106.35693359 C-19.37819964 118.10503448 -34.18948419 121.95559642 -51.60693359 120.93017578 C-62.60791061 119.97749788 -74.19985976 113.82831256 -81.6875 105.75 C-96.31721136 87.90682602 -101.20779446 68.05773965 -99.4140625 45.27734375 C-97.0732754 27.1031194 -87.86680475 9.38238241 -73.94921875 -2.609375 C-50.19809842 -20.48150515 -22.34139351 -20.7066574 0 0 Z " fill="#22A93A" transform="translate(794.6875,515.25)"/>
<path d="M0 0 C4.29810413 3.53961517 5.72318587 7.30982316 6.9375 12.6875 C7.35787075 17.99217847 6.21207568 22.16673493 2.85253906 26.30175781 C0.46623237 29.03582606 -2.01447908 31.66725138 -4.5390625 34.2734375 C-6.93307934 36.56274944 -6.93307934 36.56274944 -7.9375 38.8125 C-7.07884842 38.77540672 -7.07884842 38.77540672 -6.20285034 38.73756409 C44.11529335 36.61488624 94.5782681 35.7470337 144.93927002 35.45901489 C147.12629507 35.44480244 149.31328834 35.423992 151.50018311 35.39620972 C154.43144129 35.3613131 157.36153206 35.3520361 160.29296875 35.3515625 C161.11324051 35.33727707 161.93351227 35.32299164 162.77864075 35.30827332 C169.15665927 35.35978099 172.71134361 37.52665351 177.3125 42 C180.11344043 46.50151141 181.44190288 50.85996733 180.7578125 56.18359375 C179.38349244 61.21428385 177.14453499 64.30108505 173.171875 67.62109375 C167.81480894 70.64684403 162.08509339 71.12264595 156.05519104 71.2048645 C154.88943154 71.23192909 154.88943154 71.23192909 153.70012134 71.25954044 C151.11081328 71.317405 148.52145153 71.36207114 145.93188477 71.40673828 C144.06832239 71.44565262 142.20477677 71.48537703 140.34124756 71.52584839 C135.28457015 71.63330556 130.22773273 71.72924662 125.17078519 71.82300425 C119.85542123 71.92338782 114.54026846 72.03394874 109.2250824 72.14328003 C100.28159799 72.3258005 91.3380004 72.5014432 82.39428711 72.67236328 C70.9837483 72.89045071 59.57344939 73.11913851 48.1631937 73.35151863 C38.29046986 73.55255716 28.41765999 73.74924395 18.54482913 73.94494772 C15.40617238 74.00727108 12.26752497 74.07005101 9.12887764 74.13284683 C-1.21499105 74.33870026 -11.55883841 74.5335997 -21.9035123 74.69462049 C-25.61244983 74.75322846 -29.32078341 74.81771645 -33.02904129 74.91036224 C-36.42172913 74.99460434 -39.81402761 75.05683162 -43.20727539 75.11279297 C-44.11590804 75.14328295 -45.02454069 75.17377293 -45.96070766 75.20518684 C-51.77403025 75.2660892 -56.07974062 74.07838691 -60.9375 70.8125 C-64.86807819 66.77848554 -66.68088292 63.07928421 -67.3125 57.5 C-66.39253267 48.4536546 -60.6434251 42.97427098 -54.66796875 36.6875 C-52.52974784 34.43609716 -50.46155546 32.16491313 -48.4375 29.8125 C-45.03380767 25.8851627 -41.51483832 22.06646123 -37.99316406 18.24536133 C-35.34584542 15.36738432 -32.74078805 12.46158411 -30.1875 9.5 C-21.97588674 0.1124994 -12.64840276 -8.30721368 0 0 Z " fill="#000000" transform="translate(509.9375,704.1875)"/>
</svg>
