<?xml version="1.0" encoding="UTF-8"?>
<svg version="1.1" xmlns="http://www.w3.org/2000/svg" width="516" height="360">
<path d="M0 0 C24.4448572 20.42427231 36.30167367 48.48808553 39.37451172 79.69775391 C41.75627861 112.20565339 30.36471202 144.07014428 9.62451172 168.82275391 C-5.20701437 185.96565637 -25.90274454 199.2535585 -48.62548828 202.69775391 C-49.30095703 202.80732422 -49.97642578 202.91689453 -50.67236328 203.02978516 C-74.28969287 206.26208391 -98.25593624 200.60483305 -117.60595703 186.52978516 C-120.35566403 184.32622685 -123.00576257 182.05385942 -125.62548828 179.69775391 C-126.66962891 178.77736328 -126.66962891 178.77736328 -127.73486328 177.83837891 C-148.41098771 158.48552644 -158.53441854 129.73755852 -159.91064453 101.97119141 C-160.4131648 84.65936818 -157.50648401 67.94554991 -151.62548828 51.69775391 C-151.26841797 50.67681641 -150.91134766 49.65587891 -150.54345703 48.60400391 C-140.71919351 22.77625812 -119.87275915 0.73038468 -95.06298828 -11.11474609 C-63.25886113 -24.63849518 -27.30372835 -21.87414944 0 0 Z " fill="#FEFEFE" transform="translate(476.62548828125,41.30224609375)"/>
<path d="M0 0 C16.76294473 13.64828145 27.94048001 30.2823293 34.875 50.6875 C35.30474121 51.95122437 35.30474121 51.95122437 35.74316406 53.24047852 C39.44194667 64.73185276 40.39141149 75.96813842 40.375 88 C40.37445618 88.67709015 40.37391235 89.3541803 40.37335205 90.05178833 C40.25056072 123.45446758 27.60303071 152.73232538 4.625 176.8125 C-13.55622553 194.35082505 -37.91886176 204.94486903 -63.28125 205.0703125 C-86.2057019 204.65359612 -107.13209211 196.61236782 -124 181 C-124.77601562 180.30390625 -125.55203125 179.6078125 -126.3515625 178.890625 C-146.20078392 160.20098009 -157.31720275 131.65062854 -158.28515625 104.73828125 C-158.54197102 92.19379709 -158.04732763 80.1893105 -155 68 C-154.83902832 67.35482422 -154.67805664 66.70964844 -154.51220703 66.04492188 C-149.10300148 45.11477783 -138.77559511 27.66632248 -124 12 C-123.37609375 11.31164062 -122.7521875 10.62328125 -122.109375 9.9140625 C-90.67856564 -23.49768022 -36.15942146 -27.68530937 0 0 Z " fill="#FEFEFE" transform="translate(158,18)"/>
<path d="M0 0 C12.73775288 7.97803405 20.9134735 19.69531433 25.6875 33.8125 C26.06003906 34.81410156 26.43257813 35.81570312 26.81640625 36.84765625 C33.23819861 55.97877984 30.10462771 76.54922231 21.3125 94.4375 C18.28875691 100.05395584 14.92947297 105.05298784 10.6875 109.8125 C10.10613281 110.48667969 9.52476563 111.16085938 8.92578125 111.85546875 C-1.42013836 123.06897072 -16.2817812 130.52071071 -31.55712891 131.453125 C-47.58503763 131.80579042 -61.01228549 125.27554299 -72.69921875 114.640625 C-85.50550307 101.68214375 -91.63519 83.5374402 -91.6875 65.625 C-91.38836414 44.02739076 -84.39124914 25.11528882 -69.13671875 9.5078125 C-49.86377389 -8.88545438 -23.44857013 -12.71486148 0 0 Z " fill="#23A93A" transform="translate(114.3125,67.1875)"/>
<path d="M0 0 C13.55711355 9.7249181 22.94701527 25.51875007 25.75 41.97265625 C27.92518779 65.59207974 24.16263976 87.05693871 9.35546875 106.04296875 C1.2094243 115.79995059 -9.63756052 124.16431983 -22.25 126.97265625 C-22.97703125 127.153125 -23.7040625 127.33359375 -24.453125 127.51953125 C-40.73588924 130.15752099 -54.61079932 126.87068528 -68.21875 117.63671875 C-80.86106058 107.69526543 -88.14058705 91.0362924 -90.84765625 75.5546875 C-93.42893331 52.57380338 -88.01751475 31.03689956 -73.5625 12.78515625 C-54.33462674 -9.46959362 -25.43909794 -15.9332648 0 0 Z " fill="#23A93A" transform="translate(453.25,88.02734375)"/>
<path d="M0 0 C4.85503811 2.57956668 8.08027514 6.08848167 9.80859375 11.2734375 C10.68630519 18.67287822 10.27348459 23.97557758 5.8046875 30.04296875 C3.98847073 32.07243993 2.11322073 33.99183241 0.18383789 35.9128418 C-0.44783798 36.5424028 -1.07951385 37.17196381 -1.73033142 37.82060242 C-2.21248611 38.30003799 -2.69464081 38.77947357 -3.19140625 39.2734375 C16.5677027 39.39683849 36.31140695 39.26935798 56.06640625 38.8359375 C57.57610111 38.80297577 57.57610111 38.80297577 59.11629486 38.76934814 C67.43020337 38.5864441 75.74389872 38.39450301 84.05755615 38.20056152 C98.30881435 37.86850746 112.56004918 37.56931184 126.81312561 37.32672119 C129.84391915 37.27280913 132.87451352 37.21190888 135.90515137 37.14990234 C140.80351054 37.05221156 145.70157115 36.98222327 150.60064316 36.93240356 C152.4187588 36.91005021 154.23679241 36.87909308 156.05459976 36.83883667 C172.78344249 36.47994653 172.78344249 36.47994653 178.46292114 40.89379883 C182.9125447 45.45573514 184.0636122 48.95092857 184.37109375 55.2109375 C184.15099088 61.07301063 182.82462194 64.97794343 178.80859375 69.2734375 C169.21803973 77.58525099 148.58645891 74.51689057 136.3581543 74.75415039 C134.46233032 74.79342231 132.56651238 74.83298679 130.67070007 74.87281799 C125.57195671 74.97909754 120.47313851 75.08125058 115.37429404 75.18254781 C110.01427835 75.28969132 104.65433838 75.40050379 99.29438782 75.510849 C90.30299255 75.69543243 81.31154942 75.87750775 72.32006836 76.05786133 C60.80211917 76.28890466 49.2842591 76.52411929 37.76642132 76.76064396 C27.82635713 76.96473376 17.88625393 77.16689907 7.94614434 77.36876369 C4.76762211 77.43339429 1.58910533 77.49828827 -1.58941078 77.56321907 C-6.59226389 77.66529531 -11.59513998 77.76616564 -16.59803581 77.86612511 C-18.42691433 77.90283114 -20.25578545 77.93990755 -22.08464813 77.9773941 C-27.45341393 78.08728236 -32.82220036 78.18768795 -38.19140625 78.2734375 C-39.33055166 78.29283323 -40.46969707 78.31222897 -41.64336205 78.33221245 C-42.61809282 78.34197672 -43.5928236 78.35174099 -44.59709167 78.36180115 C-45.79894246 78.37553599 -45.79894246 78.37553599 -47.02507305 78.3895483 C-52.71761645 78.08444021 -56.7317686 76.13745851 -60.56640625 71.9609375 C-63.98623797 67.49745141 -65.43615881 63.6098266 -65.19140625 57.9609375 C-63.81664412 49.0962604 -56.77916202 42.40781806 -50.75390625 36.2109375 C-49.48302003 34.88801909 -48.21348478 33.56380151 -46.9453125 32.23828125 C-46.32205078 31.58698242 -45.69878906 30.93568359 -45.05664062 30.26464844 C-42.58076366 27.62155256 -40.20804618 24.89614097 -37.83666992 22.15942383 C-35.0247847 18.93612463 -32.1093742 15.81043441 -29.19921875 12.67578125 C-26.89597079 10.18059596 -24.6625583 7.6529037 -22.515625 5.0234375 C-16.9092412 -1.60999812 -8.12499733 -2.69384938 0 0 Z " fill="#000000" transform="translate(174.19140625,281.7265625)"/>
</svg>
